{
.appVersion = "3414";
.formatVersion = 3;
axes = (
{
name = Weight;
tag = wght;
},
{
name = Width;
tag = wdth;
}
);
classes = (
{
automatic = 1;

glyphs = (
{
glyphname = A;
kernLeft = A;
kernRight = A;
layers = (
{
anchors = (
{
name = bottom;
pos = (307,0);
},
{
name = ogonek;
pos = (631,0);
},
{
name = top;
pos = (307,700);
}
);
background = {
shapes = (
{
closed = 1;
nodes = (
(60,-2,ls),
(80,-2,o),
(96,2,o),
(100,14,cs),
(157,178,l),
(451,178,l),
(510,14,ls),
(514,2,o),
(530,-2,o),
(550,-2,cs),
(558,-2,ls),
(588,-2,o),
(601,5,o),
(601,15,cs),
(601,19,o),
(600,23,o),
(598,28,cs),
(361,686,ls),
(357.5,696.5,o),
(344,702,o),
(321,702,cs),
(292,702,ls),
(269,702,o),
(255.5,696.5,o),
(252,686,cs),
(15,29,ls),
(13,23,o),
(12,19,o),
(12,15,cs),
(12,4,o),
(25,-2,o),
(55,-2,cs)
);
},
{
closed = 1;
nodes = (
(290,552,ls),
(297,571,o),
(301,591,o),
(305,610,c),
(307,610,l),
(310,591,o),
(313,570,o),
(319,552,cs),
(424,254,l),
(185,254,l)
);
}
);
};
layerId = UUID0;
shapes = (
{
closed = 1;
nodes = (
(60,-2,ls),
(80,-2,o),
(96,2,o),
(100,14,cs),
(290,552,ls),
(297,571,o),
(300,591,o),
(304,610,c),
(306,610,l),
(309,591,o),
(315,570,o),
(321,552,cs),
(510,14,ls),
(514,2,o),
(530,-2,o),
(550,-2,cs),
(558,-2,ls),
(588,-2,o),
(601,5,o),
(601,15,cs),
(601,19,o),
(600,23,o),
(598,28,cs),
(361,686,ls),
(357,696,o),
(344,702,o),
(321,702,cs),
(292,702,ls),
(269,702,o),
(256,696,o),
(252,686,cs),
(15,29,ls),
(13,23,o),
(12,19,o),
(12,15,cs),
(12,4,o),
(25,-2,o),
(55,-2,cs)
);
},
{
closed = 1;
nodes = (
(484,180,l),
(484,254,l),
(125,254,l),
(125,180,l)
);
}
);
width = 613;
},
{
anchors = (
{
name = bottom;
pos = (307,0);
},
{
name = ogonek;
pos = (638,0);
},
{
name = top;
pos = (307,700);
}
);
background = {
shapes = (
{
closed = 1;
nodes = (
(101,-2,ls),
(125,-2,o),
(142,4,o),
(147,19,cs),
(187,141,l),
(423,141,l),
(463,19,ls),
(468,3,o),
(490,-2,o),
(519,-2,cs),
(563,-2,ls),
(598,-2,o),
(613,6,o),
(613,20,cs),
(613,25,o),
(612,31,o),
(610,38,cs),
(390,681,ls),
(385,695,o),
(366.5,702,o),
(333,702,cs),
(281,702,ls),
(247.5,702,o),
(229,695,o),
(224,681,cs),
(4,38,ls),
(2,31,o),
(0,25,o),
(0,20,cs),
(0,6,o),
(19,-2,o),
(61,-2,cs)
);
},
{
closed = 1;
nodes = (
(289,451,ls),
(296.5,472,o),
(300,494,o),
(304,515,c),
(308,515,l),
(312,494,o),
(316,472,o),
(323,451,cs),
(380,273,l),
(230,273,l)
);
}
);
};
layerId = "2C16E7AF-C861-4509-900A-75D3055B0FF7";
shapes = (
{
closed = 1;
nodes = (
(101,-2,ls),
(125,-2,o),
(142,4,o),
(147,19,cs),
(289,451,ls),
(296,472,o),
(300,494,o),
(304,515,c),
(308,515,l),
(312,494,o),
(316,472,o),
(323,451,cs),
(463,19,ls),
(468,3,o),
(490,-2,o),
(519,-2,cs),
(563,-2,ls),
(598,-2,o),
(613,6,o),
(613,20,cs),
(613,25,o),
(612,31,o),
(610,38,cs),
(390,681,ls),
(385,695,o),
(367,702,o),
(333,702,cs),
(281,702,ls),
(248,702,o),
(229,695,o),
(224,681,cs),
(4,38,ls),
(2,31,o),
(0,25,o),
(0,20,cs),
(0,6,o),
(19,-2,o),
(61,-2,cs)
);
},
{
closed = 1;
nodes = (
(478,147,l),
(478,268,l),
(136,268,l),
(136,147,l)
);
}
);
width = 613;
},
{
anchors = (
{
name = bottom;
pos = (246,0);
},
{
name = ogonek;
pos = (511,0);
},
{
name = top;
pos = (246,700);
}
);
background = {
shapes = (
{
closed = 1;
nodes = (
(151,254,l),
(128,178,l),
(375,178,l),
(353,254,l)
);
},
{
closed = 1;
nodes = (
(402,14,ls),
(405,2,o),
(419,-2,o),
(438,-2,cs),
(455,-2,ls),
(480,-2,o),
(492,5,o),
(492,15,cs),
(492,19,o),
(491,23,o),
(489,28,cs),
(308,683,ls),
(305,696,o),
(292,702,o),
(268,702,cs),
(236,702,ls),
(213,702,o),
(200,696,o),
(196,683,cs),
(15,28,ls),
(14,23,o),
(13,19,o),
(13,15,cs),
(13,5,o),
(24,-2,o),
(50,-2,cs),
(66,-2,ls),
(84,-2,o),
(99,2,o),
(102,14,cs),
(148,193,l),
(163,239,l),
(238,528,ls),
(243,547,o),
(246,570,o),
(250,589,c),
(255,589,l),
(258,570,o),
(261,547,o),
(266,528,cs),
(341,239,l),
(355,193,l)
);
}
);
};
layerId = "76F17502-367F-435E-B23E-ED9D928E777B";
shapes = (
{
closed = 1;
nodes = (
(57,-2,ls),
(75,-2,o),
(90,2,o),
(93,14,cs),
(231,528,ls),
(236,547,o),
(239,570,o),
(243,589,c),
(248,589,l),
(251,570,o),
(254,547,o),
(259,528,cs),
(396,14,ls),
(399,2,o),
(413,-2,o),
(432,-2,cs),
(449,-2,ls),
(474,-2,o),
(486,5,o),
(486,15,cs),
(486,19,o),
(484,23,o),
(483,28,cs),
(301,683,ls),
(297,696,o),
(285,702,o),
(261,702,cs),
(229,702,ls),
(206,702,o),
(193,696,o),
(189,683,cs),
(6,28,ls),
(5,23,o),
(4,19,o),
(4,15,cs),
(4,5,o),
(15,-2,o),
(41,-2,cs)
);
},
{
closed = 1;
nodes = (
(387,180,l),
(387,254,l),
(103,254,l),
(103,180,l)
);
}
);
width = 490;
},
{
anchors = (
{
name = bottom;
pos = (245,0);
},
{
name = ogonek;
pos = (512,0);
},
{
name = top;
pos = (245,700);
}
);
background = {
shapes = (
{
closed = 0;
nodes = (
(153,24,ls),
(149,3,o),
(127,-2,o),
(99,-2,cs),
(46,-2,ls),
(15,-2,o),
(3,8,o),
(3,22,cs),
(3,27,o),
(3,31,o),
(7,48,cs)
);
}
);
};
layerId = "6662946B-F990-402F-A6FD-22D24AB84B33";
shapes = (
{
closed = 1;
nodes = (
(93,-2,ls),
(120,-2,o),
(142,3,o),
(146,24,cs),
(229,475,ls),
(234,500,o),
(238,526,o),
(241,551,c),
(246,551,l),
(249,526,o),
(253,500,o),
(258,475,cs),
(344,24,ls),
(348,3,o),
(370,-2,o),
(398,-2,cs),
(451,-2,ls),
(482,-2,o),
(494,8,o),
(494,22,cs),
(494,27,o),
(494,31,o),
(490,48,cs),
(346,664,ls),
(339,693,o),
(319,702,o),
(282,702,cs),
(207,702,ls),
(172,702,o),
(151,693,o),
(144,664,cs),
(0,48,ls),
(-4,31,o),
(-4,27,o),
(-4,22,cs),
(-4,8,o),
(8,-2,o),
(39,-2,cs)
);
},
{
closed = 1;
nodes = (
(378,141,l),
(378,263,l),
(111,263,l),
(111,141,l)
);
}
);
width = 490;
},
{
anchors = (
{
name = bottom;
pos = (246,0);
},
{
name = ogonek;
pos = (528,0);
},
{
name = top;
pos = (246,700);
}
);
background = {
shapes = (
{
closed = 0;
nodes = (
(51,10,ls),
(48,2,o),
(43,-2,o),
(33,-2,cs),
(25,-2,ls),
(15,-2,o),
(11,1,o),
(11,8,cs),
(11,9,o),
(12,16,o),
(14,21,cs)
);
},
{
closed = 1;
nodes = (
(66,-2,ls),
(84,-2,o),
(99,2,o),
(102,14,cs),
(144,178,l),
(359,178,l),
(402,14,ls),
(405,2,o),
(419,-2,o),
(438,-2,cs),
(455,-2,ls),
(480,-2,o),
(492,5,o),
(492,15,cs),
(492,19,o),
(491,23,o),
(489,28,cs),
(308,683,ls),
(305,696,o),
(292,702,o),
(268,702,cs),
(236,702,ls),
(213,702,o),
(200,696,o),
(196,683,cs),
(15,28,ls),
(14,23,o),
(13,19,o),
(13,15,cs),
(13,5,o),
(24,-2,o),
(50,-2,cs)
);
},
{
closed = 1;
nodes = (
(238,528,ls),
(243,547,o),
(246,570,o),
(250,589,c),
(255,589,l),
(258,570,o),
(261,547,o),
(266,528,cs),
(337,254,l),
(167,254,l)
);
}
);
};
layerId = "534F5340-05B5-45BC-BA3B-B28DD92592EB";
shapes = (
{
closed = 1;
nodes = (
(36,-2,ls),
(46,-2,o),
(52,2,o),
(54,10,cs),
(202,528,ls),
(218,585,o),
(235,641,o),
(243,669,c),
(248,669,l),
(254,641,o),
(272,585,o),
(288,528,cs),
(436,10,ls),
(438,2,o),
(444,-2,o),
(454,-2,cs),
(462,-2,ls),
(472,-2,o),
(476,1,o),
(476,8,cs),
(476,9,o),
(475,16,o),
(473,21,cs),
(281,683,ls),
(277,696,o),
(269,702,o),
(251,702,cs),
(239,702,ls),
(222,702,o),
(213,696,o),
(209,683,cs),
(17,21,ls),
(15,14,o),
(14,10,o),
(14,8,cs),
(14,1,o),
(18,-2,o),
(28,-2,cs)
);
},
{
closed = 1;
nodes = (
(403,200,l),
(403,233,l),
(88,233,l),
(88,200,l)
);
}
);
width = 490;
},
{
anchors = (
{
name = bottom;
pos = (308,0);
},
{
name = ogonek;
pos = (669,0);
},
{
name = top;
pos = (308,700);
}
);
background = {
shapes = (
{
closed = 1;
nodes = (
(599,-2,o),
(603,2,o),
(603,8,cs),
(603,11,o),
(602,14,o),
(601,17,cs),
(342,686,ls),
(338,697,o),
(329,702,o),
(312,702,cs),
(301,702,ls),
(284,702,o),
(275,697,o),
(271,686,cs),
(10,19,ls),
(3,1,o),
(12,-2,o),
(23,-2,cs),
(31,-2,ls),
(41,-2,o),
(47,3,o),
(51,14,cs),
(262,552,ls),
(278,593,o),
(291,631,o),
(304,669,c),
(306,669,l),
(321,631,o),
(334,595,o),
(351,552,cs),
(561,10,ls),
(565,-1,o),
(570,-2,o),
(584,-2,cs),
(589,-2,ls)
);
}
);
};
layerId = "84AA6C20-0662-4373-B7CF-A8F69217EDA9";
shapes = (
{
closed = 1;
nodes = (
(28,-2,ls),
(42,-2,o),
(47,-1,o),
(51,10,cs),
(261,552,ls),
(278,595,o),
(291,631,o),
(306,669,c),
(308,669,l),
(321,631,o),
(334,593,o),
(350,552,cs),
(562,10,ls),
(566,-1,o),
(571,-2,o),
(585,-2,cs),
(590,-2,ls),
(600,-2,o),
(604,2,o),
(604,8,cs),
(604,11,o),
(603,14,o),
(602,17,cs),
(341,686,ls),
(337,697,o),
(328,702,o),
(311,702,cs),
(300,702,ls),
(284,702,o),
(275,697,o),
(271,686,cs),
(11,17,ls),
(10,14,o),
(9,11,o),
(9,8,cs),
(9,2,o),
(13,-2,o),
(23,-2,cs)
);
},
{
closed = 1;
nodes = (
(505,200,l),
(505,233,l),
(106,233,l),
(106,200,l)
);
}
);
width = 613;
},
{
anchors = (
{
name = bottom;
pos = (245,0);
},
{
name = ogonek;
pos = (512,0);
},
{
name = top;
pos = (245,700);
}
);
layerId = "A5A92505-053D-4D0C-ACDC-6F8463E28DE4";
shapes = (
{
closed = 1;
nodes = (
(112,-2,ls),
(144,-2,o),
(176,3,o),
(180,34,cs),
(233,485,ls),
(235,503,o),
(239,527,o),
(241,551,c),
(246,551,l),
(249,527,o),
(253,503,o),
(255,485,cs),
(309,34,ls),
(313,3,o),
(346,-2,o),
(379,-2,cs),
(424,-2,ls),
(474,-2,o),
(496,6,o),
(496,30,cs),
(496,37,o),
(495,47,o),
(493,58,cs),
(386,644,ls),
(378,690,o),
(346,702,o),
(269,702,cs),
(220,702,ls),
(143,702,o),
(111,690,o),
(103,644,cs),
(-3,58,ls),
(-5,47,o),
(-6,37,o),
(-6,30,cs),
(-6,6,o),
(16,-2,o),
(56,-2,cs)
);
},
{
closed = 1;
nodes = (
(378,121,l),
(378,272,l),
(111,272,l),
(111,121,l)
);
}
);
width = 490;
},
{
anchors = (
{
name = bottom;
pos = (307,0);
},
{
name = ogonek;
pos = (648,0);
},
{
name = top;
pos = (307,700);
}
);
background = {
shapes = (
{
closed = 0;
nodes = (
(434,37,ls),
(442,4,o),
(460,-2,o),
(504,-2,cs),
(574,-2,ls),
(618,-2,o),
(630,9,o),
(630,28,cs),
(630,41,o),
(625,56,o),
(619,74,cs)
);
}
);
};
layerId = "ACEF5F79-87A6-4D8B-B169-2BFCF1568BF8";
shapes = (
{
closed = 1;
nodes = (
(111,-2,ls),
(155,-2,o),
(172,4,o),
(181,37,cs),
(289,451,ls),
(294,472,o),
(300,494,o),
(304,515,c),
(308,515,l),
(312,494,o),
(318,472,o),
(323,451,cs),
(428,37,ls),
(437,3,o),
(460,-2,o),
(499,-2,cs),
(568,-2,ls),
(613,-2,o),
(625,9,o),
(625,28,cs),
(625,41,o),
(620,56,o),
(614,74,cs),
(434,654,ls),
(421,695,o),
(402,702,o),
(358,702,cs),
(256,702,ls),
(213,702,o),
(193,695,o),
(180,654,cs),
(1,74,ls),
(-5,56,o),
(-10,41,o),
(-10,28,cs),
(-10,9,o),
(2,-2,o),
(46,-2,cs)
);
},
{
closed = 1;
nodes = (
(477,121,l),
(477,273,l),
(135,273,l),
(135,121,l)
);
}
);
width = 613;
},
{
anchors = (
{
name = bottom;
pos = (368,0);
},
{
name = ogonek;
pos = (768,0);
},
{
name = top;
pos = (368,700);
}
);
layerId = "2EA36C28-4342-4323-91EA-7DB25AD3237F";
shapes = (
{
closed = 1;
nodes = (
(130,-2,ls),
(174,-2,o),
(189,5,o),
(200,37,cs),
(345,471,ls),
(352,491,o),
(360,514,o),
(364,535,c),
(368,535,l),
(372,514,o),
(380,491,o),
(387,471,cs),
(529,37,ls),
(540,4,o),
(561,-2,o),
(600,-2,cs),
(678,-2,ls),
(723,-2,o),
(736,10,o),
(736,29,cs),
(736,42,o),
(731,56,o),
(724,74,cs),
(503,654,ls),
(488,694,o),
(471,702,o),
(412,702,cs),
(322,702,ls),
(263,702,o),
(246,694,o),
(231,654,cs),
(11,74,ls),
(4,56,o),
(-1,42,o),
(-1,29,cs),
(-1,10,o),
(12,-2,o),
(56,-2,cs)
);
},
{
closed = 1;
nodes = (
(537,121,l),
(537,273,l),
(195,273,l),
(195,121,l)
);
}
);
width = 735;
},
{
anchors = (
{
name = bottom;
pos = (368,0);
},
{
name = ogonek;
pos = (759,0);
},
{
name = top;
pos = (368,700);
}
);
layerId = "D9F64F14-09E8-47AC-ADF7-F859BCC4D5F5";
shapes = (
{
closed = 1;
nodes = (
(122,-2,ls),
(146,-2,o),
(162,4,o),
(169,24,cs),
(346,501,ls),
(354,522,o),
(361,544,o),
(365,565,c),
(369,565,l),
(373,544,o),
(380,522,o),
(388,501,cs),
(562,24,ls),
(570,3,o),
(591,-2,o),
(620,-2,cs),
(674,-2,ls),
(709,-2,o),
(724,6,o),
(724,20,cs),
(724,25,o),
(724,31,o),
(721,38,cs),
(475,667,ls),
(464,696,o),
(440,702,o),
(398,702,cs),
(338,702,ls),
(297,702,o),
(272,696,o),
(261,667,cs),
(15,38,ls),
(12,31,o),
(11,25,o),
(11,20,cs),
(11,6,o),
(20,-2,o),
(72,-2,cs)
);
},
{
closed = 1;
nodes = (
(569,147,l),
(569,268,l),
(157,268,l),
(157,147,l)
);
}
);
width = 735;
},
{
anchors = (
{
name = bottom;
pos = (368,0);
},
{
name = ogonek;
pos = (754,0);
},
{
name = top;
pos = (368,700);
}
);
background = {
shapes = (
{
closed = 1;
nodes = (
(71,-2,ls),
(91,-2,o),
(106,2,o),
(111,14,cs),
(351,582,ls),
(359,601,o),
(362,621,o),
(366,640,c),
(368,640,l),
(371,621,o),
(372,600,o),
(380,582,cs),
(621,14,ls),
(626,2,o),
(641,-2,o),
(661,-2,cs),
(669,-2,ls),
(699,-2,o),
(712,5,o),
(712,15,cs),
(712,19,o),
(711,23,o),
(709,28,cs),
(422,686,ls),
(418,696,o),
(405,702,o),
(382,702,cs),
(353,702,ls),
(330,702,o),
(317,696,o),
(313,686,cs),
(26,29,ls),
(23,23,o),
(23,19,o),
(23,15,cs),
(23,4,o),
(36,-2,o),
(66,-2,cs)
);
},
{
closed = 1;
nodes = (
(545,178,l),
(545,254,l),
(186,254,l),
(186,178,l)
);
}
);
};
layerId = "8ED31224-68B7-412A-B4C3-E53F784CF4E5";
shapes = (
{
closed = 1;
nodes = (
(73,-2,ls),
(93,-2,o),
(107,0,o),
(114,17,cs),
(333,548,ls),
(345,578,o),
(361,617,o),
(367,640,c),
(369,640,l),
(375,613,o),
(390,574,o),
(401,548,cs),
(618,17,ls),
(625,0,o),
(639,-2,o),
(660,-2,cs),
(669,-2,ls),
(699,-2,o),
(712,5,o),
(712,15,cs),
(712,19,o),
(711,23,o),
(709,28,cs),
(434,681,ls),
(428,696,o),
(412,702,o),
(384,702,cs),
(351,702,ls),
(323,702,o),
(307,696,o),
(301,681,cs),
(26,29,ls),
(23,23,o),
(23,19,o),
(23,15,cs),
(23,4,o),
(36,-2,o),
(66,-2,cs)
);
},
{
closed = 1;
nodes = (
(575,180,l),
(575,254,l),
(156,254,l),
(156,180,l)
);
}
);
width = 735;
},
{
anchors = (
{
name = bottom;
pos = (368,0);
},
{
name = ogonek;
pos = (791,0);
},
{
name = top;
pos = (368,700);
}
);
background = {
shapes = (
{
closed = 1;
nodes = (
(39,-2,ls),
(53,-2,o),
(57,-1,o),
(62,10,cs),
(313,552,ls),
(331,591,o),
(349,630,o),
(367,669,c),
(369,669,l),
(387,630,o),
(405,591,o),
(423,552,cs),
(673,10,ls),
(678,-1,o),
(682,-2,o),
(696,-2,cs),
(701,-2,ls),
(711,-2,o),
(715,2,o),
(715,8,cs),
(715,11,o),
(714,14,o),
(713,17,cs),
(403,686,ls),
(398,697,o),
(390,702,o),
(373,702,cs),
(362,702,ls),
(345,702,o),
(337,697,o),
(332,686,cs),
(22,17,ls),
(21,14,o),
(20,11,o),
(20,8,cs),
(20,2,o),
(24,-2,o),
(34,-2,cs)
);
},
{
closed = 1;
nodes = (
(596,199,l),
(596,233,l),
(137,233,l),
(137,199,l)
);
}
);
};
layerId = "79DB91E0-15EF-4446-816D-FE9384315D55";
shapes = (
{
closed = 1;
nodes = (
(39,-2,ls),
(53,-2,o),
(57,-1,o),
(62,10,cs),
(313,552,ls),
(331,591,o),
(349,631,o),
(367,670,c),
(369,670,l),
(387,631,o),
(405,591,o),
(423,552,cs),
(673,10,ls),
(678,-1,o),
(682,-2,o),
(696,-2,cs),
(701,-2,ls),
(711,-2,o),
(716,1,o),
(716,7,cs),
(716,10,o),
(714,14,o),
(713,17,cs),
(403,686,ls),
(398,697,o),
(390,702,o),
(373,702,cs),
(362,702,ls),
(345,702,o),
(337,697,o),
(332,686,cs),
(22,17,ls),
(21,14,o),
(19,10,o),
(19,7,cs),
(19,1,o),
(24,-2,o),
(34,-2,cs)
);
},
{
closed = 1;
nodes = (
(596,200,l),
(596,233,l),
(137,233,l),
(137,200,l)
);
}
);
width = 735;
}
);
unicode = 65;
userData = {
RMXScaler = {
source = A;
};
};
},
{
glyphname = Abreveacute;
kernLeft = A;
kernRight = A;
layers = (
{
layerId = UUID0;
shapes = (
{
ref = A;
},
{
pos = (175,0);
ref = brevecomb.case;
},
{
pos = (221,132);
ref = acutecomb.case;
}
);
width = 613;
},
{
layerId = "2C16E7AF-C861-4509-900A-75D3055B0FF7";
shapes = (
{
ref = A;
},
{
pos = (161,0);
ref = brevecomb.case;
},
{
pos = (215,152);
ref = acutecomb.case;
}
);
width = 613;
},
{
background = {
shapes = (
{
closed = 1;
nodes = (
(253,846,o),
(263,852,o),
(272,864,cs),
(333,952,o),
(340,960,o),
(340,970,cs),
(340,980,o),
(331,983,o),
(309,983,cs),
(285,983,o),
(264,976,o),
(255,957,cs),
(221,884,o),
(213,865,o),
(213,856,cs),
(213,849,o),
(220,846,o),
(236,846,cs)
);
},
{
closed = 1;
nodes = (
(313,762,o),
(362,800,o),
(362,857,cs),
(362,874,o),
(357,879,o),
(346,879,cs),
(330,879,o),
(329,869,o),
(323,854,cs),
(316,837,o),
(289,813,o),
(246,813,cs),
(204,813,o),
(176,836,o),
(168,854,cs),
(160,871,o),
(159,879,o),
(145,879,cs),
(133,879,o),
(129,874,o),
(129,857,cs),
(129,800,o),
(178,762,o),
(246,762,cs)
);
}
);
};
layerId = "76F17502-367F-435E-B23E-ED9D928E777B";
shapes = (
{
ref = A;
},
{
pos = (124,0);
ref = brevecomb.case;
},
{
pos = (190,132);
ref = acutecomb.case;
}
);
width = 490;
},
{
background = {
shapes = (
{
closed = 1;
nodes = (
(261,864,o),
(273,871,o),
(281,879,cs),
(342,953,o),
(355,969,o),
(355,979,cs),
(355,998,o),
(341,1003,o),
(315,1003,cs),
(280,1003,o),
(251,997,o),
(240,976,cs),
(215,909,o),
(205,888,o),
(205,879,cs),
(205,868,o),
(210,864,o),
(226,864,cs)
);
},
{
closed = 1;
nodes = (
(331,752,o),
(376,804,o),
(376,846,cs),
(376,872,o),
(358,880,o),
(336,880,cs),
(322,880,o),
(313,873,o),
(309,864,cs),
(302,852,o),
(299,828,o),
(246,828,cs),
(196,828,o),
(192,850,o),
(185,862,cs),
(180,872,o),
(171,880,o),
(156,880,cs),
(134,880,o),
(115,872,o),
(115,845,cs),
(115,803,o),
(161,752,o),
(245,752,cs)
);
}
);
};
layerId = "6662946B-F990-402F-A6FD-22D24AB84B33";
shapes = (
{
ref = A;
},
{
pos = (109,0);
ref = brevecomb.case;
},
{
pos = (173,152);
ref = acutecomb.case;
}
);
width = 490;
},
{
background = {
shapes = (
{
closed = 1;
nodes = (
(253,846,o),
(263,852,o),
(272,864,cs),
(333,952,o),
(340,960,o),
(340,970,cs),
(340,980,o),
(331,983,o),
(309,983,cs),
(285,983,o),
(264,976,o),
(255,957,cs),
(221,884,o),
(213,865,o),
(213,856,cs),
(213,849,o),
(220,846,o),
(236,846,cs)
);
},
{
closed = 1;
nodes = (
(313,762,o),
(362,800,o),
(362,857,cs),
(362,874,o),
(357,879,o),
(346,879,cs),
(330,879,o),
(329,869,o),
(323,854,cs),
(316,837,o),
(289,813,o),
(246,813,cs),
(204,813,o),
(176,836,o),
(168,854,cs),
(160,871,o),
(159,879,o),
(145,879,cs),
(133,879,o),
(129,874,o),
(129,857,cs),
(129,800,o),
(178,762,o),
(246,762,cs)
);
}
);
};
layerId = "534F5340-05B5-45BC-BA3B-B28DD92592EB";
shapes = (
{
ref = A;
},
{
pos = (124,0);
ref = brevecomb.case;
},
{
pos = (208,132);
ref = acutecomb.case;
}
);
width = 490;
},
{
layerId = "84AA6C20-0662-4373-B7CF-A8F69217EDA9";
shapes = (
{
ref = A;
},
{
pos = (176,0);
ref = brevecomb.case;
},
{
pos = (248,132);
ref = acutecomb.case;
}
);
width = 613;
},
{
background = {
shapes = (
{
closed = 1;
nodes = (
(261,864,o),
(273,871,o),
(281,879,cs),
(342,953,o),
(355,969,o),
(355,979,cs),
(355,998,o),
(341,1003,o),
(315,1003,cs),
(280,1003,o),
(251,997,o),
(240,976,cs),
(215,909,o),
(205,888,o),
(205,879,cs),
(205,868,o),
(210,864,o),
(226,864,cs)
);
},
{
closed = 1;
nodes = (
(331,752,o),
(376,804,o),
(376,846,cs),
(376,872,o),
(358,880,o),
(336,880,cs),
(322,880,o),
(313,873,o),
(309,864,cs),
(302,852,o),
(299,828,o),
(246,828,cs),
(196,828,o),
(192,850,o),
(185,862,cs),
(180,872,o),
(171,880,o),
(156,880,cs),
(134,880,o),
(115,872,o),
(115,845,cs),
(115,803,o),
(161,752,o),
(245,752,cs)
);
}
);
};
layerId = "A5A92505-053D-4D0C-ACDC-6F8463E28DE4";
shapes = (
{
ref = A;
},
{
pos = (99,0);
ref = brevecomb.case;
},
{
pos = (156,162);
ref = acutecomb.case;
}
);
width = 490;
},
{
layerId = "ACEF5F79-87A6-4D8B-B169-2BFCF1568BF8";
shapes = (
{
ref = A;
},
{
pos = (151,0);
ref = brevecomb.case;
},
{
pos = (213,162);
ref = acutecomb.case;
}
);
width = 613;
},
{
layerId = "2EA36C28-4342-4323-91EA-7DB25AD3237F";
shapes = (
{
ref = A;
},
{
pos = (202,0);
ref = brevecomb.case;
},
{
pos = (261,162);
ref = acutecomb.case;
}
);
width = 735;
},
{
layerId = "D9F64F14-09E8-47AC-ADF7-F859BCC4D5F5";
shapes = (
{
ref = A;
},
{
pos = (212,0);
ref = brevecomb.case;
},
{
pos = (276,152);
ref = acutecomb.case;
}
);
width = 735;
},
{
layerId = "8ED31224-68B7-412A-B4C3-E53F784CF4E5";
shapes = (
{
ref = A;
},
{
pos = (226,0);
ref = brevecomb.case;
},
{
pos = (282,132);
ref = acutecomb.case;
}
);
width = 735;
},
{
layerId = "79DB91E0-15EF-4446-816D-FE9384315D55";
shapes = (
{
ref = A;
},
{
pos = (226,0);
ref = brevecomb.case;
},
{
pos = (297,132);
ref = acutecomb.case;
}
);
width = 735;
}
);
unicode = 7854;
},
{
glyphname = Acircumflexacute;
kernLeft = A;
kernRight = A;
layers = (
{
layerId = UUID0;
shapes = (
{
ref = A;
},
{
pos = (177,0);
ref = circumflexcomb.case;
},
{
pos = (221,137);
ref = acutecomb.case;
}
);
width = 613;
},
{
layerId = "2C16E7AF-C861-4509-900A-75D3055B0FF7";
shapes = (
{
ref = A;
},
{
pos = (160,0);
ref = circumflexcomb.case;
},
{
pos = (215,142);
ref = acutecomb.case;
}
);
width = 613;
},
{
background = {
shapes = (
{
closed = 1;
nodes = (
(360,849,o),
(370,855,o),
(379,867,cs),
(440,955,o),
(447,963,o),
(447,973,cs),
(447,983,o),
(438,986,o),
(416,986,cs),
(392,986,o),
(371,979,o),
(362,960,cs),
(328,887,o),
(320,868,o),
(320,859,cs),
(320,852,o),
(327,849,o),
(343,849,cs)
);
},
{
closed = 1;
nodes = (
(180,753,l),
(191,753,o),
(200,754,o),
(206,766,c),
(245,840,l),
(284,766,ls),
(290,757,o),
(300,753,o),
(310,753,c),
(329,753,l),
(341,753,o),
(349,759,o),
(349,768,cs),
(349,773,o),
(345,779,o),
(342,785,cs),
(294,873,ls),
(286,888,o),
(273,895,o),
(253,895,cs),
(237,895,ls),
(219,895,o),
(204,888,o),
(196,873,cs),
(148,785,ls),
(145,779,o),
(143,771,o),
(143,766,cs),
(143,759,o),
(149,753,o),
(162,753,c)
);
}
);
};
layerId = "76F17502-367F-435E-B23E-ED9D928E777B";
shapes = (
{
ref = A;
},
{
pos = (138,0);
ref = circumflexcomb.case;
},
{
pos = (190,137);
ref = acutecomb.case;
}
);
width = 490;
},
{
background = {
shapes = (
{
closed = 1;
nodes = (
(385,853,o),
(397,860,o),
(405,868,cs),
(466,942,o),
(479,958,o),
(479,968,cs),
(479,987,o),
(465,992,o),
(439,992,cs),
(404,992,o),
(375,986,o),
(364,965,cs),
(339,898,o),
(329,877,o),
(329,868,cs),
(329,857,o),
(334,853,o),
(350,853,cs)
);
},
{
closed = 1;
nodes = (
(175,749,ls),
(195,749,o),
(216,751,o),
(225,768,cs),
(245,813,l),
(265,767,ls),
(272,755,o),
(290,749,o),
(316,749,cs),
(344,749,ls),
(356,749,o),
(364,752,o),
(364,759,cs),
(364,763,o),
(362,768,o),
(359,774,cs),
(303,876,ls),
(293,894,o),
(273,895,o),
(246,895,cs),
(244,895,ls),
(218,895,o),
(197,894,o),
(187,876,cs),
(132,774,ls),
(129,768,o),
(127,764,o),
(127,759,cs),
(127,751,o),
(132,749,o),
(148,749,c)
);
}
);
};
layerId = "6662946B-F990-402F-A6FD-22D24AB84B33";
shapes = (
{
ref = A;
},
{
pos = (111,0);
ref = circumflexcomb.case;
},
{
pos = (173,142);
ref = acutecomb.case;
}
);
width = 490;
},
{
background = {
shapes = (
{
closed = 1;
nodes = (
(360,849,o),
(370,855,o),
(379,867,cs),
(440,955,o),
(447,963,o),
(447,973,cs),
(447,983,o),
(438,986,o),
(416,986,cs),
(392,986,o),
(371,979,o),
(362,960,cs),
(328,887,o),
(320,868,o),
(320,859,cs),
(320,852,o),
(327,849,o),
(343,849,cs)
);
},
{
closed = 1;
nodes = (
(180,753,l),
(191,753,o),
(200,754,o),
(206,766,c),
(245,840,l),
(284,766,ls),
(290,757,o),
(300,753,o),
(310,753,c),
(329,753,l),
(341,753,o),
(349,759,o),
(349,768,cs),
(349,773,o),
(345,779,o),
(342,785,cs),
(294,873,ls),
(286,888,o),
(273,895,o),
(253,895,cs),
(237,895,ls),
(219,895,o),
(204,888,o),
(196,873,cs),
(148,785,ls),
(145,779,o),
(143,771,o),
(143,766,cs),
(143,759,o),
(149,753,o),
(162,753,c)
);
}
);
};
layerId = "534F5340-05B5-45BC-BA3B-B28DD92592EB";
shapes = (
{
ref = A;
},
{
pos = (151,0);
ref = circumflexcomb.case;
},
{
pos = (208,137);
ref = acutecomb.case;
}
);
width = 490;
},
{
layerId = "84AA6C20-0662-4373-B7CF-A8F69217EDA9";
shapes = (
{
ref = A;
},
{
pos = (208,0);
ref = circumflexcomb.case;
},
{
pos = (248,137);
ref = acutecomb.case;
}
);
width = 613;
},
{
background = {
shapes = (
{
closed = 1;
nodes = (
(385,853,o),
(397,860,o),
(405,868,cs),
(466,942,o),
(479,958,o),
(479,968,cs),
(479,987,o),
(465,992,o),
(439,992,cs),
(404,992,o),
(375,986,o),
(364,965,cs),
(339,898,o),
(329,877,o),
(329,868,cs),
(329,857,o),
(334,853,o),
(350,853,cs)
);
},
{
closed = 1;
nodes = (
(175,749,ls),
(195,749,o),
(216,751,o),
(225,768,cs),
(245,813,l),
(265,767,ls),
(272,755,o),
(290,749,o),
(316,749,cs),
(344,749,ls),
(356,749,o),
(364,752,o),
(364,759,cs),
(364,763,o),
(362,768,o),
(359,774,cs),
(303,876,ls),
(293,894,o),
(273,895,o),
(246,895,cs),
(244,895,ls),
(218,895,o),
(197,894,o),
(187,876,cs),
(132,774,ls),
(129,768,o),
(127,764,o),
(127,759,cs),
(127,751,o),
(132,749,o),
(148,749,c)
);
}
);
};
layerId = "A5A92505-053D-4D0C-ACDC-6F8463E28DE4";
shapes = (
{
ref = A;
},
{
pos = (111,0);
ref = circumflexcomb.case;
},
{
pos = (156,142);
ref = acutecomb.case;
}
);
width = 490;
},
{
layerId = "ACEF5F79-87A6-4D8B-B169-2BFCF1568BF8";
shapes = (
{
ref = A;
},
{
pos = (159,0);
ref = circumflexcomb.case;
},
{
pos = (213,142);
ref = acutecomb.case;
}
);
width = 613;
},
{
layerId = "2EA36C28-4342-4323-91EA-7DB25AD3237F";
shapes = (
{
ref = A;
},
{
pos = (200,0);
ref = circumflexcomb.case;
},
{
pos = (261,142);
ref = acutecomb.case;
}
);
width = 735;
},
{
layerId = "D9F64F14-09E8-47AC-ADF7-F859BCC4D5F5";
shapes = (
{
ref = A;
},
{
pos = (201,0);
ref = circumflexcomb.case;
},
{
pos = (276,142);
ref = acutecomb.case;
}
);
width = 735;
},
{
layerId = "8ED31224-68B7-412A-B4C3-E53F784CF4E5";
shapes = (
{
ref = A;
},
{
pos = (218,0);
ref = circumflexcomb.case;
},
{
pos = (282,137);
ref = acutecomb.case;
}
);
width = 735;
},
{
layerId = "79DB91E0-15EF-4446-816D-FE9384315D55";
shapes = (
{
ref = A;
},
{
pos = (258,0);
ref = circumflexcomb.case;
},
{
pos = (297,137);
ref = acutecomb.case;
}
);
width = 735;
}
);
unicode = 7844;
},
{
glyphname = Acircumflexgrave;
kernLeft = A;
kernRight = A;
layers = (
{
layerId = UUID0;
shapes = (
{
ref = A;
},
{
pos = (177,0);
ref = circumflexcomb.case;
},
{
pos = (199,137);
ref = gravecomb.case;
}
);
width = 613;
},
{
layerId = "2C16E7AF-C861-4509-900A-75D3055B0FF7";
shapes = (
{
ref = A;
},
{
pos = (160,0);
ref = circumflexcomb.case;
},
{
pos = (175,142);
ref = gravecomb.case;
}
);
width = 613;
},
{
layerId = "76F17502-367F-435E-B23E-ED9D928E777B";
shapes = (
{
ref = A;
},
{
pos = (138,0);
ref = circumflexcomb.case;
},
{
pos = (166,137);
ref = gravecomb.case;
}
);
width = 490;
},
{
background = {
shapes = (
{
closed = 1;
nodes = (
(421,853,o),
(427,857,o),
(427,868,cs),
(427,877,o),
(418,899,o),
(393,965,cs),
(383,986,o),
(351,992,o),
(314,992,cs),
(286,992,o),
(271,988,o),
(271,972,cs),
(271,962,o),
(280,952,o),
(344,872,cs),
(353,862,o),
(366,853,o),
(402,853,cs)
);
},
{
closed = 1;
nodes = (
(175,749,ls),
(195,749,o),
(216,751,o),
(225,768,cs),
(245,813,l),
(265,767,ls),
(272,755,o),
(290,749,o),
(316,749,cs),
(344,749,ls),
(356,749,o),
(364,752,o),
(364,759,cs),
(364,763,o),
(362,768,o),
(359,774,cs),
(303,876,ls),
(293,894,o),
(273,895,o),
(246,895,cs),
(244,895,ls),
(218,895,o),
(197,894,o),
(187,876,cs),
(132,774,ls),
(129,768,o),
(127,764,o),
(127,759,cs),
(127,751,o),
(132,749,o),
(148,749,c)
);
}
);
};
layerId = "6662946B-F990-402F-A6FD-22D24AB84B33";
shapes = (
{
ref = A;
},
{
pos = (111,0);
ref = circumflexcomb.case;
},
{
pos = (122,142);
ref = gravecomb.case;
}
);
width = 490;
},
{
layerId = "534F5340-05B5-45BC-BA3B-B28DD92592EB";
shapes = (
{
ref = A;
},
{
pos = (151,0);
ref = circumflexcomb.case;
},
{
pos = (173,137);
ref = gravecomb.case;
}
);
width = 490;
},
{
layerId = "84AA6C20-0662-4373-B7CF-A8F69217EDA9";
shapes = (
{
ref = A;
},
{
pos = (208,0);
ref = circumflexcomb.case;
},
{
pos = (228,137);
ref = gravecomb.case;
}
);
width = 613;
},
{
background = {
shapes = (
{
closed = 1;
nodes = (
(421,853,o),
(427,857,o),
(427,868,cs),
(427,877,o),
(418,899,o),
(393,965,cs),
(383,986,o),
(351,992,o),
(314,992,cs),
(286,992,o),
(271,988,o),
(271,972,cs),
(271,962,o),
(280,952,o),
(344,872,cs),
(353,862,o),
(366,853,o),
(402,853,cs)
);
},
{
closed = 1;
nodes = (
(175,749,ls),
(195,749,o),
(216,751,o),
(225,768,cs),
(245,813,l),
(265,767,ls),
(272,755,o),
(290,749,o),
(316,749,cs),
(344,749,ls),
(356,749,o),
(364,752,o),
(364,759,cs),
(364,763,o),
(362,768,o),
(359,774,cs),
(303,876,ls),
(293,894,o),
(273,895,o),
(246,895,cs),
(244,895,ls),
(218,895,o),
(197,894,o),
(187,876,cs),
(132,774,ls),
(129,768,o),
(127,764,o),
(127,759,cs),
(127,751,o),
(132,749,o),
(148,749,c)
);
}
);
};
layerId = "A5A92505-053D-4D0C-ACDC-6F8463E28DE4";
shapes = (
{
ref = A;
},
{
pos = (111,0);
ref = circumflexcomb.case;
},
{
pos = (107,142);
ref = gravecomb.case;
}
);
width = 490;
},
{
layerId = "ACEF5F79-87A6-4D8B-B169-2BFCF1568BF8";
shapes = (
{
ref = A;
},
{
pos = (159,0);
ref = circumflexcomb.case;
},
{
pos = (156,142);
ref = gravecomb.case;
}
);
width = 613;
},
{
layerId = "2EA36C28-4342-4323-91EA-7DB25AD3237F";
shapes = (
{
ref = A;
},
{
pos = (200,0);
ref = circumflexcomb.case;
},
{
pos = (203,142);
ref = gravecomb.case;
}
);
width = 735;
},
{
layerId = "D9F64F14-09E8-47AC-ADF7-F859BCC4D5F5";
shapes = (
{
ref = A;
},
{
pos = (201,0);
ref = circumflexcomb.case;
},
{
pos = (236,142);
ref = gravecomb.case;
}
);
width = 735;
},
{
layerId = "8ED31224-68B7-412A-B4C3-E53F784CF4E5";
shapes = (
{
ref = A;
},
{
pos = (218,0);
ref = circumflexcomb.case;
},
{
pos = (240,137);
ref = gravecomb.case;
}
);
width = 735;
},
{
layerId = "79DB91E0-15EF-4446-816D-FE9384315D55";
shapes = (
{
ref = A;
},
{
pos = (258,0);
ref = circumflexcomb.case;
},
{
pos = (266,137);
ref = gravecomb.case;
}
);
width = 735;
}
);
unicode = 7846;
},
{
glyphname = Acircumflexhookabove;
kernLeft = A;
kernRight = A;
layers = (
{
layerId = UUID0;
shapes = (
{
ref = A;
},
{
pos = (177,0);
ref = circumflexcomb.case;
},
{
pos = (217,137);
ref = hookabovecomb.case;
}
);
width = 613;
},
{
layerId = "2C16E7AF-C861-4509-900A-75D3055B0FF7";
shapes = (
{
ref = A;
},
{
pos = (160,0);
ref = circumflexcomb.case;
},
{
pos = (211,142);
ref = hookabovecomb.case;
}
);
width = 613;
},
{
background = {
shapes = (
{
closed = 1;
nodes = (
(360,856,o),
(381,866,o),
(395,878,cs),
(412,892,o),
(430,911,o),
(430,942,cs),
(430,994,o),
(378,1010,o),
(344,1010,cs),
(309,1010,o),
(266,995,o),
(266,982,cs),
(266,972,o),
(282,949,o),
(290,949,cs),
(295,949,o),
(305,962,o),
(336,962,cs),
(356,962,o),
(373,953,o),
(373,935,cs),
(373,921,o),
(362,909,o),
(342,898,cs),
(326,889,o),
(317,884,o),
(317,876,cs),
(317,867,o),
(333,856,o),
(354,856,cs)
);
},
{
closed = 1;
nodes = (
(180,753,l),
(191,753,o),
(200,754,o),
(206,766,c),
(245,840,l),
(284,766,ls),
(290,757,o),
(300,753,o),
(310,753,c),
(329,753,l),
(341,753,o),
(349,759,o),
(349,768,cs),
(349,773,o),
(345,779,o),
(342,785,cs),
(294,873,ls),
(286,888,o),
(273,895,o),
(253,895,cs),
(237,895,ls),
(219,895,o),
(204,888,o),
(196,873,cs),
(148,785,ls),
(145,779,o),
(143,771,o),
(143,766,cs),
(143,759,o),
(149,753,o),
(162,753,c)
);
}
);
};
layerId = "76F17502-367F-435E-B23E-ED9D928E777B";
shapes = (
{
ref = A;
},
{
pos = (138,0);
ref = circumflexcomb.case;
},
{
pos = (166,137);
ref = hookabovecomb.case;
}
);
width = 490;
},
{
background = {
shapes = (
{
closed = 1;
nodes = (
(391,861,o),
(413,875,o),
(423,883,cs),
(443,899,o),
(449,914,o),
(449,930,cs),
(449,970,o),
(414,996,o),
(356,996,cs),
(321,996,o),
(276,981,o),
(276,968,cs),
(276,953,o),
(298,926,o),
(306,926,cs),
(315,926,o),
(326,943,o),
(359,943,cs),
(369,943,o),
(380,937,o),
(380,926,cs),
(380,912,o),
(368,907,o),
(349,898,cs),
(339,893,o),
(330,886,o),
(330,882,cs),
(330,871,o),
(347,861,o),
(374,861,cs)
);
},
{
closed = 1;
nodes = (
(175,749,ls),
(195,749,o),
(216,751,o),
(225,768,cs),
(245,813,l),
(265,767,ls),
(272,755,o),
(290,749,o),
(316,749,cs),
(344,749,ls),
(356,749,o),
(364,752,o),
(364,759,cs),
(364,763,o),
(362,768,o),
(359,774,cs),
(303,876,ls),
(293,894,o),
(273,895,o),
(246,895,cs),
(244,895,ls),
(218,895,o),
(197,894,o),
(187,876,cs),
(132,774,ls),
(129,768,o),
(127,764,o),
(127,759,cs),
(127,751,o),
(132,749,o),
(148,749,c)
);
}
);
};
layerId = "6662946B-F990-402F-A6FD-22D24AB84B33";
shapes = (
{
ref = A;
},
{
pos = (111,0);
ref = circumflexcomb.case;
},
{
pos = (159,142);
ref = hookabovecomb.case;
}
);
width = 490;
},
{
background = {
shapes = (
{
closed = 1;
nodes = (
(360,856,o),
(381,866,o),
(395,878,cs),
(412,892,o),
(430,911,o),
(430,942,cs),
(430,994,o),
(378,1010,o),
(344,1010,cs),
(309,1010,o),
(266,995,o),
(266,982,cs),
(266,972,o),
(282,949,o),
(290,949,cs),
(295,949,o),
(305,962,o),
(336,962,cs),
(356,962,o),
(373,953,o),
(373,935,cs),
(373,921,o),
(362,909,o),
(342,898,cs),
(326,889,o),
(317,884,o),
(317,876,cs),
(317,867,o),
(333,856,o),
(354,856,cs)
);
},
{
closed = 1;
nodes = (
(180,753,l),
(191,753,o),
(200,754,o),
(206,766,c),
(245,840,l),
(284,766,ls),
(290,757,o),
(300,753,o),
(310,753,c),
(329,753,l),
(341,753,o),
(349,759,o),
(349,768,cs),
(349,773,o),
(345,779,o),
(342,785,cs),
(294,873,ls),
(286,888,o),
(273,895,o),
(253,895,cs),
(237,895,ls),
(219,895,o),
(204,888,o),
(196,873,cs),
(148,785,ls),
(145,779,o),
(143,771,o),
(143,766,cs),
(143,759,o),
(149,753,o),
(162,753,c)
);
}
);
};
layerId = "534F5340-05B5-45BC-BA3B-B28DD92592EB";
shapes = (
{
ref = A;
},
{
pos = (151,0);
ref = circumflexcomb.case;
},
{
pos = (166,137);
ref = hookabovecomb.case;
}
);
width = 490;
},
{
layerId = "84AA6C20-0662-4373-B7CF-A8F69217EDA9";
shapes = (
{
ref = A;
},
{
pos = (208,0);
ref = circumflexcomb.case;
},
{
pos = (218,137);
ref = hookabovecomb.case;
}
);
width = 613;
},
{
background = {
shapes = (
{
closed = 1;
nodes = (
(391,861,o),
(413,875,o),
(423,883,cs),
(443,899,o),
(449,914,o),
(449,930,cs),
(449,970,o),
(414,996,o),
(356,996,cs),
(321,996,o),
(276,981,o),
(276,968,cs),
(276,953,o),
(298,926,o),
(306,926,cs),
(315,926,o),
(326,943,o),
(359,943,cs),
(369,943,o),
(380,937,o),
(380,926,cs),
(380,912,o),
(368,907,o),
(349,898,cs),
(339,893,o),
(330,886,o),
(330,882,cs),
(330,871,o),
(347,861,o),
(374,861,cs)
);
},
{
closed = 1;
nodes = (
(175,749,ls),
(195,749,o),
(216,751,o),
(225,768,cs),
(245,813,l),
(265,767,ls),
(272,755,o),
(290,749,o),
(316,749,cs),
(344,749,ls),
(356,749,o),
(364,752,o),
(364,759,cs),
(364,763,o),
(362,768,o),
(359,774,cs),
(303,876,ls),
(293,894,o),
(273,895,o),
(246,895,cs),
(244,895,ls),
(218,895,o),
(197,894,o),
(187,876,cs),
(132,774,ls),
(129,768,o),
(127,764,o),
(127,759,cs),
(127,751,o),
(132,749,o),
(148,749,c)
);
}
);
};
layerId = "A5A92505-053D-4D0C-ACDC-6F8463E28DE4";
shapes = (
{
ref = A;
},
{
pos = (111,0);
ref = circumflexcomb.case;
},
{
pos = (157,142);
ref = hookabovecomb.case;
}
);
width = 490;
},
{
layerId = "ACEF5F79-87A6-4D8B-B169-2BFCF1568BF8";
shapes = (
{
ref = A;
},
{
pos = (159,0);
ref = circumflexcomb.case;
},
{
pos = (209,142);
ref = hookabovecomb.case;
}
);
width = 613;
},
{
layerId = "2EA36C28-4342-4323-91EA-7DB25AD3237F";
shapes = (
{
ref = A;
},
{
pos = (200,0);
ref = circumflexcomb.case;
},
{
pos = (260,142);
ref = hookabovecomb.case;
}
);
width = 735;
},
{
layerId = "D9F64F14-09E8-47AC-ADF7-F859BCC4D5F5";
shapes = (
{
ref = A;
},
{
pos = (201,0);
ref = circumflexcomb.case;
},
{
pos = (262,142);
ref = hookabovecomb.case;
}
);
width = 735;
},
{
layerId = "8ED31224-68B7-412A-B4C3-E53F784CF4E5";
shapes = (
{
ref = A;
},
{
pos = (218,0);
ref = circumflexcomb.case;
},
{
pos = (268,137);
ref = hookabovecomb.case;
}
);
width = 735;
},
{
layerId = "79DB91E0-15EF-4446-816D-FE9384315D55";
shapes = (
{
ref = A;
},
{
pos = (258,0);
ref = circumflexcomb.case;
},
{
pos = (268,137);
ref = hookabovecomb.case;
}
);
width = 735;
}
);
unicode = 7848;
},
{
glyphname = Acircumflextilde;
kernLeft = A;
kernRight = A;
layers = (
{
layerId = UUID0;
shapes = (
{
ref = A;
},
{
pos = (177,0);
ref = circumflexcomb.case;
},
{
pos = (137,137);
ref = tildecomb.case;
}
);
width = 613;
},
{
layerId = "2C16E7AF-C861-4509-900A-75D3055B0FF7";
shapes = (
{
ref = A;
},
{
pos = (160,0);
ref = circumflexcomb.case;
},
{
pos = (122,142);
ref = tildecomb.case;
}
);
width = 613;
},
{
background = {
shapes = (
{
closed = 1;
nodes = (
(134,899,o),
(137,898,o),
(140,898,cs),
(146,898,o),
(150,902,o),
(156,912,cs),
(168,932,o),
(176,939,o),
(189,939,cs),
(220,939,o),
(266,899,o),
(307,899,cs),
(339,899,o),
(363,917,o),
(382,967,cs),
(384,973,o),
(385,977,o),
(385,981,cs),
(385,987,o),
(382,989,o),
(374,993,cs),
(368,996,ls),
(364,998,o),
(361,999,o),
(358,999,cs),
(352,999,o),
(346,995,o),
(340,984,cs),
(329,964,o),
(320,958,o),
(306,958,cs),
(274,958,o),
(229,998,o),
(190,998,cs),
(157,998,o),
(133,980,o),
(115,929,cs),
(113,924,o),
(112,920,o),
(112,916,cs),
(112,911,o),
(115,907,o),
(121,904,cs),
(130,900,ls)
);
},
{
closed = 1;
nodes = (
(181,753,ls),
(194,753,o),
(202,758,o),
(208,766,cs),
(245,824,l),
(284,766,ls),
(290,758,o),
(299,753,o),
(311,753,cs),
(330,753,ls),
(342,753,o),
(349,759,o),
(349,767,cs),
(349,771,o),
(347,777,o),
(342,785,cs),
(296,851,ls),
(286,865,o),
(273,873,o),
(254,873,cs),
(238,873,ls),
(219,873,o),
(207,865,o),
(196,851,cs),
(150,785,ls),
(146,777,o),
(143,771,o),
(143,767,cs),
(143,758,o),
(150,753,o),
(162,753,cs)
);
}
);
};
layerId = "76F17502-367F-435E-B23E-ED9D928E777B";
shapes = (
{
ref = A;
},
{
pos = (138,0);
ref = circumflexcomb.case;
},
{
pos = (86,137);
ref = tildecomb.case;
}
);
width = 490;
},
{
background = {
shapes = (
{
closed = 1;
nodes = (
(140,889,o),
(144,888,o),
(148,888,cs),
(159,888,o),
(165,894,o),
(173,905,cs),
(183,920,o),
(191,921,o),
(196,921,cs),
(221,920,o),
(272,892,o),
(302,892,cs),
(342,892,o),
(372,925,o),
(384,962,cs),
(385,966,o),
(387,970,o),
(387,977,cs),
(387,988,o),
(381,998,o),
(366,1003,cs),
(357,1006,ls),
(353,1007,o),
(349,1008,o),
(344,1008,cs),
(333,1008,o),
(326,1001,o),
(319,991,cs),
(309,976,o),
(302,975,o),
(296,975,cs),
(271,976,o),
(222,1004,o),
(191,1004,cs),
(150,1004,o),
(121,973,o),
(109,935,cs),
(106,928,o),
(105,923,o),
(105,919,cs),
(105,910,o),
(110,898,o),
(126,893,cs),
(136,890,ls)
);
},
{
closed = 1;
nodes = (
(175,749,ls),
(203,749,o),
(211,754,o),
(224,768,cs),
(246,807,l),
(267,767,ls),
(278,754,o),
(287,749,o),
(316,749,cs),
(344,749,ls),
(357,749,o),
(364,753,o),
(364,759,cs),
(364,762,o),
(360,773,o),
(355,780,cs),
(304,854,ls),
(293,869,o),
(279,873,o),
(247,873,cs),
(245,873,ls),
(213,873,o),
(198,869,o),
(187,854,cs),
(136,780,ls),
(132,773,o),
(127,762,o),
(127,759,cs),
(127,751,o),
(133,749,o),
(148,749,cs)
);
}
);
};
layerId = "6662946B-F990-402F-A6FD-22D24AB84B33";
shapes = (
{
ref = A;
},
{
pos = (111,0);
ref = circumflexcomb.case;
},
{
pos = (70,142);
ref = tildecomb.case;
}
);
width = 490;
},
{
background = {
shapes = (
{
closed = 1;
nodes = (
(134,899,o),
(137,898,o),
(140,898,cs),
(146,898,o),
(150,902,o),
(156,912,cs),
(168,932,o),
(176,939,o),
(189,939,cs),
(220,939,o),
(266,899,o),
(307,899,cs),
(339,899,o),
(363,917,o),
(382,967,cs),
(384,973,o),
(385,977,o),
(385,981,cs),
(385,987,o),
(382,989,o),
(374,993,cs),
(368,996,ls),
(364,998,o),
(361,999,o),
(358,999,cs),
(352,999,o),
(346,995,o),
(340,984,cs),
(329,964,o),
(320,958,o),
(306,958,cs),
(274,958,o),
(229,998,o),
(190,998,cs),
(157,998,o),
(133,980,o),
(115,929,cs),
(113,924,o),
(112,920,o),
(112,916,cs),
(112,911,o),
(115,907,o),
(121,904,cs),
(130,900,ls)
);
},
{
closed = 1;
nodes = (
(181,753,ls),
(194,753,o),
(202,758,o),
(208,766,cs),
(245,824,l),
(284,766,ls),
(290,758,o),
(299,753,o),
(311,753,cs),
(330,753,ls),
(342,753,o),
(349,759,o),
(349,767,cs),
(349,771,o),
(347,777,o),
(342,785,cs),
(296,851,ls),
(286,865,o),
(273,873,o),
(254,873,cs),
(238,873,ls),
(219,873,o),
(207,865,o),
(196,851,cs),
(150,785,ls),
(146,777,o),
(143,771,o),
(143,767,cs),
(143,758,o),
(150,753,o),
(162,753,cs)
);
}
);
};
layerId = "534F5340-05B5-45BC-BA3B-B28DD92592EB";
shapes = (
{
ref = A;
},
{
pos = (151,0);
ref = circumflexcomb.case;
},
{
pos = (113,137);
ref = tildecomb.case;
}
);
width = 490;
},
{
layerId = "84AA6C20-0662-4373-B7CF-A8F69217EDA9";
shapes = (
{
ref = A;
},
{
pos = (208,0);
ref = circumflexcomb.case;
},
{
pos = (165,137);
ref = tildecomb.case;
}
);
width = 613;
},
{
background = {
shapes = (
{
closed = 1;
nodes = (
(140,889,o),
(144,888,o),
(148,888,cs),
(159,888,o),
(165,894,o),
(173,905,cs),
(183,920,o),
(191,921,o),
(196,921,cs),
(221,920,o),
(272,892,o),
(302,892,cs),
(342,892,o),
(372,925,o),
(384,962,cs),
(385,966,o),
(387,970,o),
(387,977,cs),
(387,988,o),
(381,998,o),
(366,1003,cs),
(357,1006,ls),
(353,1007,o),
(349,1008,o),
(344,1008,cs),
(333,1008,o),
(326,1001,o),
(319,991,cs),
(309,976,o),
(302,975,o),
(296,975,cs),
(271,976,o),
(222,1004,o),
(191,1004,cs),
(150,1004,o),
(121,973,o),
(109,935,cs),
(106,928,o),
(105,923,o),
(105,919,cs),
(105,910,o),
(110,898,o),
(126,893,cs),
(136,890,ls)
);
},
{
closed = 1;
nodes = (
(175,749,ls),
(203,749,o),
(211,754,o),
(224,768,cs),
(246,807,l),
(267,767,ls),
(278,754,o),
(287,749,o),
(316,749,cs),
(344,749,ls),
(357,749,o),
(364,753,o),
(364,759,cs),
(364,762,o),
(360,773,o),
(355,780,cs),
(304,854,ls),
(293,869,o),
(279,873,o),
(247,873,cs),
(245,873,ls),
(213,873,o),
(198,869,o),
(187,854,cs),
(136,780,ls),
(132,773,o),
(127,762,o),
(127,759,cs),
(127,751,o),
(133,749,o),
(148,749,cs)
);
}
);
};
layerId = "A5A92505-053D-4D0C-ACDC-6F8463E28DE4";
shapes = (
{
ref = A;
},
{
pos = (111,0);
ref = circumflexcomb.case;
},
{
pos = (60,142);
ref = tildecomb.case;
}
);
width = 490;
},
{
layerId = "ACEF5F79-87A6-4D8B-B169-2BFCF1568BF8";
shapes = (
{
ref = A;
},
{
pos = (159,0);
ref = circumflexcomb.case;
},
{
pos = (112,142);
ref = tildecomb.case;
}
);
width = 613;
},
{
layerId = "2EA36C28-4342-4323-91EA-7DB25AD3237F";
shapes = (
{
ref = A;
},
{
pos = (200,0);
ref = circumflexcomb.case;
},
{
pos = (163,142);
ref = tildecomb.case;
}
);
width = 735;
},
{
layerId = "D9F64F14-09E8-47AC-ADF7-F859BCC4D5F5";
shapes = (
{
ref = A;
},
{
pos = (201,0);
ref = circumflexcomb.case;
},
{
pos = (173,142);
ref = tildecomb.case;
}
);
width = 735;
},
{
layerId = "8ED31224-68B7-412A-B4C3-E53F784CF4E5";
shapes = (
{
ref = A;
},
{
pos = (218,0);
ref = circumflexcomb.case;
},
{
pos = (188,137);
ref = tildecomb.case;
}
);
width = 735;
},
{
layerId = "79DB91E0-15EF-4446-816D-FE9384315D55";
shapes = (
{
ref = A;
},
{
pos = (258,0);
ref = circumflexcomb.case;
},
{
pos = (215,137);
ref = tildecomb.case;
}
);
width = 735;
}
);
unicode = 7850;
},
{
glyphname = Aringacute;
kernLeft = A;
kernRight = A;
layers = (
{
layerId = UUID0;
shapes = (
{
ref = A;
},
{
pos = (218,0);
ref = ringcomb.case;
},
{
pos = (221,177);
ref = acutecomb.case;
}
);
width = 613;
},
{
layerId = "2C16E7AF-C861-4509-900A-75D3055B0FF7";
shapes = (
{
ref = A;
},
{
pos = (199,0);
ref = ringcomb.case;
},
{
pos = (215,192);
ref = acutecomb.case;
}
);
width = 613;
},
{
background = {
shapes = (
{
closed = 1;
nodes = (
(66,-2,ls),
(84,-2,o),
(99,2,o),
(102,14,cs),
(144,178,l),
(359,178,l),
(402,14,ls),
(405,2,o),
(419,-2,o),
(438,-2,cs),
(455,-2,ls),
(480,-2,o),
(492,5,o),
(492,15,cs),
(492,19,o),
(491,23,o),
(489,28,cs),
(308,683,ls),
(302,705,o),
(294,672,o),
(268,672,cs),
(236,672,ls),
(213,672,o),
(201,700,o),
(196,683,cs),
(15,28,ls),
(14,23,o),
(13,19,o),
(13,15,cs),
(13,5,o),
(24,-2,o),
(50,-2,cs)
);
},
{
closed = 1;
nodes = (
(238,528,ls),
(243,547,o),
(246,570,o),
(250,589,c),
(255,589,l),
(258,570,o),
(261,547,o),
(266,528,cs),
(337,254,l),
(167,254,l)
);
}
);
};
layerId = "76F17502-367F-435E-B23E-ED9D928E777B";
shapes = (
{
ref = A;
},
{
pos = (161,0);
ref = ringcomb.case;
},
{
pos = (190,177);
ref = acutecomb.case;
}
);
width = 490;
},
{
background = {
shapes = (
{
closed = 1;
nodes = (
(268,872,o),
(280,879,o),
(288,887,cs),
(349,961,o),
(362,977,o),
(362,987,cs),
(362,1006,o),
(348,1011,o),
(322,1011,cs),
(287,1011,o),
(258,1005,o),
(247,984,cs),
(222,917,o),
(212,896,o),
(212,887,cs),
(212,876,o),
(217,872,o),
(233,872,cs)
);
}
);
};
layerId = "6662946B-F990-402F-A6FD-22D24AB84B33";
shapes = (
{
ref = A;
},
{
pos = (139,0);
ref = ringcomb.case;
},
{
pos = (173,192);
ref = acutecomb.case;
}
);
width = 490;
},
{
background = {
shapes = (
{
closed = 1;
nodes = (
(267,871,o),
(277,877,o),
(286,889,cs),
(346,977,o),
(354,985,o),
(354,995,cs),
(354,1005,o),
(345,1008,o),
(323,1008,cs),
(299,1008,o),
(278,1001,o),
(269,982,cs),
(235,909,o),
(227,890,o),
(227,881,cs),
(227,874,o),
(234,871,o),
(250,871,cs)
);
}
);
};
layerId = "534F5340-05B5-45BC-BA3B-B28DD92592EB";
shapes = (
{
ref = A;
},
{
pos = (161,0);
ref = ringcomb.case;
},
{
pos = (208,177);
ref = acutecomb.case;
}
);
width = 490;
},
{
layerId = "84AA6C20-0662-4373-B7CF-A8F69217EDA9";
shapes = (
{
ref = A;
},
{
pos = (221,0);
ref = ringcomb.case;
},
{
pos = (248,177);
ref = acutecomb.case;
}
);
width = 613;
},
{
background = {
shapes = (
{
closed = 1;
nodes = (
(268,872,o),
(280,879,o),
(288,887,cs),
(349,961,o),
(362,977,o),
(362,987,cs),
(362,1006,o),
(348,1011,o),
(322,1011,cs),
(287,1011,o),
(258,1005,o),
(247,984,cs),
(222,917,o),
(212,896,o),
(212,887,cs),
(212,876,o),
(217,872,o),
(233,872,cs)
);
}
);
};
layerId = "A5A92505-053D-4D0C-ACDC-6F8463E28DE4";
shapes = (
{
ref = A;
},
{
pos = (141,0);
ref = ringcomb.case;
},
{
pos = (156,192);
ref = acutecomb.case;
}
);
width = 490;
},
{
layerId = "ACEF5F79-87A6-4D8B-B169-2BFCF1568BF8";
shapes = (
{
ref = A;
},
{
pos = (199,0);
ref = ringcomb.case;
},
{
pos = (213,192);
ref = acutecomb.case;
}
);
width = 613;
},
{
layerId = "2EA36C28-4342-4323-91EA-7DB25AD3237F";
shapes = (
{
ref = A;
},
{
pos = (255,0);
ref = ringcomb.case;
},
{
pos = (261,192);
ref = acutecomb.case;
}
);
width = 735;
},
{
layerId = "D9F64F14-09E8-47AC-ADF7-F859BCC4D5F5";
shapes = (
{
ref = A;
},
{
pos = (254,0);
ref = ringcomb.case;
},
{
pos = (276,192);
ref = acutecomb.case;
}
);
width = 735;
},
{
layerId = "8ED31224-68B7-412A-B4C3-E53F784CF4E5";
shapes = (
{
ref = A;
},
{
pos = (273,0);
ref = ringcomb.case;
},
{
pos = (282,177);
ref = acutecomb.case;
}
);
width = 735;
},
{
layerId = "79DB91E0-15EF-4446-816D-FE9384315D55";
shapes = (
{
ref = A;
},
{
pos = (279,0);
ref = ringcomb.case;
},
{
pos = (297,177);
ref = acutecomb.case;
}
);
width = 735;
}
);
unicode = 506;
userData = {
RMXScaler = {
source = Aringacute;
};
};
},
{
glyphname = AE;
kernLeft = AE;
kernRight = E;
layers = (
{
anchors = (
{
name = bottom;
pos = (463,0);
},
{
name = top;
pos = (463,700);
}
);
background = {
shapes = (
{
closed = 1;
nodes = (
(58,-2,ls),
(77,-2,o),
(93,3,o),
(98,14,cs),
(178,178,l),
(473,178,l),
(505,29,ls),
(509,9,o),
(520,0,o),
(541,0,cs),
(828,0,ls),
(842,0,o),
(848,9,o),
(848,30,cs),
(848,46,ls),
(848,67,o),
(842,76,o),
(828,76,cs),
(584,76,l),
(531,320,l),
(797,320,ls),
(811,320,o),
(817,329,o),
(817,350,cs),
(817,366,ls),
(817,387,o),
(811,396,o),
(797,396,cs),
(515,396,l),
(465,624,l),
(827,624,ls),
(841,624,o),
(847,633,o),
(847,654,cs),
(847,670,ls),
(847,691,o),
(841,700,o),
(827,700,cs),
(382,700,ls),
(361,700,o),
(348,692,o),
(339,673,cs),
(18,31,ls),
(15,25,o),
(14,19,o),
(14,15,cs),
(14,4,o),
(23,-2,o),
(53,-2,cs)
);
},
{
closed = 1;
nodes = (
(365,552,l),
(386,610,l),
(388,610,l),
(392,552,l),
(456,253,l),
(217,253,l)
);
}
);
};
layerId = UUID0;
shapes = (
{
closed = 1;
nodes = (
(60,-2,ls),
(80,-2,o),
(94,2,o),
(100,14,cs),
(382,608,l),
(386,608,l),
(466,30,ls),
(469,9,o),
(475,0,o),
(497,0,cs),
(796,0,ls),
(810,0,o),
(816,9,o),
(816,30,cs),
(816,46,ls),
(816,67,o),
(810,76,o),
(796,76,cs),
(550,76,l),
(516,320,l),
(765,320,ls),
(779,320,o),
(785,329,o),
(785,350,cs),
(785,366,ls),
(785,387,o),
(779,396,o),
(765,396,cs),
(506,396,l),
(474,624,l),
(795,624,ls),
(809,624,o),
(815,633,o),
(815,654,cs),
(815,670,ls),
(815,691,o),
(809,700,o),
(795,700,cs),
(366,700,ls),
(343,700,o),
(331,694,o),
(326,684,cs),
(15,29,ls),
(12,23,o),
(11,19,o),
(11,15,cs),
(11,4,o),
(25,-2,o),
(55,-2,cs)
);
},
{
closed = 1;
nodes = (
(484,180,l),
(484,254,l),
(151,254,l),
(151,180,l)
);
}
);
width = 865;
},
{
anchors = (
{
name = bottom;
pos = (463,0);
},
{
name = top;
pos = (463,700);
}
);
background = {
shapes = (
{
closed = 1;
nodes = (
(99,-2,ls),
(123,-2,o),
(138,5,o),
(145,19,cs),
(205,141,l),
(448,141,l),
(469,30,ls),
(473,9,o),
(482,0,o),
(504,0,cs),
(835,0,ls),
(856,0,o),
(865,15,o),
(865,50,cs),
(865,81,ls),
(865,116,o),
(856,131,o),
(835,131,cs),
(602,131,l),
(571,293,l),
(807,293,ls),
(828,293,o),
(837,308,o),
(837,343,cs),
(837,374,ls),
(837,409,o),
(828,424,o),
(807,424,cs),
(545,424,l),
(517,569,l),
(834,569,ls),
(855,569,o),
(864,584,o),
(864,619,cs),
(864,650,ls),
(864,685,o),
(855,700,o),
(834,700,cs),
(370,700,ls),
(349,700,o),
(336,692,o),
(326,673,cs),
(5,38,ls),
(2,32,o),
(1,25,o),
(1,20,cs),
(1,6,o),
(20,-2,o),
(62,-2,cs)
);
},
{
closed = 1;
nodes = (
(359,455,l),
(387,537,l),
(391,537,l),
(391,454,l),
(424,273,l),
(270,273,l)
);
}
);
};
layerId = "2C16E7AF-C861-4509-900A-75D3055B0FF7";
shapes = (
{
closed = 1;
nodes = (
(101,-2,ls),
(125,-2,o),
(140,4,o),
(147,19,cs),
(367,513,l),
(371,513,l),
(434,40,ls),
(438,12,o),
(445,0,o),
(471,0,cs),
(779,0,ls),
(800,0,o),
(809,15,o),
(809,50,cs),
(809,81,ls),
(809,116,o),
(800,131,o),
(779,131,cs),
(578,131,l),
(556,293,l),
(752,293,ls),
(772,293,o),
(781,308,o),
(781,343,cs),
(781,374,ls),
(781,409,o),
(772,424,o),
(752,424,cs),
(539,424,l),
(520,569,l),
(778,569,ls),
(799,569,o),
(808,584,o),
(808,619,cs),
(808,650,ls),
(808,685,o),
(799,700,o),
(778,700,cs),
(350,700,ls),
(317,700,o),
(299,693,o),
(293,679,cs),
(4,38,ls),
(1,31,o),
(-1,25,o),
(-1,20,cs),
(-1,6,o),
(19,-2,o),
(61,-2,cs)
);
},
{
closed = 1;
nodes = (
(498,147,l),
(498,268,l),
(156,268,l),
(156,147,l)
);
}
);
width = 865;
},
{
anchors = (
{
name = bottom;
pos = (365,0);
},
{
name = top;
pos = (365,700);
}
);
layerId = "76F17502-367F-435E-B23E-ED9D928E777B";
shapes = (
{
closed = 1;
nodes = (
(57,-2,ls),
(75,-2,o),
(88,2,o),
(93,14,cs),
(312,587,l),
(316,587,l),
(386,30,ls),
(389,9,o),
(395,0,o),
(417,0,cs),
(660,0,ls),
(674,0,o),
(680,9,o),
(680,30,cs),
(680,46,ls),
(680,67,o),
(674,76,o),
(660,76,cs),
(471,76,l),
(440,320,l),
(637,320,ls),
(651,320,o),
(657,329,o),
(657,350,cs),
(657,366,ls),
(657,387,o),
(651,396,o),
(637,396,cs),
(431,396,l),
(402,624,l),
(660,624,ls),
(674,624,o),
(680,633,o),
(680,654,cs),
(680,670,ls),
(680,691,o),
(674,700,o),
(660,700,cs),
(301,700,ls),
(278,700,o),
(266,694,o),
(261,681,cs),
(6,28,ls),
(4,23,o),
(3,19,o),
(3,15,cs),
(3,5,o),
(15,-2,o),
(41,-2,cs)
);
},
{
closed = 1;
nodes = (
(397,180,l),
(397,254,l),
(103,254,l),
(103,180,l)
);
}
);
width = 690;
},
{
anchors = (
{
name = bottom;
pos = (345,0);
},
{
name = top;
pos = (345,700);
}
);
layerId = "6662946B-F990-402F-A6FD-22D24AB84B33";
shapes = (
{
closed = 1;
nodes = (
(93,-2,ls),
(120,-2,o),
(140,3,o),
(146,24,cs),
(295,549,l),
(300,549,l),
(354,40,ls),
(357,12,o),
(365,0,o),
(391,0,cs),
(645,0,ls),
(666,0,o),
(675,15,o),
(675,50,cs),
(675,81,ls),
(675,116,o),
(666,131,o),
(645,131,cs),
(500,131,l),
(483,293,l),
(626,293,ls),
(646,293,o),
(655,308,o),
(655,343,cs),
(655,374,ls),
(655,409,o),
(646,424,o),
(626,424,cs),
(469,424,l),
(454,569,l),
(645,569,ls),
(666,569,o),
(675,584,o),
(675,619,cs),
(675,650,ls),
(675,685,o),
(666,700,o),
(645,700,cs),
(262,700,ls),
(227,700,o),
(208,691,o),
(199,662,cs),
(0,48,ls),
(-6,31,o),
(-6,27,o),
(-6,22,cs),
(-6,8,o),
(8,-2,o),
(39,-2,cs)
);
},
{
closed = 1;
nodes = (
(413,141,l),
(413,263,l),
(121,263,l),
(121,141,l)
);
}
);
width = 690;
},
{
anchors = (
{
name = bottom;
pos = (365,0);
},
{
name = top;
pos = (365,700);
}
);
layerId = "534F5340-05B5-45BC-BA3B-B28DD92592EB";
shapes = (
{
closed = 1;
nodes = (
(36,-2,ls),
(46,-2,o),
(51,2,o),
(54,10,cs),
(325,667,l),
(329,667,l),
(412,14,ls),
(413,4,o),
(417,0,o),
(428,0,cs),
(629,0,ls),
(637,0,o),
(641,4,o),
(641,14,cs),
(641,22,ls),
(641,32,o),
(637,36,o),
(629,36,cs),
(450,36,l),
(410,340,l),
(604,340,ls),
(612,340,o),
(616,344,o),
(616,354,cs),
(616,362,ls),
(616,372,o),
(612,376,o),
(604,376,cs),
(406,376,l),
(369,664,l),
(627,664,ls),
(635,664,o),
(639,668,o),
(639,678,cs),
(639,686,ls),
(639,696,o),
(635,700,o),
(627,700,cs),
(321,700,ls),
(304,700,o),
(296,694,o),
(291,681,cs),
(17,21,ls),
(14,14,o),
(13,10,o),
(13,8,cs),
(13,1,o),
(18,-2,o),
(28,-2,cs)
);
},
{
closed = 1;
nodes = (
(403,200,l),
(403,233,l),
(118,233,l),
(118,200,l)
);
}
);
width = 690;
},
{
anchors = (
{
name = bottom;
pos = (463,0);
},
{
name = top;
pos = (463,700);
}
);
background = {
shapes = (
{
closed = 1;
nodes = (
(505,702,l),
(300,702,ls),
(284,702,o),
(275,697,o),
(271,686,cs),
(11,17,ls),
(10,14,o),
(9,11,o),
(9,8,cs),
(9,2,o),
(13,-2,o),
(23,-2,cs),
(28,-2,ls),
(42,-2,o),
(47,-1,o),
(51,10,cs),
(261,552,ls),
(278,595,o),
(291,631,o),
(306,669,c),
(308,669,l),
(505,669,l)
);
},
{
closed = 1;
nodes = (
(505,200,l),
(505,233,l),
(106,233,l),
(106,200,l)
);
}
);
};
layerId = "84AA6C20-0662-4373-B7CF-A8F69217EDA9";
shapes = (
{
closed = 1;
nodes = (
(28,-2,ls),
(42,-2,o),
(45,-1,o),
(51,10,cs),
(395,667,l),
(399,667,l),
(491,14,ls),
(492,4,o),
(496,0,o),
(507,0,cs),
(805,0,ls),
(813,0,o),
(817,4,o),
(817,14,cs),
(817,22,ls),
(817,32,o),
(813,36,o),
(805,36,cs),
(528,36,l),
(485,340,l),
(775,340,ls),
(783,340,o),
(787,344,o),
(787,354,cs),
(787,362,ls),
(787,372,o),
(783,376,o),
(775,376,cs),
(480,376,l),
(440,664,l),
(805,664,ls),
(813,664,o),
(817,668,o),
(817,678,cs),
(817,686,ls),
(817,696,o),
(813,700,o),
(805,700,cs),
(390,700,ls),
(374,700,o),
(367,695,o),
(361,684,cs),
(11,17,ls),
(9,13,o),
(8,11,o),
(8,8,cs),
(8,2,o),
(13,-2,o),
(23,-2,cs)
);
},
{
closed = 1;
nodes = (
(491,200,l),
(491,233,l),
(136,233,l),
(136,200,l)
);
}
);
width = 865;
},
{
anchors = (
{
name = bottom;
pos = (345,0);
},
{
name = top;
pos = (345,700);
}
);
layerId = "A5A92505-053D-4D0C-ACDC-6F8463E28DE4";
shapes = (
{
closed = 1;
nodes = (
(106,-2,ls),
(138,-2,o),
(167,3,o),
(174,34,cs),
(288,549,l),
(292,549,l),
(339,40,ls),
(342,12,o),
(356,0,o),
(396,0,cs),
(636,0,ls),
(664,0,o),
(676,18,o),
(676,60,cs),
(676,111,ls),
(676,153,o),
(664,171,o),
(636,171,cs),
(507,171,l),
(498,273,l),
(616,273,ls),
(644,273,o),
(656,291,o),
(656,333,cs),
(656,384,ls),
(656,426,o),
(644,444,o),
(616,444,cs),
(482,444,l),
(474,529,l),
(636,529,ls),
(664,529,o),
(676,547,o),
(676,589,cs),
(676,640,ls),
(676,682,o),
(664,700,o),
(636,700,cs),
(268,700,ls),
(191,700,o),
(163,688,o),
(151,642,cs),
(-6,58,ls),
(-9,47,o),
(-11,37,o),
(-11,30,cs),
(-11,6,o),
(13,-2,o),
(53,-2,cs)
);
},
{
closed = 1;
nodes = (
(418,121,l),
(418,272,l),
(121,272,l),
(121,121,l)
);
}
);
width = 690;
},
{
anchors = (
{
name = bottom;
pos = (433,0);
},
{
name = top;
pos = (433,700);
}
);
layerId = "ACEF5F79-87A6-4D8B-B169-2BFCF1568BF8";
shapes = (
{
closed = 1;
nodes = (
(111,-2,ls),
(155,-2,o),
(169,4,o),
(181,37,cs),
(360,513,l),
(364,513,l),
(419,40,ls),
(422,12,o),
(436,0,o),
(476,0,cs),
(800,0,ls),
(828,0,o),
(840,18,o),
(840,60,cs),
(840,111,ls),
(840,153,o),
(828,171,o),
(800,171,cs),
(590,171,l),
(578,273,l),
(772,273,ls),
(800,273,o),
(812,291,o),
(812,333,cs),
(812,384,ls),
(812,426,o),
(800,444,o),
(772,444,cs),
(558,444,l),
(548,529,l),
(799,529,ls),
(827,529,o),
(839,547,o),
(839,589,cs),
(839,640,ls),
(839,682,o),
(827,700,o),
(799,700,cs),
(322,700,ls),
(279,700,o),
(263,693,o),
(246,652,cs),
(1,74,ls),
(-7,56,o),
(-13,41,o),
(-13,28,cs),
(-13,9,o),
(2,-2,o),
(46,-2,cs)
);
},
{
closed = 1;
nodes = (
(487,121,l),
(487,273,l),
(145,273,l),
(145,121,l)
);
}
);
width = 865;
},
{
anchors = (
{
name = bottom;
pos = (520,0);
},
{
name = top;
pos = (520,700);
}
);
layerId = "2EA36C28-4342-4323-91EA-7DB25AD3237F";
shapes = (
{
closed = 1;
nodes = (
(136,-2,ls),
(180,-2,o),
(192,6,o),
(206,37,cs),
(435,533,l),
(439,533,l),
(510,40,ls),
(514,12,o),
(527,0,o),
(567,0,cs),
(932,0,ls),
(960,0,o),
(972,18,o),
(972,60,cs),
(972,111,ls),
(972,153,o),
(960,171,o),
(932,171,cs),
(684,171,l),
(669,273,l),
(904,273,ls),
(932,273,o),
(944,291,o),
(944,333,cs),
(944,384,ls),
(944,426,o),
(932,444,o),
(904,444,cs),
(645,444,l),
(632,529,l),
(931,529,ls),
(959,529,o),
(971,547,o),
(971,589,cs),
(971,640,ls),
(971,682,o),
(959,700,o),
(931,700,cs),
(391,700,ls),
(332,700,o),
(319,690,o),
(300,652,cs),
(11,74,ls),
(2,56,o),
(-4,42,o),
(-4,29,cs),
(-4,10,o),
(12,-2,o),
(56,-2,cs)
);
},
{
closed = 1;
nodes = (
(577,121,l),
(577,273,l),
(165,273,l),
(165,121,l)
);
}
);
width = 1020;
},
{
anchors = (
{
name = bottom;
pos = (530,0);
},
{
name = top;
pos = (530,700);
}
);
layerId = "D9F64F14-09E8-47AC-ADF7-F859BCC4D5F5";
shapes = (
{
closed = 1;
nodes = (
(122,-2,ls),
(146,-2,o),
(159,4,o),
(169,24,cs),
(443,563,l),
(447,563,l),
(525,40,ls),
(529,12,o),
(536,0,o),
(562,0,cs),
(944,0,ls),
(965,0,o),
(974,15,o),
(974,50,cs),
(974,81,ls),
(974,116,o),
(965,131,o),
(944,131,cs),
(668,131,l),
(644,293,l),
(917,293,ls),
(937,293,o),
(946,308,o),
(946,343,cs),
(946,374,ls),
(946,409,o),
(937,424,o),
(917,424,cs),
(624,424,l),
(603,569,l),
(943,569,ls),
(964,569,o),
(973,584,o),
(973,619,cs),
(973,650,ls),
(973,685,o),
(964,700,o),
(943,700,cs),
(416,700,ls),
(375,700,o),
(354,694,o),
(339,665,cs),
(20,46,ls),
(12,31,o),
(9,25,o),
(9,20,cs),
(9,6,o),
(20,-2,o),
(72,-2,cs)
);
},
{
closed = 1;
nodes = (
(579,147,l),
(579,268,l),
(167,268,l),
(167,147,l)
);
}
);
width = 1020;
},
{
anchors = (
{
name = bottom;
pos = (540,0);
},
{
name = top;
pos = (540,700);
}
);
layerId = "8ED31224-68B7-412A-B4C3-E53F784CF4E5";
shapes = (
{
closed = 1;
nodes = (
(73,-2,ls),
(93,-2,o),
(105,0,o),
(114,17,cs),
(460,638,l),
(464,638,l),
(557,30,ls),
(560,9,o),
(566,0,o),
(588,0,cs),
(946,0,ls),
(960,0,o),
(966,9,o),
(966,30,cs),
(966,46,ls),
(966,67,o),
(960,76,o),
(946,76,cs),
(641,76,l),
(604,320,l),
(915,320,ls),
(929,320,o),
(935,329,o),
(935,350,cs),
(935,366,ls),
(935,387,o),
(929,396,o),
(915,396,cs),
(592,396,l),
(557,624,l),
(945,624,ls),
(959,624,o),
(965,633,o),
(965,654,cs),
(965,670,ls),
(965,691,o),
(959,700,o),
(945,700,cs),
(444,700,ls),
(416,700,o),
(402,694,o),
(394,679,cs),
(26,29,ls),
(23,23,o),
(21,19,o),
(21,15,cs),
(21,4,o),
(36,-2,o),
(66,-2,cs)
);
},
{
closed = 1;
nodes = (
(575,180,l),
(575,254,l),
(176,254,l),
(176,180,l)
);
}
);
width = 1020;
},
{
anchors = (
{
name = bottom;
pos = (550,0);
},
{
name = top;
pos = (550,700);
}
);
layerId = "79DB91E0-15EF-4446-816D-FE9384315D55";
shapes = (
{
closed = 1;
nodes = (
(39,-2,ls),
(53,-2,o),
(55,-1,o),
(62,10,cs),
(471,668,l),
(475,668,l),
(582,14,ls),
(584,4,o),
(587,0,o),
(598,0,cs),
(968,0,ls),
(976,0,o),
(980,4,o),
(980,14,cs),
(980,22,ls),
(980,32,o),
(976,36,o),
(968,36,cs),
(619,36,l),
(569,340,l),
(938,340,ls),
(946,340,o),
(950,344,o),
(950,354,cs),
(950,362,ls),
(950,372,o),
(946,376,o),
(938,376,cs),
(563,376,l),
(516,664,l),
(968,664,ls),
(976,664,o),
(980,668,o),
(980,678,cs),
(980,686,ls),
(980,696,o),
(976,700,o),
(968,700,cs),
(466,700,ls),
(449,700,o),
(442,694,o),
(436,684,cs),
(22,17,ls),
(20,14,o),
(18,10,o),
(18,7,cs),
(18,1,o),
(24,-2,o),
(34,-2,cs)
);
},
{
closed = 1;
nodes = (
(569,200,l),
(569,233,l),
(167,233,l),
(167,200,l)
);
}
);
width = 1020;
}
);
metricRight = E;
unicode = 198;
userData = {
RMXScaler = {
source = AE;
};
};
},
{
glyphname = B;
kernLeft = H;
kernRight = B;
layers = (
{
anchors = (
{
name = bottom;
pos = (297,0);
},
{
name = top;
pos = (297,700);
}
);
background = {
shapes = (
{
closed = 1;
nodes = (
(425,0,o),
(560,97,o),
(560,201,qs),
(560,241,o),
(532,297,o),
(490,335,o),
(448,358,o),
(420,367,o),
(420,367,q),
(420,371,l),
(449,379,o),
(499,426,o),
(530,490,o),
(530,523,qs),
(530,602,o),
(418,700,o),
(306,700,qs),
(127,700,ls),
(97,700,o),
(97,670,qs),
(97,30,ls),
(97,0,o),
(127,0,qs),
(299,0,ls)
);
},
{
closed = 1;
nodes = (
(314,322,ls),
(391,322,o),
(469,260,o),
(469,205,qs),
(469,146,o),
(398,76,o),
(331,76,qs),
(185,76,l),
(185,322,l)
);
},
{
closed = 1;
nodes = (
(297,624,ls),
(372,624,o),
(439,571,o),
(439,515,qs),
(439,466,o),
(362,398,o),
(301,398,qs),
(185,398,l),
(185,624,l)
);
}
);
};
layerId = UUID0;
shapes = (
{
closed = 1;
nodes = (
(299,0,ls),
(467,0,o),
(560,62,o),
(560,201,cs),
(560,283,o),
(507,345,o),
(420,365,c),
(420,369,l),
(478,385,o),
(530,455,o),
(530,523,cs),
(530,628,o),
(455,700,o),
(306,700,cs),
(128,700,ls),
(106,700,o),
(97,691,o),
(97,670,cs),
(97,30,ls),
(97,9,o),
(106,0,o),
(128,0,cs)
);
},
{
closed = 1;
nodes = (
(187,320,l),
(314,320,ls),
(417,320,o),
(469,275,o),
(469,200,cs),
(469,123,o),
(417,76,o),
(331,76,cs),
(187,76,l)
);
},
{
closed = 1;
nodes = (
(187,624,l),
(297,624,ls),
(397,624,o),
(439,589,o),
(439,515,cs),
(439,449,o),
(382,396,o),
(301,396,cs),
(187,396,l)
);
}
);
width = 593;
},
{
anchors = (
{
name = bottom;
pos = (304,0);
},
{
name = top;
pos = (304,700);
}
);
background = {
shapes = (
{
closed = 1;
nodes = (
(455,0,o),
(578,106,o),
(578,203,q),
(578,226,o),
(565,270,o),
(542,309,o),
(508,340,o),
(467,362,o),
(443,367,q),
(442,371,l),
(472,384,o),
(521,429,o),
(550,489,o),
(550,523,q),
(550,602,o),
(441,700,o),
(314,700,q),
(116,700,l),
(76,700,o),
(76,660,q),
(76,40,l),
(76,0,o),
(116,0,q),
(328,0,l)
);
},
{
closed = 1;
nodes = (
(312,290,l),
(364,290,o),
(420,251,o),
(420,212,q),
(420,173,o),
(372,131,o),
(328,131,q),
(230,131,l),
(230,290,l)
);
},
{
closed = 1;
nodes = (
(301,570,l),
(347,570,o),
(392,533,o),
(392,496,q),
(392,465,o),
(344,421,o),
(299,421,q),
(230,421,l),
(230,570,l)
);
}
);
};
layerId = "2C16E7AF-C861-4509-900A-75D3055B0FF7";
shapes = (
{
closed = 1;
nodes = (
(317,0,ls),
(486,0,o),
(567,74,o),
(567,203,cs),
(567,280,o),
(511,351,o),
(431,367,c),
(431,371,l),
(491,393,o),
(539,452,o),
(539,523,cs),
(539,628,o),
(472,700,o),
(303,700,cs),
(102,700,ls),
(76,700,o),
(65,688,o),
(65,660,cs),
(65,40,ls),
(65,12,o),
(76,0,o),
(102,0,cs)
);
},
{
closed = 1;
nodes = (
(220,290,l),
(306,290,ls),
(372,290,o),
(409,264,o),
(409,212,cs),
(409,160,o),
(377,131,o),
(322,131,cs),
(220,131,l)
);
},
{
closed = 1;
nodes = (
(220,569,l),
(295,569,ls),
(353,569,o),
(381,544,o),
(381,495,cs),
(381,453,o),
(350,420,o),
(293,420,cs),
(220,420,l)
);
}
);
width = 593;
},
{
anchors = (
{
name = bottom;
pos = (251,0);
},
{
name = top;
pos = (251,700);
}
);
guides = (
{
pos = (287,198);
},
{
pos = (276,510);
}
);
layerId = "76F17502-367F-435E-B23E-ED9D928E777B";
shapes = (
{
closed = 1;
nodes = (
(256,0,ls),
(394,0,o),
(464,67,o),
(464,198,cs),
(464,277,o),
(421,340,o),
(351,365,c),
(351,369,l),
(405,391,o),
(437,444,o),
(437,510,cs),
(437,636,o),
(373,700,o),
(245,700,cs),
(110,700,ls),
(90,700,o),
(82,691,o),
(82,670,cs),
(82,30,ls),
(82,9,o),
(91,0,o),
(113,0,cs)
);
},
{
closed = 1;
nodes = (
(172,320,l),
(245,320,ls),
(329,320,o),
(373,274,o),
(373,198,cs),
(373,117,o),
(334,76,o),
(256,76,cs),
(172,76,l)
);
},
{
closed = 1;
nodes = (
(172,624,l),
(245,624,ls),
(313,624,o),
(348,586,o),
(348,510,cs),
(348,439,o),
(309,396,o),
(245,396,cs),
(172,396,l)
);
}
);
width = 474;
},
{
anchors = (
{
name = bottom;
pos = (250,0);
},
{
name = top;
pos = (250,700);
}
);
background = {
shapes = (
{
closed = 1;
nodes = (
(381,0,ls),
(402,0,o),
(411,15,o),
(411,50,cs),
(411,81,ls),
(411,116,o),
(402,131,o),
(381,131,cs),
(205,131,l),
(205,293,l),
(362,293,ls),
(382,293,o),
(391,308,o),
(391,343,cs),
(391,374,ls),
(391,409,o),
(382,424,o),
(362,424,cs),
(205,424,l),
(205,569,l),
(381,569,ls),
(402,569,o),
(411,584,o),
(411,619,cs),
(411,650,ls),
(411,685,o),
(402,700,o),
(381,700,cs),
(87,700,ls),
(61,700,o),
(50,688,o),
(50,660,cs),
(50,40,ls),
(50,12,o),
(61,0,o),
(87,0,cs)
);
}
);
};
guides = (
{
pos = (268,497);
},
{
pos = (268,212);
}
);
layerId = "6662946B-F990-402F-A6FD-22D24AB84B33";
shapes = (
{
closed = 1;
nodes = (
(245,0,ls),
(397,0,o),
(474,66,o),
(474,195,cs),
(474,276,o),
(426,345,o),
(359,362,c),
(358,366,l),
(413,383,o),
(452,443,o),
(452,509,cs),
(452,621,o),
(391,700,o),
(245,700,cs),
(87,700,ls),
(61,700,o),
(50,688,o),
(50,660,cs),
(50,40,ls),
(50,12,o),
(61,0,o),
(87,0,cs)
);
},
{
closed = 1;
nodes = (
(200,297,l),
(245,297,ls),
(297,297,o),
(319,272,o),
(319,212,cs),
(319,155,o),
(297,131,o),
(245,131,cs),
(200,131,l)
);
},
{
closed = 1;
nodes = (
(200,569,l),
(245,569,ls),
(289,569,o),
(307,548,o),
(307,497,cs),
(307,443,o),
(289,420,o),
(245,420,cs),
(200,420,l)
);
}
);
width = 474;
},
{
anchors = (
{
name = bottom;
pos = (251,0);
},
{
name = top;
pos = (251,700);
}
);
background = {
shapes = (
{
closed = 1;
nodes = (
(365,0,ls),
(373,0,o),
(377,4,o),
(377,14,cs),
(377,22,ls),
(377,32,o),
(373,36,o),
(365,36,cs),
(148,36,l),
(148,340,l),
(340,340,ls),
(348,340,o),
(352,344,o),
(352,354,cs),
(352,362,ls),
(352,372,o),
(348,376,o),
(340,376,cs),
(148,376,l),
(148,664,l),
(363,664,ls),
(371,664,o),
(375,668,o),
(375,678,cs),
(375,686,ls),
(375,696,o),
(371,700,o),
(363,700,cs),
(124,700,ls),
(113,700,o),
(108,696,o),
(108,686,cs),
(108,14,ls),
(108,4,o),
(113,0,o),
(124,0,cs)
);
}
);
};
layerId = "534F5340-05B5-45BC-BA3B-B28DD92592EB";
shapes = (
{
closed = 1;
nodes = (
(252,0,ls),
(386,0,o),
(454,61,o),
(454,181,cs),
(454,272,o),
(415,332,o),
(339,359,c),
(339,364,l),
(399,385,o),
(430,439,o),
(430,523,cs),
(430,640,o),
(370,700,o),
(252,700,cs),
(124,700,ls),
(113,700,o),
(108,696,o),
(108,686,cs),
(108,14,ls),
(108,4,o),
(113,0,o),
(124,0,cs)
);
},
{
closed = 1;
nodes = (
(148,340,l),
(252,340,ls),
(358,340,o),
(412,286,o),
(412,181,cs),
(412,85,o),
(358,36,o),
(252,36,cs),
(148,36,l)
);
},
{
closed = 1;
nodes = (
(148,664,l),
(252,664,ls),
(343,664,o),
(389,616,o),
(389,523,cs),
(389,426,o),
(343,376,o),
(252,376,cs),
(148,376,l)
);
}
);
width = 474;
},
{
anchors = (
{
name = bottom;
pos = (297,0);
},
{
name = top;
pos = (297,700);
}
);
background = {
shapes = (
{
closed = 1;
nodes = (
(299,0,ls),
(467,0,o),
(560,62,o),
(560,201,cs),
(560,333,o),
(420,367,o),
(420,367,c),
(420,371,l),
(478,387,o),
(530,456,o),
(530,523,cs),
(530,628,o),
(455,700,o),
(306,700,cs),
(127,700,ls),
(106,700,o),
(97,691,o),
(97,670,cs),
(97,30,ls),
(97,9,o),
(106,0,o),
(127,0,cs)
);
},
{
closed = 1;
nodes = (
(185,322,l),
(314,322,ls),
(417,322,o),
(469,278,o),
(469,205,cs),
(469,126,o),
(420,76,o),
(331,76,cs),
(185,76,l)
);
},
{
closed = 1;
nodes = (
(185,624,l),
(297,624,ls),
(397,624,o),
(439,589,o),
(439,515,cs),
(439,450,o),
(382,398,o),
(301,398,cs),
(185,398,l)
);
}
);
};
layerId = "84AA6C20-0662-4373-B7CF-A8F69217EDA9";
shapes = (
{
closed = 1;
nodes = (
(316,0,ls),
(476,0,o),
(558,61,o),
(558,181,cs),
(558,277,o),
(512,337,o),
(421,357,c),
(421,362,l),
(496,383,o),
(534,438,o),
(534,523,cs),
(534,640,o),
(461,700,o),
(316,700,cs),
(138,700,ls),
(127,700,o),
(122,696,o),
(122,686,cs),
(122,14,ls),
(122,4,o),
(127,0,o),
(138,0,cs)
);
},
{
closed = 1;
nodes = (
(162,340,l),
(326,340,ls),
(449,340,o),
(516,286,o),
(516,181,cs),
(516,85,o),
(449,36,o),
(316,36,cs),
(162,36,l)
);
},
{
closed = 1;
nodes = (
(162,664,l),
(316,664,ls),
(433,664,o),
(492,616,o),
(492,523,cs),
(492,426,o),
(433,376,o),
(326,376,cs),
(162,376,l)
);
}
);
width = 593;
},
{
anchors = (
{
name = bottom;
pos = (230,0);
},
{
name = top;
pos = (230,700);
}
);
background = {
shapes = (
{
closed = 1;
nodes = (
(372,0,ls),
(400,0,o),
(412,18,o),
(412,60,cs),
(412,111,ls),
(412,153,o),
(400,171,o),
(372,171,cs),
(225,171,l),
(225,273,l),
(352,273,ls),
(380,273,o),
(392,291,o),
(392,333,cs),
(392,384,ls),
(392,426,o),
(380,444,o),
(352,444,cs),
(225,444,l),
(225,529,l),
(372,529,ls),
(400,529,o),
(412,547,o),
(412,589,cs),
(412,640,ls),
(412,682,o),
(400,700,o),
(372,700,cs),
(87,700,ls),
(47,700,o),
(30,688,o),
(30,660,cs),
(30,40,ls),
(30,12,o),
(47,0,o),
(87,0,cs)
);
}
);
};
layerId = "A5A92505-053D-4D0C-ACDC-6F8463E28DE4";
shapes = (
{
closed = 1;
nodes = (
(251,0,ls),
(406,0,o),
(479,84,o),
(479,197,cs),
(479,283,o),
(441,342,o),
(378,362,c),
(377,366,l),
(427,392,o),
(462,436,o),
(462,506,cs),
(462,630,o),
(396,700,o),
(251,700,cs),
(92,700,ls),
(52,700,o),
(35,688,o),
(35,660,cs),
(35,40,ls),
(35,12,o),
(52,0,o),
(92,0,cs)
);
},
{
closed = 1;
nodes = (
(204,288,l),
(251,288,ls),
(287,288,o),
(303,270,o),
(303,227,cs),
(303,184,o),
(287,166,o),
(251,166,cs),
(204,166,l)
);
},
{
closed = 1;
nodes = (
(204,534,l),
(251,534,ls),
(283,534,o),
(297,519,o),
(297,482,cs),
(297,445,o),
(283,429,o),
(251,429,cs),
(204,429,l)
);
}
);
width = 474;
},
{
anchors = (
{
name = bottom;
pos = (304,0);
},
{
name = top;
pos = (304,700);
}
);
background = {
shapes = (
{
closed = 1;
nodes = (
(275,0,ls),
(432,0,o),
(506,84,o),
(506,197,cs),
(506,283,o),
(467,342,o),
(402,362,c),
(401,366,l),
(451,392,o),
(486,436,o),
(486,506,cs),
(486,630,o),
(420,700,o),
(275,700,cs),
(112,700,ls),
(72,700,o),
(55,688,o),
(55,660,cs),
(55,40,ls),
(55,12,o),
(72,0,o),
(112,0,cs)
);
},
{
closed = 1;
nodes = (
(240,288,l),
(275,288,ls),
(307,288,o),
(321,270,o),
(321,227,cs),
(321,184,o),
(307,166,o),
(275,166,cs),
(240,166,l)
);
},
{
closed = 1;
nodes = (
(240,534,l),
(275,534,ls),
(303,534,o),
(315,519,o),
(315,482,cs),
(315,445,o),
(303,429,o),
(275,429,cs),
(240,429,l)
);
}
);
};
layerId = "ACEF5F79-87A6-4D8B-B169-2BFCF1568BF8";
shapes = (
{
closed = 1;
nodes = (
(328,0,ls),
(496,0,o),
(576,74,o),
(576,203,cs),
(576,280,o),
(528,351,o),
(458,367,c),
(457,371,l),
(513,394,o),
(558,449,o),
(558,513,cs),
(558,624,o),
(489,700,o),
(314,700,cs),
(107,700,ls),
(67,700,o),
(50,688,o),
(50,660,cs),
(50,40,ls),
(50,12,o),
(67,0,o),
(107,0,cs)
);
},
{
closed = 1;
nodes = (
(230,288,l),
(308,288,ls),
(356,288,o),
(376,270,o),
(376,227,cs),
(376,184,o),
(356,166,o),
(308,166,cs),
(230,166,l)
);
},
{
closed = 1;
nodes = (
(230,534,l),
(303,534,ls),
(346,534,o),
(364,518,o),
(364,481,cs),
(364,444,o),
(345,429,o),
(301,429,cs),
(230,429,l)
);
}
);
width = 593;
},
{
anchors = (
{
name = bottom;
pos = (322,0);
},
{
name = top;
pos = (322,700);
}
);
background = {
shapes = (
{
closed = 1;
nodes = (
(401,0,ls),
(603,0,o),
(699,74,o),
(699,203,cs),
(699,280,o),
(641,351,o),
(557,367,c),
(556,371,l),
(623,394,o),
(677,449,o),
(677,513,cs),
(677,624,o),
(594,700,o),
(384,700,cs),
(130,700,ls),
(82,700,o),
(62,688,o),
(62,660,cs),
(62,40,ls),
(62,12,o),
(82,0,o),
(130,0,cs)
);
},
{
closed = 1;
nodes = (
(296,288,l),
(377,288,ls),
(435,288,o),
(459,270,o),
(459,227,cs),
(459,184,o),
(435,166,o),
(377,166,cs),
(296,166,l)
);
},
{
closed = 1;
nodes = (
(296,534,l),
(371,534,ls),
(423,534,o),
(444,518,o),
(444,481,cs),
(444,444,o),
(422,429,o),
(369,429,cs),
(296,429,l)
);
}
);
};
layerId = "2EA36C28-4342-4323-91EA-7DB25AD3237F";
shapes = (
{
closed = 1;
nodes = (
(446,0,ls),
(600,0,o),
(674,74,o),
(674,203,cs),
(674,280,o),
(626,351,o),
(556,367,c),
(555,371,l),
(611,394,o),
(656,449,o),
(656,513,cs),
(656,624,o),
(593,700,o),
(432,700,cs),
(125,700,ls),
(85,700,o),
(68,688,o),
(68,660,cs),
(68,40,ls),
(68,12,o),
(85,0,o),
(125,0,cs)
);
},
{
closed = 1;
nodes = (
(259,288,l),
(396,288,ls),
(451,288,o),
(474,270,o),
(474,227,cs),
(474,184,o),
(451,166,o),
(396,166,cs),
(259,166,l)
);
},
{
closed = 1;
nodes = (
(259,534,l),
(391,534,ls),
(441,534,o),
(462,518,o),
(462,481,cs),
(462,444,o),
(440,429,o),
(389,429,cs),
(259,429,l)
);
}
);
width = 700;
},
{
anchors = (
{
name = bottom;
pos = (304,0);
},
{
name = top;
pos = (304,700);
}
);
background = {
shapes = (
{
closed = 1;
nodes = (
(378,0,ls),
(580,0,o),
(678,74,o),
(678,203,cs),
(678,280,o),
(612,351,o),
(516,367,c),
(514,371,l),
(586,396,o),
(644,455,o),
(644,523,cs),
(644,628,o),
(564,700,o),
(361,700,cs),
(123,700,ls),
(90,700,o),
(75,688,o),
(75,660,cs),
(75,40,ls),
(75,12,o),
(90,0,o),
(123,0,cs)
);
},
{
closed = 1;
nodes = (
(260,290,l),
(358,290,ls),
(441,290,o),
(488,264,o),
(488,212,cs),
(488,160,o),
(447,131,o),
(378,131,cs),
(260,131,l)
);
},
{
closed = 1;
nodes = (
(260,570,l),
(345,570,ls),
(418,570,o),
(454,545,o),
(454,496,cs),
(454,454,o),
(415,421,o),
(343,421,cs),
(260,421,l)
);
}
);
};
layerId = "D9F64F14-09E8-47AC-ADF7-F859BCC4D5F5";
shapes = (
{
closed = 1;
nodes = (
(428,0,ls),
(594,0,o),
(678,60,o),
(678,203,cs),
(678,280,o),
(623,351,o),
(543,367,c),
(542,371,l),
(602,396,o),
(650,455,o),
(650,523,cs),
(650,628,o),
(583,700,o),
(414,700,cs),
(116,700,ls),
(88,700,o),
(76,688,o),
(76,660,cs),
(76,40,ls),
(76,12,o),
(88,0,o),
(116,0,cs)
);
},
{
closed = 1;
nodes = (
(230,290,l),
(412,290,ls),
(488,290,o),
(520,267,o),
(520,210,cs),
(520,155,o),
(493,131,o),
(428,131,cs),
(230,131,l)
);
},
{
closed = 1;
nodes = (
(230,570,l),
(401,570,ls),
(465,570,o),
(492,548,o),
(492,496,cs),
(492,443,o),
(464,421,o),
(399,421,cs),
(230,421,l)
);
}
);
width = 700;
},
{
anchors = (
{
name = bottom;
pos = (315,0);
},
{
name = top;
pos = (315,700);
}
);
background = {
shapes = (
{
closed = 1;
nodes = (
(574,0,ls),
(588,0,o),
(594,9,o),
(594,30,cs),
(594,46,ls),
(594,67,o),
(588,76,o),
(574,76,cs),
(205,76,l),
(205,320,l),
(543,320,ls),
(557,320,o),
(563,329,o),
(563,350,cs),
(563,366,ls),
(563,387,o),
(557,396,o),
(543,396,cs),
(205,396,l),
(205,624,l),
(573,624,ls),
(587,624,o),
(593,633,o),
(593,654,cs),
(593,670,ls),
(593,691,o),
(587,700,o),
(573,700,cs),
(146,700,ls),
(124,700,o),
(115,691,o),
(115,670,cs),
(115,30,ls),
(115,9,o),
(124,0,o),
(146,0,cs)
);
}
);
};
layerId = "8ED31224-68B7-412A-B4C3-E53F784CF4E5";
shapes = (
{
closed = 1;
nodes = (
(405,0,ls),
(578,0,o),
(666,68,o),
(666,201,cs),
(666,283,o),
(613,345,o),
(526,365,c),
(526,369,l),
(594,388,o),
(636,446,o),
(636,523,cs),
(636,628,o),
(561,700,o),
(412,700,cs),
(146,700,ls),
(124,700,o),
(115,691,o),
(115,670,cs),
(115,30,ls),
(115,9,o),
(124,0,o),
(146,0,cs)
);
},
{
closed = 1;
nodes = (
(205,320,l),
(420,320,ls),
(523,320,o),
(575,275,o),
(575,200,cs),
(575,118,o),
(528,76,o),
(437,76,cs),
(205,76,l)
);
},
{
closed = 1;
nodes = (
(205,624,l),
(403,624,ls),
(503,624,o),
(545,589,o),
(545,515,cs),
(545,436,o),
(498,396,o),
(407,396,cs),
(205,396,l)
);
}
);
width = 700;
},
{
anchors = (
{
name = bottom;
pos = (297,0);
},
{
name = top;
pos = (297,700);
}
);
layerId = "79DB91E0-15EF-4446-816D-FE9384315D55";
shapes = (
{
closed = 1;
nodes = (
(346,0,ls),
(536,0,o),
(628,61,o),
(628,181,cs),
(628,288,o),
(570,347,o),
(455,357,c),
(455,362,l),
(554,373,o),
(604,427,o),
(604,523,cs),
(604,640,o),
(520,700,o),
(346,700,cs),
(138,700,ls),
(127,700,o),
(122,696,o),
(122,686,cs),
(122,14,ls),
(122,4,o),
(127,0,o),
(138,0,cs)
);
},
{
closed = 1;
nodes = (
(162,340,l),
(356,340,ls),
(512,340,o),
(586,286,o),
(586,181,cs),
(586,85,o),
(508,36,o),
(346,36,cs),
(162,36,l)
);
},
{
closed = 1;
nodes = (
(162,664,l),
(346,664,ls),
(493,664,o),
(562,616,o),
(562,523,cs),
(562,426,o),
(496,376,o),
(356,376,cs),
(162,376,l)
);
}
);
width = 700;
}
);
unicode = 66;
userData = {
RMXScaler = {
source = B;
};
};
},
{
glyphname = C;
kernLeft = O;
kernRight = C;
layers = (
{
anchors = (
{
name = bottom;
pos = (372,0);
},
{
name = top;
pos = (365,700);
}
);
background = {
shapes = (
{
closed = 1;
nodes = (
(454,-6,o),
(518,13,o),
(554,33,cs),
(574,44,o),
(586,56,o),
(586,66,cs),
(586,78,o),
(564,120,o),
(551,120,cs),
(538,120,o),
(482,70,o),
(379,70,cs),
(222,70,o),
(148,157,o),
(148,349,cs),
(148,546,o),
(223,630,o),
(383,630,cs),
(479,630,o),
(527,586,o),
(538,586,cs),
(551,586,o),
(572,627,o),
(572,644,cs),
(572,652,o),
(563,661,o),
(548,670,cs),
(514,689,o),
(449,706,o),
(381,706,cs),
(167,706,o),
(57,589,o),
(57,350,cs),
(57,106,o),
(160,-6,o),
(379,-6,cs)
);
}
);
};
layerId = UUID0;
shapes = (
{
closed = 1;
nodes = (
(454,-6,o),
(518,13,o),
(554,33,cs),
(574,44,o),
(586,55,o),
(586,67,cs),
(586,78,o),
(574,115,o),
(557,115,cs),
(543,115,o),
(483,70,o),
(379,70,cs),
(222,70,o),
(148,157,o),
(148,349,cs),
(148,546,o),
(223,630,o),
(383,630,cs),
(476,630,o),
(525,593,o),
(541,593,cs),
(557,593,o),
(572,629,o),
(572,644,cs),
(572,652,o),
(563,661,o),
(548,670,cs),
(514,689,o),
(449,706,o),
(381,706,cs),
(167,706,o),
(57,589,o),
(57,350,cs),
(57,106,o),
(160,-6,o),
(379,-6,cs)
);
}
);
width = 619;
},
{
anchors = (
{
name = bottom;
pos = (364,0);
},
{
name = top;
pos = (368,700);
}
);
background = {
shapes = (
{
closed = 1;
nodes = (
(429,-8,o),
(514,3,o),
(562,30,cs),
(583,42,o),
(597,57,o),
(597,76,cs),
(597,93,o),
(570,163,o),
(538,163,cs),
(523,163,o),
(469,123,o),
(374,123,cs),
(259,123,o),
(203,201,o),
(203,351,cs),
(203,501,o),
(258,576,o),
(376,576,cs),
(471,576,o),
(511,544,o),
(523,544,cs),
(548,544,o),
(588,610,o),
(588,638,cs),
(588,650,o),
(578,661,o),
(562,670,cs),
(522,694,o),
(442,708,o),
(379,708,cs),
(157,708,o),
(45,590,o),
(45,352,cs),
(45,105,o),
(150,-8,o),
(374,-8,cs)
);
}
);
};
layerId = "2C16E7AF-C861-4509-900A-75D3055B0FF7";
shapes = (
{
closed = 1;
nodes = (
(429,-8,o),
(510,3,o),
(558,30,cs),
(588,47,o),
(597,53,o),
(597,76,cs),
(597,93,o),
(581,163,o),
(549,163,cs),
(530,163,o),
(469,123,o),
(374,123,cs),
(259,123,o),
(203,201,o),
(203,351,cs),
(203,501,o),
(258,576,o),
(376,576,cs),
(461,576,o),
(514,547,o),
(538,547,cs),
(562,547,o),
(588,611,o),
(588,638,cs),
(588,650,o),
(578,661,o),
(562,670,cs),
(522,694,o),
(442,708,o),
(379,708,cs),
(157,708,o),
(45,590,o),
(45,352,cs),
(45,105,o),
(150,-8,o),
(374,-8,cs)
);
}
);
width = 619;
},
{
anchors = (
{
name = bottom;
pos = (285,0);
},
{
name = top;
pos = (285,700);
}
);
background = {
shapes = (
{
closed = 1;
nodes = (
(348,-6,o),
(389,5,o),
(417,19,cs),
(430,26,o),
(433,33,o),
(433,42,cs),
(432,66,o),
(419,91,o),
(405,91,cs),
(393,91,o),
(364,70,o),
(302,70,cs),
(183,70,o),
(133,153,o),
(133,352,cs),
(133,548,o),
(183,630,o),
(303,630,cs),
(356,630,o),
(380,617,o),
(397,617,cs),
(415,617,o),
(420,651,o),
(421,660,cs),
(423,675,o),
(417,682,o),
(404,687,cs),
(379,698,o),
(341,706,o),
(303,706,cs),
(128,706,o),
(42,593,o),
(42,352,cs),
(42,107,o),
(125,-6,o),
(302,-6,cs)
);
}
);
};
layerId = "76F17502-367F-435E-B23E-ED9D928E777B";
shapes = (
{
closed = 1;
nodes = (
(348,-6,o),
(389,5,o),
(417,19,cs),
(430,26,o),
(433,33,o),
(433,40,cs),
(433,63,o),
(424,91,o),
(410,91,cs),
(398,91,o),
(364,70,o),
(302,70,cs),
(183,70,o),
(133,153,o),
(133,352,cs),
(133,548,o),
(183,630,o),
(303,630,cs),
(356,630,o),
(382,617,o),
(399,617,cs),
(414,617,o),
(421,645,o),
(421,665,cs),
(421,677,o),
(415,683,o),
(404,687,cs),
(379,698,o),
(341,706,o),
(303,706,cs),
(128,706,o),
(42,593,o),
(42,352,cs),
(42,107,o),
(125,-6,o),
(302,-6,cs)
);
}
);
width = 450;
},
{
anchors = (
{
name = bottom;
pos = (285,0);
},
{
name = top;
pos = (285,700);
}
);
background = {
shapes = (
{
closed = 1;
nodes = (
(347,-8,o),
(387,0,o),
(407,7,cs),
(432,16,o),
(436,32,o),
(436,49,cs),
(436,107,o),
(420,149,o),
(387,139,cs),
(366,133,o),
(350,128,o),
(321,128,cs),
(233,128,o),
(197,204,o),
(197,351,cs),
(197,499,o),
(235,573,o),
(316,573,cs),
(343,573,o),
(364,568,o),
(380,563,cs),
(407,553,o),
(426,604,o),
(427,650,cs),
(428,671,o),
(422,690,o),
(396,697,cs),
(378,702,o),
(345,708,o),
(309,708,cs),
(122,708,o),
(37,590,o),
(37,352,cs),
(37,105,o),
(116,-8,o),
(304,-8,cs)
);
}
);
};
layerId = "6662946B-F990-402F-A6FD-22D24AB84B33";
shapes = (
{
closed = 1;
nodes = (
(351,-8,o),
(392,0,o),
(412,7,cs),
(437,16,o),
(443,31,o),
(443,51,cs),
(443,90,o),
(432,139,o),
(408,139,cs),
(390,139,o),
(368,128,o),
(324,128,cs),
(235,128,o),
(197,194,o),
(197,351,cs),
(197,507,o),
(233,573,o),
(319,573,cs),
(354,573,o),
(383,564,o),
(397,564,cs),
(422,564,o),
(432,619,o),
(432,657,cs),
(432,678,o),
(425,690,o),
(401,697,cs),
(383,702,o),
(349,708,o),
(312,708,cs),
(123,708,o),
(37,590,o),
(37,352,cs),
(37,105,o),
(117,-8,o),
(307,-8,cs)
);
}
);
width = 450;
},
{
anchors = (
{
name = bottom;
pos = (299,0);
},
{
name = top;
pos = (285,700);
}
);
background = {
shapes = (
{
closed = 1;
nodes = (
(360,-6,o),
(397,3,o),
(440,28,cs),
(443,30,o),
(446,34,o),
(446,38,cs),
(446,48,o),
(435,62,o),
(428,62,cs),
(418,62,o),
(393,32,o),
(302,32,cs),
(175,32,o),
(110,142,o),
(110,352,cs),
(110,560,o),
(175,668,o),
(302,668,cs),
(354,668,o),
(391,651,o),
(403,651,cs),
(411,651,o),
(416,663,o),
(417,675,cs),
(418,681,o),
(415,685,o),
(411,687,cs),
(388,697,o),
(353,706,o),
(302,706,cs),
(148,706,o),
(68,585,o),
(68,352,cs),
(68,117,o),
(148,-6,o),
(302,-6,cs)
);
}
);
};
layerId = "534F5340-05B5-45BC-BA3B-B28DD92592EB";
shapes = (
{
closed = 1;
nodes = (
(343,-6,o),
(388,4,o),
(430,28,cs),
(433,30,o),
(436,34,o),
(436,38,cs),
(436,48,o),
(430,62,o),
(423,62,cs),
(413,62,o),
(375,32,o),
(297,32,cs),
(173,32,o),
(110,142,o),
(110,352,cs),
(110,560,o),
(174,668,o),
(297,668,cs),
(356,668,o),
(382,652,o),
(394,652,cs),
(402,652,o),
(407,663,o),
(407,677,cs),
(407,682,o),
(405,685,o),
(399,688,cs),
(378,697,o),
(346,706,o),
(297,706,cs),
(147,706,o),
(68,585,o),
(68,352,cs),
(68,117,o),
(146,-6,o),
(297,-6,cs)
);
}
);
width = 450;
},
{
anchors = (
{
name = bottom;
pos = (374,0);
},
{
name = top;
pos = (374,700);
}
);
background = {
shapes = (
{
closed = 1;
nodes = (
(183,720,o),
(87,597,o),
(87,362,cs),
(87,129,o),
(186,8,o),
(371,8,cs),
(452,8,o),
(520,34,o),
(554,55,cs),
(568,64,o),
(577,72,o),
(577,78,cs),
(577,86,o),
(570,100,o),
(562,100,cs),
(548,100,o),
(488,46,o),
(371,46,cs),
(214,46,o),
(129,154,o),
(129,362,cs),
(129,572,o),
(211,682,o),
(365,682,cs),
(504,682,o),
(552,613,o),
(565,613,cs),
(575,613,o),
(582,629,o),
(582,636,cs),
(582,645,o),
(562,662,o),
(528,682,cs),
(489,705,o),
(427,720,o),
(365,720,cs)
);
}
);
};
layerId = "84AA6C20-0662-4373-B7CF-A8F69217EDA9";
shapes = (
{
closed = 1;
nodes = (
(422,-6,o),
(484,12,o),
(525,35,cs),
(557,53,o),
(577,69,o),
(577,78,cs),
(577,85,o),
(570,101,o),
(560,101,cs),
(547,101,o),
(490,32,o),
(360,32,cs),
(206,32,o),
(124,142,o),
(124,352,cs),
(124,560,o),
(209,668,o),
(366,668,cs),
(483,668,o),
(543,614,o),
(557,614,cs),
(565,614,o),
(572,628,o),
(572,636,cs),
(572,642,o),
(563,650,o),
(549,659,cs),
(515,680,o),
(447,706,o),
(366,706,cs),
(181,706,o),
(82,585,o),
(82,352,cs),
(82,117,o),
(178,-6,o),
(360,-6,cs)
);
}
);
width = 619;
},
{
anchors = (
{
name = bottom;
pos = (285,0);
},
{
name = top;
pos = (285,700);
}
);
background = {
shapes = (
{
closed = 1;
nodes = (
(341,-8,o),
(385,3,o),
(407,12,cs),
(435,23,o),
(440,34,o),
(436,74,cs),
(431,126,o),
(421,175,o),
(394,175,cs),
(378,175,o),
(359,163,o),
(313,163,cs),
(239,163,o),
(209,216,o),
(209,350,cs),
(209,484,o),
(239,537,o),
(313,537,cs),
(348,537,o),
(370,522,o),
(385,522,cs),
(408,522,o),
(421,587,o),
(427,616,cs),
(437,667,o),
(432,681,o),
(396,693,cs),
(376,700,o),
(338,708,o),
(299,708,cs),
(108,708,o),
(11,587,o),
(11,350,cs),
(11,113,o),
(106,-8,o),
(294,-8,cs)
);
}
);
};
layerId = "A5A92505-053D-4D0C-ACDC-6F8463E28DE4";
shapes = (
{
closed = 1;
nodes = (
(345,-8,o),
(390,3,o),
(412,12,cs),
(435,21,o),
(443,30,o),
(443,54,cs),
(443,90,o),
(435,174,o),
(404,174,cs),
(383,174,o),
(363,163,o),
(316,163,cs),
(236,163,o),
(203,216,o),
(203,350,cs),
(203,484,o),
(235,537,o),
(313,537,cs),
(351,537,o),
(372,526,o),
(393,526,cs),
(420,526,o),
(437,617,o),
(437,652,cs),
(437,675,o),
(427,684,o),
(401,693,cs),
(381,700,o),
(342,708,o),
(302,708,cs),
(112,708,o),
(16,587,o),
(16,350,cs),
(16,113,o),
(110,-8,o),
(297,-8,cs)
);
}
);
width = 450;
},
{
anchors = (
{
name = bottom;
pos = (368,0);
},
{
name = top;
pos = (368,700);
}
);
background = {
shapes = (
{
closed = 1;
nodes = (
(589,-8,o),
(706,115,o),
(706,350,cs),
(706,585,o),
(589,708,o),
(366,708,cs),
(142,708,o),
(25,585,o),
(25,350,cs),
(25,115,o),
(142,-8,o),
(366,-8,cs)
);
},
{
closed = 1;
nodes = (
(268,163,o),
(223,222,o),
(223,350,cs),
(223,479,o),
(268,537,o),
(366,537,cs),
(463,537,o),
(508,479,o),
(508,350,cs),
(508,222,o),
(463,163,o),
(366,163,cs)
);
}
);
};
layerId = "ACEF5F79-87A6-4D8B-B169-2BFCF1568BF8";
shapes = (
{
closed = 1;
nodes = (
(434,-8,o),
(517,9,o),
(567,37,cs),
(597,54,o),
(602,62,o),
(602,85,cs),
(602,109,o),
(577,200,o),
(542,200,cs),
(523,200,o),
(469,163,o),
(376,163,cs),
(271,163,o),
(223,207,o),
(223,350,cs),
(223,494,o),
(271,537,o),
(376,537,cs),
(466,537,o),
(511,508,o),
(533,508,cs),
(561,508,o),
(594,597,o),
(594,630,cs),
(594,646,o),
(583,657,o),
(567,666,cs),
(524,692,o),
(439,708,o),
(372,708,cs),
(147,708,o),
(30,585,o),
(30,350,cs),
(30,115,o),
(147,-8,o),
(371,-8,cs)
);
}
);
width = 619;
},
{
anchors = (
{
name = bottom;
pos = (428,0);
},
{
name = top;
pos = (428,700);
}
);
background = {
shapes = (
{
closed = 1;
nodes = (
(702,-8,o),
(839,115,o),
(839,350,cs),
(839,585,o),
(702,708,o),
(439,708,cs),
(175,708,o),
(38,585,o),
(38,350,cs),
(38,115,o),
(175,-8,o),
(439,-8,cs)
);
},
{
closed = 1;
nodes = (
(306,163,o),
(236,227,o),
(236,350,cs),
(236,473,o),
(306,537,o),
(439,537,cs),
(572,537,o),
(641,473,o),
(641,350,cs),
(641,227,o),
(572,163,o),
(439,163,cs)
);
}
);
};
layerId = "2EA36C28-4342-4323-91EA-7DB25AD3237F";
shapes = (
{
closed = 1;
nodes = (
(499,-8,o),
(627,13,o),
(680,43,cs),
(709,59,o),
(712,67,o),
(712,91,cs),
(712,115,o),
(698,199,o),
(670,199,cs),
(642,199,o),
(569,163,o),
(439,163,cs),
(308,163,o),
(242,206,o),
(242,350,cs),
(242,494,o),
(308,537,o),
(439,537,cs),
(570,537,o),
(629,509,o),
(661,509,cs),
(690,509,o),
(706,589,o),
(706,622,cs),
(706,638,o),
(695,649,o),
(679,658,cs),
(634,685,o),
(519,708,o),
(439,708,cs),
(176,708,o),
(43,587,o),
(43,350,cs),
(43,113,o),
(169,-8,o),
(419,-8,cs)
);
}
);
width = 740;
},
{
anchors = (
{
name = bottom;
pos = (413,0);
},
{
name = top;
pos = (418,700);
}
);
background = {
shapes = (
{
closed = 1;
nodes = (
(695,-8,o),
(829,115,o),
(829,350,cs),
(829,585,o),
(695,708,o),
(439,708,cs),
(182,708,o),
(48,585,o),
(48,350,cs),
(48,115,o),
(182,-8,o),
(439,-8,cs)
);
},
{
closed = 1;
nodes = (
(286,123,o),
(206,200,o),
(206,350,cs),
(206,500,o),
(286,577,o),
(439,577,cs),
(591,577,o),
(671,500,o),
(671,350,cs),
(671,200,o),
(591,123,o),
(439,123,cs)
);
}
);
};
layerId = "D9F64F14-09E8-47AC-ADF7-F859BCC4D5F5";
shapes = (
{
closed = 1;
nodes = (
(521,-8,o),
(615,11,o),
(677,46,cs),
(695,56,o),
(700,61,o),
(700,78,cs),
(700,102,o),
(685,165,o),
(662,165,cs),
(633,165,o),
(565,123,o),
(439,123,cs),
(285,123,o),
(206,180,o),
(206,350,cs),
(206,520,o),
(285,576,o),
(439,576,cs),
(558,576,o),
(616,544,o),
(643,544,cs),
(667,544,o),
(689,605,o),
(689,625,cs),
(689,639,o),
(675,651,o),
(654,663,cs),
(611,687,o),
(531,708,o),
(439,708,cs),
(180,708,o),
(48,587,o),
(48,350,cs),
(48,113,o),
(177,-8,o),
(429,-8,cs)
);
}
);
width = 740;
},
{
anchors = (
{
name = bottom;
pos = (410,0);
},
{
name = top;
pos = (410,700);
}
);
background = {
shapes = (
{
closed = 1;
nodes = (
(694,-6,o),
(827,117,o),
(827,352,cs),
(827,585,o),
(694,706,o),
(438,706,cs),
(183,706,o),
(50,585,o),
(50,352,cs),
(50,117,o),
(183,-6,o),
(438,-6,cs)
);
},
{
closed = 1;
nodes = (
(243,70,o),
(141,167,o),
(141,352,cs),
(141,535,o),
(243,630,o),
(438,630,cs),
(634,630,o),
(736,535,o),
(736,352,cs),
(736,167,o),
(634,70,o),
(438,70,cs)
);
}
);
};
layerId = "8ED31224-68B7-412A-B4C3-E53F784CF4E5";
shapes = (
{
closed = 1;
nodes = (
(497,-6,o),
(574,7,o),
(634,30,cs),
(669,43,o),
(679,48,o),
(679,63,cs),
(679,72,o),
(671,113,o),
(654,113,cs),
(640,113,o),
(572,70,o),
(438,70,cs),
(241,70,o),
(141,145,o),
(141,352,cs),
(141,556,o),
(241,630,o),
(438,630,cs),
(554,630,o),
(623,595,o),
(638,595,cs),
(654,595,o),
(665,629,o),
(665,644,cs),
(665,658,o),
(660,662,o),
(628,675,cs),
(581,694,o),
(499,706,o),
(438,706,cs),
(181,706,o),
(50,587,o),
(50,352,cs),
(50,115,o),
(171,-6,o),
(428,-6,cs)
);
}
);
width = 740;
},
{
anchors = (
{
name = bottom;
pos = (430,0);
},
{
name = top;
pos = (430,700);
}
);
background = {
shapes = (
{
closed = 1;
nodes = (
(691,-6,o),
(822,117,o),
(822,352,cs),
(822,585,o),
(691,706,o),
(439,706,cs),
(187,706,o),
(56,585,o),
(56,352,cs),
(56,117,o),
(187,-6,o),
(439,-6,cs)
);
},
{
closed = 1;
nodes = (
(215,32,o),
(98,142,o),
(98,352,cs),
(98,560,o),
(215,668,o),
(439,668,cs),
(663,668,o),
(780,560,o),
(780,352,cs),
(780,142,o),
(663,32,o),
(439,32,cs)
);
}
);
};
layerId = "79DB91E0-15EF-4446-816D-FE9384315D55";
shapes = (
{
closed = 1;
nodes = (
(522,-6,o),
(592,12,o),
(636,31,cs),
(665,44,o),
(683,56,o),
(683,64,cs),
(683,69,o),
(676,87,o),
(668,87,cs),
(655,87,o),
(599,32,o),
(429,32,cs),
(210,32,o),
(98,130,o),
(98,352,cs),
(98,571,o),
(213,668,o),
(439,668,cs),
(575,668,o),
(647,623,o),
(657,623,cs),
(668,623,o),
(673,640,o),
(673,646,cs),
(673,654,o),
(655,665,o),
(624,677,cs),
(588,691,o),
(510,706,o),
(439,706,cs),
(185,706,o),
(56,587,o),
(56,352,cs),
(56,115,o),
(182,-6,o),
(426,-6,cs)
);
}
);
width = 740;
}
);
unicode = 67;
userData = {
RMXScaler = {
source = C;
};
};
},
{
glyphname = D;
kernLeft = H;
kernRight = O;
layers = (
{
anchors = (
{
name = bottom;
pos = (338,0);
},
{
name = center;
pos = (348,350);
},
{
name = top;
pos = (338,700);
}
);
background = {
shapes = (
{
closed = 1;
nodes = (
(394,0,o),
(506,37,o),
(590,118,o),
(638,253,o),
(638,350,qs),
(638,480,o),
(555,633,o),
(415,700,o),
(329,700,qs),
(127,700,ls),
(97,700,o),
(97,670,qs),
(97,30,ls),
(97,0,o),
(127,0,qs),
(329,0,ls)
);
},
{
closed = 1;
nodes = (
(322,624,ls),
(385,624,o),
(487,570,o),
(547,450,o),
(547,350,qs),
(547,250,o),
(487,130,o),
(385,76,o),
(322,76,qs),
(185,76,l),
(185,624,l)
);
}
);
};
layerId = UUID0;
shapes = (
{
closed = 1;
nodes = (
(329,0,ls),
(530,0,o),
(638,122,o),
(638,352,cs),
(638,582,o),
(530,700,o),
(329,700,cs),
(128,700,ls),
(106,700,o),
(97,691,o),
(97,670,cs),
(97,30,ls),
(97,9,o),
(106,0,o),
(128,0,cs)
);
},
{
closed = 1;
nodes = (
(187,624,l),
(329,624,ls),
(470,624,o),
(547,532,o),
(547,352,cs),
(547,172,o),
(470,76,o),
(329,76,cs),
(187,76,l)
);
}
);
width = 695;
},
{
anchors = (
{
name = bottom;
pos = (328,0);
},
{
name = center;
pos = (348,350);
},
{
name = top;
pos = (328,700);
}
);
background = {
shapes = (
{
closed = 1;
nodes = (
(407,0,o),
(526,46,o),
(608,135,o),
(650,265,o),
(650,350,q),
(650,463,o),
(576,619,o),
(433,700,o),
(330,700,q),
(116,700,l),
(76,700,o),
(76,660,q),
(76,40,l),
(76,0,o),
(116,0,q),
(330,0,l)
);
},
{
closed = 1;
nodes = (
(330,569,l),
(384,569,o),
(456,519,o),
(492,421,o),
(492,350,q),
(492,279,o),
(456,181,o),
(384,131,o),
(330,131,q),
(231,131,l),
(231,569,l)
);
}
);
};
layerId = "2C16E7AF-C861-4509-900A-75D3055B0FF7";
shapes = (
{
closed = 1;
nodes = (
(330,0,ls),
(536,0,o),
(650,124,o),
(650,350,cs),
(650,576,o),
(536,700,o),
(330,700,cs),
(102,700,ls),
(76,700,o),
(65,688,o),
(65,660,cs),
(65,40,ls),
(65,12,o),
(76,0,o),
(102,0,cs)
);
},
{
closed = 1;
nodes = (
(220,569,l),
(330,569,ls),
(436,569,o),
(492,494,o),
(492,350,cs),
(492,206,o),
(436,131,o),
(330,131,cs),
(220,131,l)
);
}
);
width = 695;
},
{
anchors = (
{
name = bottom;
pos = (270,0);
},
{
name = center;
pos = (280,350);
},
{
name = top;
pos = (270,700);
}
);
background = {
shapes = (
{
closed = 0;
nodes = (
(268,0,ls),
(429,0,o),
(518,113,o),
(518,352,cs),
(518,591,o),
(429,700,o),
(268,700,cs)
);
},
{
closed = 0;
nodes = (
(268,624,ls),
(377,624,o),
(427,539,o),
(427,352,cs),
(427,163,o),
(377,76,o),
(268,76,cs)
);
}
);
};
layerId = "76F17502-367F-435E-B23E-ED9D928E777B";
shapes = (
{
closed = 1;
nodes = (
(268,0,ls),
(429,0,o),
(518,113,o),
(518,352,cs),
(518,591,o),
(429,700,o),
(268,700,cs),
(113,700,ls),
(91,700,o),
(82,691,o),
(82,670,cs),
(82,30,ls),
(82,9,o),
(91,0,o),
(113,0,cs)
);
},
{
closed = 1;
nodes = (
(172,624,l),
(268,624,ls),
(377,624,o),
(427,539,o),
(427,352,cs),
(427,163,o),
(377,76,o),
(268,76,cs),
(172,76,l)
);
}
);
width = 560;
},
{
anchors = (
{
name = bottom;
pos = (260,0);
},
{
name = center;
pos = (280,350);
},
{
name = top;
pos = (260,700);
}
);
background = {
shapes = (
{
closed = 0;
nodes = (
(267,0,ls),
(447,0,o),
(529,110,o),
(529,350,cs),
(529,590,o),
(447,700,o),
(267,700,cs)
);
},
{
closed = 0;
nodes = (
(268,569,ls),
(342,569,o),
(371,506,o),
(371,350,cs),
(371,194,o),
(342,131,o),
(268,131,cs)
);
}
);
};
layerId = "6662946B-F990-402F-A6FD-22D24AB84B33";
shapes = (
{
closed = 1;
nodes = (
(267,0,ls),
(447,0,o),
(529,110,o),
(529,350,cs),
(529,590,o),
(447,700,o),
(267,700,cs),
(87,700,ls),
(61,700,o),
(50,688,o),
(50,660,cs),
(50,40,ls),
(50,12,o),
(61,0,o),
(87,0,cs)
);
},
{
closed = 1;
nodes = (
(205,569,l),
(268,569,ls),
(342,569,o),
(371,506,o),
(371,350,cs),
(371,194,o),
(342,131,o),
(268,131,cs),
(205,131,l)
);
}
);
width = 560;
},
{
anchors = (
{
name = bottom;
pos = (270,0);
},
{
name = center;
pos = (280,350);
},
{
name = top;
pos = (270,700);
}
);
background = {
shapes = (
{
closed = 0;
nodes = (
(267,0,ls),
(415,0,o),
(492,121,o),
(492,352,cs),
(492,581,o),
(415,700,o),
(267,700,cs)
);
},
{
closed = 0;
nodes = (
(267,664,ls),
(387,664,o),
(450,557,o),
(450,352,cs),
(450,145,o),
(387,36,o),
(267,36,cs)
);
}
);
};
layerId = "534F5340-05B5-45BC-BA3B-B28DD92592EB";
shapes = (
{
closed = 1;
nodes = (
(267,0,ls),
(415,0,o),
(492,121,o),
(492,352,cs),
(492,581,o),
(415,700,o),
(267,700,cs),
(124,700,ls),
(113,700,o),
(108,696,o),
(108,686,cs),
(108,14,ls),
(108,4,o),
(113,0,o),
(124,0,cs)
);
},
{
closed = 1;
nodes = (
(148,664,l),
(267,664,ls),
(387,664,o),
(450,557,o),
(450,352,cs),
(450,145,o),
(387,36,o),
(267,36,cs),
(148,36,l)
);
}
);
width = 560;
},
{
anchors = (
{
name = bottom;
pos = (338,0);
},
{
name = center;
pos = (348,350);
},
{
name = top;
pos = (338,700);
}
);
layerId = "84AA6C20-0662-4373-B7CF-A8F69217EDA9";
shapes = (
{
closed = 1;
nodes = (
(329,0,ls),
(516,0,o),
(613,121,o),
(613,352,cs),
(613,581,o),
(516,700,o),
(329,700,cs),
(138,700,ls),
(127,700,o),
(122,696,o),
(122,686,cs),
(122,14,ls),
(122,4,o),
(127,0,o),
(138,0,cs)
);
},
{
closed = 1;
nodes = (
(162,664,l),
(329,664,ls),
(488,664,o),
(571,557,o),
(571,352,cs),
(571,145,o),
(488,36,o),
(329,36,cs),
(162,36,l)
);
}
);
width = 695;
},
{
anchors = (
{
name = bottom;
pos = (270,0);
},
{
name = center;
pos = (280,350);
},
{
name = top;
pos = (270,700);
}
);
background = {
shapes = (
{
closed = 0;
nodes = (
(268,0,ls),
(453,0,o),
(549,120,o),
(549,350,cs),
(549,580,o),
(453,700,o),
(268,700,cs)
);
},
{
closed = 0;
nodes = (
(268,529,ls),
(327,529,o),
(351,478,o),
(351,350,cs),
(351,222,o),
(327,171,o),
(268,171,cs)
);
}
);
};
layerId = "A5A92505-053D-4D0C-ACDC-6F8463E28DE4";
shapes = (
{
closed = 1;
nodes = (
(268,0,ls),
(450,0,o),
(544,120,o),
(544,350,cs),
(544,580,o),
(450,700,o),
(268,700,cs),
(92,700,ls),
(52,700,o),
(35,688,o),
(35,660,cs),
(35,40,ls),
(35,12,o),
(52,0,o),
(92,0,cs)
);
},
{
closed = 1;
nodes = (
(214,529,l),
(268,529,ls),
(331,529,o),
(357,478,o),
(357,350,cs),
(357,222,o),
(331,171,o),
(268,171,cs),
(214,171,l)
);
}
);
width = 560;
},
{
anchors = (
{
name = bottom;
pos = (328,0);
},
{
name = center;
pos = (348,350);
},
{
name = top;
pos = (328,700);
}
);
background = {
shapes = (
{
closed = 0;
nodes = (
(330,0,ls),
(553,0,o),
(670,120,o),
(670,350,cs),
(670,580,o),
(553,700,o),
(330,700,cs)
);
},
{
closed = 0;
nodes = (
(330,529,ls),
(427,529,o),
(472,473,o),
(472,350,cs),
(472,227,o),
(427,171,o),
(330,171,cs)
);
}
);
};
layerId = "ACEF5F79-87A6-4D8B-B169-2BFCF1568BF8";
shapes = (
{
closed = 1;
nodes = (
(330,0,ls),
(550,0,o),
(665,120,o),
(665,350,cs),
(665,580,o),
(550,700,o),
(330,700,cs),
(107,700,ls),
(67,700,o),
(50,688,o),
(50,660,cs),
(50,40,ls),
(50,12,o),
(67,0,o),
(107,0,cs)
);
},
{
closed = 1;
nodes = (
(235,529,l),
(330,529,ls),
(427,529,o),
(472,473,o),
(472,350,cs),
(472,227,o),
(427,171,o),
(330,171,cs),
(235,171,l)
);
}
);
width = 695;
},
{
anchors = (
{
name = bottom;
pos = (397,0);
},
{
name = center;
pos = (417,350);
},
{
name = top;
pos = (397,700);
}
);
background = {
shapes = (
{
closed = 0;
nodes = (
(396,0,ls),
(659,0,o),
(796,120,o),
(796,350,cs),
(796,580,o),
(659,700,o),
(396,700,cs)
);
},
{
closed = 0;
nodes = (
(396,529,ls),
(529,529,o),
(598,468,o),
(598,350,cs),
(598,232,o),
(529,171,o),
(396,171,cs)
);
}
);
};
layerId = "2EA36C28-4342-4323-91EA-7DB25AD3237F";
shapes = (
{
closed = 1;
nodes = (
(396,0,ls),
(656,0,o),
(791,120,o),
(791,350,cs),
(791,580,o),
(656,700,o),
(396,700,cs),
(125,700,ls),
(85,700,o),
(68,688,o),
(68,660,cs),
(68,40,ls),
(68,12,o),
(85,0,o),
(125,0,cs)
);
},
{
closed = 1;
nodes = (
(259,529,l),
(396,529,ls),
(525,529,o),
(592,468,o),
(592,350,cs),
(592,232,o),
(525,171,o),
(396,171,cs),
(259,171,l)
);
}
);
width = 834;
},
{
anchors = (
{
name = bottom;
pos = (407,0);
},
{
name = center;
pos = (417,350);
},
{
name = top;
pos = (407,700);
}
);
background = {
shapes = (
{
closed = 0;
nodes = (
(396,0,ls),
(652,0,o),
(786,120,o),
(786,350,cs),
(786,580,o),
(652,700,o),
(396,700,cs)
);
},
{
closed = 0;
nodes = (
(396,569,ls),
(548,569,o),
(628,494,o),
(628,350,cs),
(628,206,o),
(548,131,o),
(396,131,cs)
);
}
);
};
layerId = "D9F64F14-09E8-47AC-ADF7-F859BCC4D5F5";
shapes = (
{
closed = 1;
nodes = (
(396,0,ls),
(652,0,o),
(786,120,o),
(786,350,cs),
(786,580,o),
(652,700,o),
(396,700,cs),
(120,700,ls),
(94,700,o),
(83,688,o),
(83,660,cs),
(83,40,ls),
(83,12,o),
(94,0,o),
(120,0,cs)
);
},
{
closed = 1;
nodes = (
(238,569,l),
(396,569,ls),
(548,569,o),
(628,494,o),
(628,350,cs),
(628,206,o),
(548,131,o),
(396,131,cs),
(238,131,l)
);
}
);
width = 834;
},
{
anchors = (
{
name = bottom;
pos = (407,0);
},
{
name = center;
pos = (417,350);
},
{
name = top;
pos = (407,700);
}
);
layerId = "8ED31224-68B7-412A-B4C3-E53F784CF4E5";
shapes = (
{
closed = 1;
nodes = (
(395,0,ls),
(651,0,o),
(784,121,o),
(784,352,cs),
(784,581,o),
(651,700,o),
(395,700,cs),
(128,700,ls),
(106,700,o),
(97,691,o),
(97,670,cs),
(97,30,ls),
(97,9,o),
(106,0,o),
(128,0,cs)
);
},
{
closed = 1;
nodes = (
(187,624,l),
(395,624,ls),
(591,624,o),
(693,531,o),
(693,352,cs),
(693,171,o),
(591,76,o),
(395,76,cs),
(187,76,l)
);
}
);
width = 834;
},
{
anchors = (
{
name = bottom;
pos = (417,0);
},
{
name = center;
pos = (417,350);
},
{
name = top;
pos = (417,700);
}
);
layerId = "79DB91E0-15EF-4446-816D-FE9384315D55";
shapes = (
{
closed = 1;
nodes = (
(395,0,ls),
(647,0,o),
(778,121,o),
(778,352,cs),
(778,581,o),
(647,700,o),
(395,700,cs),
(156,700,ls),
(145,700,o),
(140,696,o),
(140,686,cs),
(140,14,ls),
(140,4,o),
(145,0,o),
(156,0,cs)
);
},
{
closed = 1;
nodes = (
(180,664,l),
(395,664,ls),
(619,664,o),
(736,557,o),
(736,352,cs),
(736,145,o),
(619,36,o),
(395,36,cs),
(180,36,l)
);
}
);
width = 834;
}
);
unicode = 68;
userData = {
RMXScaler = {
source = D;
};
};
},
{
glyphname = Eth;
kernLeft = H;
kernRight = O;
layers = (
{
background = {
shapes = (
{
closed = 1;
nodes = (
(323,320,ls),
(337,320,o),
(343,329,o),
(343,350,cs),
(343,366,ls),
(343,387,o),
(337,396,o),
(323,396,cs),
(20,396,ls),
(6,396,o),
(0,387,o),
(0,366,cs),
(0,350,ls),
(0,329,o),
(6,320,o),
(20,320,cs)
);
}
);
};
layerId = UUID0;
shapes = (
{
closed = 1;
nodes = (
(360,320,ls),
(373,320,o),
(379,329,o),
(379,350,cs),
(379,366,ls),
(379,387,o),
(373,396,o),
(360,396,cs),
(29,396,ls),
(16,396,o),
(10,387,o),
(10,366,cs),
(10,350,ls),
(10,329,o),
(16,320,o),
(29,320,cs)
);
},
{
ref = D;
}
);
width = 695;
},
{
background = {
shapes = (
{
closed = 1;
nodes = (
(325,291,ls),
(346,291,o),
(355,306,o),
(355,341,cs),
(355,371,ls),
(355,406,o),
(346,421,o),
(325,421,cs),
(42,421,ls),
(21,421,o),
(12,406,o),
(12,371,cs),
(12,341,ls),
(12,306,o),
(21,291,o),
(42,291,cs)
);
}
);
};
layerId = "2C16E7AF-C861-4509-900A-75D3055B0FF7";
shapes = (
{
closed = 1;
nodes = (
(344,291,ls),
(364,291,o),
(373,306,o),
(373,341,cs),
(373,371,ls),
(373,406,o),
(364,421,o),
(344,421,cs),
(29,421,ls),
(9,421,o),
(0,406,o),
(0,371,cs),
(0,341,ls),
(0,306,o),
(9,291,o),
(29,291,cs)
);
},
{
ref = D;
}
);
width = 695;
},
{
layerId = "76F17502-367F-435E-B23E-ED9D928E777B";
shapes = (
{
closed = 1;
nodes = (
(280,320,ls),
(293,320,o),
(299,329,o),
(299,350,cs),
(299,366,ls),
(299,387,o),
(293,396,o),
(280,396,cs),
(29,396,ls),
(16,396,o),
(10,387,o),
(10,366,cs),
(10,350,ls),
(10,329,o),
(16,320,o),
(29,320,cs)
);
},
{
ref = D;
}
);
width = 560;
},
{
layerId = "6662946B-F990-402F-A6FD-22D24AB84B33";
shapes = (
{
closed = 1;
nodes = (
(264,291,ls),
(284,291,o),
(293,306,o),
(293,341,cs),
(293,371,ls),
(293,406,o),
(284,421,o),
(264,421,cs),
(29,421,ls),
(9,421,o),
(0,406,o),
(0,371,cs),
(0,341,ls),
(0,306,o),
(9,291,o),
(29,291,cs)
);
},
{
ref = D;
}
);
width = 560;
},
{
background = {
shapes = (
{
closed = 0;
nodes = (
(148,340,l),
(296,340,ls),
(302,340,o),
(305,344,o),
(305,354,cs),
(305,362,ls),
(305,372,o),
(302,376,o),
(296,376,cs),
(148,376,l)
);
}
);
};
layerId = "534F5340-05B5-45BC-BA3B-B28DD92592EB";
shapes = (
{
closed = 1;
nodes = (
(283,341,ls),
(291,341,o),
(295,345,o),
(295,355,cs),
(295,363,ls),
(295,373,o),
(291,377,o),
(283,377,cs),
(22,377,ls),
(14,377,o),
(10,373,o),
(10,363,cs),
(10,355,ls),
(10,345,o),
(14,341,o),
(22,341,cs)
);
},
{
ref = D;
}
);
width = 560;
},
{
background = {
shapes = (
{
closed = 1;
nodes = (
(385,341,ls),
(393,341,o),
(397,345,o),
(397,355,cs),
(397,363,ls),
(397,373,o),
(393,377,o),
(385,377,cs),
(22,377,ls),
(14,377,o),
(10,373,o),
(10,363,cs),
(10,355,ls),
(10,345,o),
(14,341,o),
(22,341,cs)
);
}
);
};
layerId = "84AA6C20-0662-4373-B7CF-A8F69217EDA9";
shapes = (
{
closed = 1;
nodes = (
(363,341,ls),
(371,341,o),
(375,345,o),
(375,355,cs),
(375,363,ls),
(375,373,o),
(371,377,o),
(363,377,cs),
(22,377,ls),
(14,377,o),
(10,373,o),
(10,363,cs),
(10,355,ls),
(10,345,o),
(14,341,o),
(22,341,cs)
);
},
{
ref = D;
}
);
width = 695;
},
{
layerId = "A5A92505-053D-4D0C-ACDC-6F8463E28DE4";
shapes = (
{
closed = 1;
nodes = (
(259,276,ls),
(284,276,o),
(293,296,o),
(293,341,cs),
(293,371,ls),
(293,416,o),
(284,436,o),
(259,436,cs),
(19,436,ls),
(-6,436,o),
(-15,416,o),
(-15,371,cs),
(-15,341,ls),
(-15,296,o),
(-6,276,o),
(19,276,cs)
);
},
{
ref = D;
}
);
width = 560;
},
{
layerId = "ACEF5F79-87A6-4D8B-B169-2BFCF1568BF8";
shapes = (
{
closed = 1;
nodes = (
(339,276,ls),
(364,276,o),
(373,296,o),
(373,341,cs),
(373,371,ls),
(373,416,o),
(364,436,o),
(339,436,cs),
(19,436,ls),
(-6,436,o),
(-15,416,o),
(-15,371,cs),
(-15,341,ls),
(-15,296,o),
(-6,276,o),
(19,276,cs)
);
},
{
ref = D;
}
);
width = 695;
},
{
layerId = "2EA36C28-4342-4323-91EA-7DB25AD3237F";
shapes = (
{
closed = 1;
nodes = (
(419,276,ls),
(444,276,o),
(453,296,o),
(453,341,cs),
(453,371,ls),
(453,416,o),
(444,436,o),
(419,436,cs),
(19,436,ls),
(-6,436,o),
(-15,416,o),
(-15,371,cs),
(-15,341,ls),
(-15,296,o),
(-6,276,o),
(19,276,cs)
);
},
{
ref = D;
}
);
width = 834;
},
{
layerId = "D9F64F14-09E8-47AC-ADF7-F859BCC4D5F5";
shapes = (
{
closed = 1;
nodes = (
(424,291,ls),
(444,291,o),
(453,306,o),
(453,341,cs),
(453,371,ls),
(453,406,o),
(444,421,o),
(424,421,cs),
(29,421,ls),
(9,421,o),
(0,406,o),
(0,371,cs),
(0,341,ls),
(0,306,o),
(9,291,o),
(29,291,cs)
);
},
{
ref = D;
}
);
width = 834;
},
{
layerId = "8ED31224-68B7-412A-B4C3-E53F784CF4E5";
shapes = (
{
closed = 1;
nodes = (
(440,320,ls),
(453,320,o),
(459,329,o),
(459,350,cs),
(459,366,ls),
(459,387,o),
(453,396,o),
(440,396,cs),
(29,396,ls),
(16,396,o),
(10,387,o),
(10,366,cs),
(10,350,ls),
(10,329,o),
(16,320,o),
(29,320,cs)
);
},
{
ref = D;
}
);
width = 834;
},
{
background = {
shapes = (
{
closed = 1;
nodes = (
(466,341,ls),
(474,341,o),
(478,345,o),
(478,355,cs),
(478,363,ls),
(478,373,o),
(474,377,o),
(466,377,cs),
(22,377,ls),
(14,377,o),
(10,373,o),
(10,363,cs),
(10,355,ls),
(10,345,o),
(14,341,o),
(22,341,cs)
);
}
);
};
layerId = "79DB91E0-15EF-4446-816D-FE9384315D55";
shapes = (
{
closed = 1;
nodes = (
(443,341,ls),
(451,341,o),
(455,345,o),
(455,355,cs),
(455,363,ls),
(455,373,o),
(451,377,o),
(443,377,cs),
(22,377,ls),
(14,377,o),
(10,373,o),
(10,363,cs),
(10,355,ls),
(10,345,o),
(14,341,o),
(22,341,cs)
);
},
{
ref = D;
}
);
width = 834;
}
);
unicode = 208;
userData = {
RMXScaler = {
source = Eth;
};
};
},
{
glyphname = E;
kernLeft = H;
kernRight = E;
layers = (
{
anchors = (
{
name = bottom;
pos = (301,0);
},
{
name = ogonek;
pos = (497,0);
},
{
name = top;
pos = (302,700);
}
);
background = {
shapes = (
{
closed = 1;
nodes = (
(498,0,o),
(498,30,qs),
(498,46,ls),
(498,76,o),
(478,76,qs),
(186,76,l),
(186,320,l),
(447,320,ls),
(467,320,o),
(467,350,qs),
(467,366,ls),
(467,396,o),
(447,396,qs),
(186,396,l),
(186,624,l),
(477,624,ls),
(497,624,o),
(497,654,qs),
(497,670,ls),
(497,700,o),
(477,700,qs),
(128,700,ls),
(98,700,o),
(98,670,qs),
(98,30,ls),
(98,0,o),
(128,0,qs),
(478,0,ls)
);
}
);
};
layerId = UUID0;
shapes = (
{
closed = 1;
nodes = (
(477,0,ls),
(491,0,o),
(497,9,o),
(497,30,cs),
(497,46,ls),
(497,67,o),
(491,76,o),
(477,76,cs),
(187,76,l),
(187,320,l),
(446,320,ls),
(460,320,o),
(466,329,o),
(466,350,cs),
(466,366,ls),
(466,387,o),
(460,396,o),
(446,396,cs),
(187,396,l),
(187,624,l),
(476,624,ls),
(490,624,o),
(496,633,o),
(496,654,cs),
(496,670,ls),
(496,691,o),
(490,700,o),
(476,700,cs),
(128,700,ls),
(106,700,o),
(97,691,o),
(97,670,cs),
(97,30,ls),
(97,9,o),
(106,0,o),
(128,0,cs)
);
}
);
width = 546;
},
{
anchors = (
{
name = bottom;
pos = (283,0);
},
{
name = ogonek;
pos = (490,0);
},
{
name = top;
pos = (279,700);
}
);
background = {
shapes = (
{
closed = 1;
nodes = (
(499,0,o),
(499,50,q),
(499,81,l),
(499,131,o),
(469,131,q),
(231,131,l),
(231,293,l),
(441,293,l),
(471,293,o),
(471,343,q),
(471,374,l),
(471,424,o),
(441,424,q),
(231,424,l),
(231,569,l),
(468,569,l),
(498,569,o),
(498,619,q),
(498,650,l),
(498,700,o),
(468,700,q),
(117,700,l),
(77,700,o),
(77,660,q),
(77,40,l),
(77,0,o),
(117,0,q),
(469,0,l)
);
}
);
};
layerId = "2C16E7AF-C861-4509-900A-75D3055B0FF7";
shapes = (
{
closed = 1;
nodes = (
(460,0,ls),
(481,0,o),
(490,15,o),
(490,50,cs),
(490,81,ls),
(490,116,o),
(481,131,o),
(460,131,cs),
(220,131,l),
(220,293,l),
(433,293,ls),
(453,293,o),
(462,308,o),
(462,343,cs),
(462,374,ls),
(462,409,o),
(453,424,o),
(433,424,cs),
(220,424,l),
(220,569,l),
(459,569,ls),
(480,569,o),
(489,584,o),
(489,619,cs),
(489,650,ls),
(489,685,o),
(480,700,o),
(459,700,cs),
(102,700,ls),
(76,700,o),
(65,688,o),
(65,660,cs),
(65,40,ls),
(65,12,o),
(76,0,o),
(102,0,cs)
);
}
);
width = 546;
},
{
anchors = (
{
name = bottom;
pos = (257,0);
},
{
name = ogonek;
pos = (416,0);
},
{
name = top;
pos = (254,700);
}
);
layerId = "76F17502-367F-435E-B23E-ED9D928E777B";
shapes = (
{
closed = 1;
nodes = (
(396,0,ls),
(410,0,o),
(416,9,o),
(416,30,cs),
(416,46,ls),
(416,67,o),
(410,76,o),
(396,76,cs),
(172,76,l),
(172,320,l),
(373,320,ls),
(387,320,o),
(393,329,o),
(393,350,cs),
(393,366,ls),
(393,387,o),
(387,396,o),
(373,396,cs),
(172,396,l),
(172,624,l),
(396,624,ls),
(410,624,o),
(416,633,o),
(416,654,cs),
(416,670,ls),
(416,691,o),
(410,700,o),
(396,700,cs),
(113,700,ls),
(91,700,o),
(82,691,o),
(82,670,cs),
(82,30,ls),
(82,9,o),
(91,0,o),
(113,0,cs)
);
}
);
width = 426;
},
{
anchors = (
{
name = bottom;
pos = (238,0);
},
{
name = ogonek;
pos = (411,0);
},
{
name = top;
pos = (226,700);
}
);
layerId = "6662946B-F990-402F-A6FD-22D24AB84B33";
shapes = (
{
closed = 1;
nodes = (
(381,0,ls),
(402,0,o),
(411,15,o),
(411,50,cs),
(411,81,ls),
(411,116,o),
(402,131,o),
(381,131,cs),
(205,131,l),
(205,293,l),
(362,293,ls),
(382,293,o),
(391,308,o),
(391,343,cs),
(391,374,ls),
(391,409,o),
(382,424,o),
(362,424,cs),
(205,424,l),
(205,569,l),
(381,569,ls),
(402,569,o),
(411,584,o),
(411,619,cs),
(411,650,ls),
(411,685,o),
(402,700,o),
(381,700,cs),
(87,700,ls),
(61,700,o),
(50,688,o),
(50,660,cs),
(50,40,ls),
(50,12,o),
(61,0,o),
(87,0,cs)
);
}
);
width = 426;
},
{
anchors = (
{
name = bottom;
pos = (252,0);
},
{
name = ogonek;
pos = (377,0);
},
{
name = top;
pos = (249,700);
}
);
background = {
shapes = (
{
closed = 1;
nodes = (
(365,0,ls),
(373,0,o),
(377,4,o),
(377,14,cs),
(377,22,ls),
(377,32,o),
(373,36,o),
(365,36,cs),
(148,36,l),
(148,690,ls),
(148,698,o),
(143,702,o),
(132,702,cs),
(124,702,ls),
(113,702,o),
(108,698,o),
(108,690,cs),
(108,14,ls),
(108,4,o),
(113,0,o),
(124,0,cs)
);
}
);
};
layerId = "534F5340-05B5-45BC-BA3B-B28DD92592EB";
shapes = (
{
closed = 1;
nodes = (
(365,0,ls),
(373,0,o),
(377,4,o),
(377,14,cs),
(377,22,ls),
(377,32,o),
(373,36,o),
(365,36,cs),
(148,36,l),
(148,340,l),
(340,340,ls),
(348,340,o),
(352,344,o),
(352,354,cs),
(352,362,ls),
(352,372,o),
(348,376,o),
(340,376,cs),
(148,376,l),
(148,664,l),
(363,664,ls),
(371,664,o),
(375,668,o),
(375,678,cs),
(375,686,ls),
(375,696,o),
(371,700,o),
(363,700,cs),
(124,700,ls),
(113,700,o),
(108,696,o),
(108,686,cs),
(108,14,ls),
(108,4,o),
(113,0,o),
(124,0,cs)
);
}
);
width = 426;
},
{
anchors = (
{
name = bottom;
pos = (321,0);
},
{
name = ogonek;
pos = (498,0);
},
{
name = top;
pos = (317,700);
}
);
background = {
shapes = (
{
closed = 1;
nodes = (
(146,-2,ls),
(157,-2,o),
(162,2,o),
(162,10,cs),
(162,341,l),
(571,341,l),
(571,10,ls),
(571,2,o),
(576,-2,o),
(587,-2,cs),
(595,-2,ls),
(606,-2,o),
(611,2,o),
(611,10,cs),
(611,690,ls),
(611,698,o),
(606,702,o),
(595,702,cs),
(587,702,ls),
(576,702,o),
(571,698,o),
(571,690,cs),
(571,377,l),
(162,377,l),
(162,690,ls),
(162,698,o),
(157,702,o),
(146,702,cs),
(138,702,ls),
(127,702,o),
(122,698,o),
(122,690,cs),
(122,10,ls),
(122,2,o),
(127,-2,o),
(138,-2,cs)
);
}
);
};
layerId = "84AA6C20-0662-4373-B7CF-A8F69217EDA9";
shapes = (
{
closed = 1;
nodes = (
(486,0,ls),
(494,0,o),
(498,4,o),
(498,14,cs),
(498,22,ls),
(498,32,o),
(494,36,o),
(486,36,cs),
(162,36,l),
(162,340,l),
(456,340,ls),
(464,340,o),
(468,344,o),
(468,354,cs),
(468,362,ls),
(468,372,o),
(464,376,o),
(456,376,cs),
(162,376,l),
(162,664,l),
(486,664,ls),
(494,664,o),
(498,668,o),
(498,678,cs),
(498,686,ls),
(498,696,o),
(494,700,o),
(486,700,cs),
(138,700,ls),
(127,700,o),
(122,696,o),
(122,686,cs),
(122,14,ls),
(122,4,o),
(127,0,o),
(138,0,cs)
);
}
);
width = 546;
},
{
anchors = (
{
name = bottom;
pos = (225,0);
},
{
name = ogonek;
pos = (412,0);
},
{
name = top;
pos = (226,700);
}
);
layerId = "A5A92505-053D-4D0C-ACDC-6F8463E28DE4";
shapes = (
{
closed = 1;
nodes = (
(372,0,ls),
(400,0,o),
(412,18,o),
(412,60,cs),
(412,111,ls),
(412,153,o),
(400,171,o),
(372,171,cs),
(214,171,l),
(214,273,l),
(352,273,ls),
(380,273,o),
(392,291,o),
(392,333,cs),
(392,384,ls),
(392,426,o),
(380,444,o),
(352,444,cs),
(214,444,l),
(214,529,l),
(372,529,ls),
(400,529,o),
(412,547,o),
(412,589,cs),
(412,640,ls),
(412,682,o),
(400,700,o),
(372,700,cs),
(92,700,ls),
(52,700,o),
(35,688,o),
(35,660,cs),
(35,40,ls),
(35,12,o),
(52,0,o),
(92,0,cs)
);
}
);
width = 426;
},
{
anchors = (
{
name = bottom;
pos = (295,0);
},
{
name = ogonek;
pos = (521,0);
},
{
name = top;
pos = (286,700);
}
);
background = {
shapes = (
{
closed = 1;
nodes = (
(426,0,ls),
(454,0,o),
(466,18,o),
(466,60,cs),
(466,111,ls),
(466,153,o),
(454,171,o),
(426,171,cs),
(279,171,l),
(279,273,l),
(406,273,ls),
(434,273,o),
(446,291,o),
(446,333,cs),
(446,384,ls),
(446,426,o),
(434,444,o),
(406,444,cs),
(279,444,l),
(279,529,l),
(426,529,ls),
(454,529,o),
(466,547,o),
(466,589,cs),
(466,640,ls),
(466,682,o),
(454,700,o),
(426,700,cs),
(141,700,ls),
(101,700,o),
(84,688,o),
(84,660,cs),
(84,40,ls),
(84,12,o),
(101,0,o),
(141,0,cs)
);
}
);
};
layerId = "ACEF5F79-87A6-4D8B-B169-2BFCF1568BF8";
shapes = (
{
closed = 1;
nodes = (
(481,0,ls),
(509,0,o),
(521,18,o),
(521,60,cs),
(521,111,ls),
(521,153,o),
(509,171,o),
(481,171,cs),
(235,171,l),
(235,273,l),
(453,273,ls),
(481,273,o),
(493,291,o),
(493,333,cs),
(493,384,ls),
(493,426,o),
(481,444,o),
(453,444,cs),
(235,444,l),
(235,529,l),
(480,529,ls),
(508,529,o),
(520,547,o),
(520,589,cs),
(520,640,ls),
(520,682,o),
(508,700,o),
(480,700,cs),
(107,700,ls),
(67,700,o),
(50,688,o),
(50,660,cs),
(50,40,ls),
(50,12,o),
(67,0,o),
(107,0,cs)
);
}
);
width = 546;
},
{
anchors = (
{
name = bottom;
pos = (356,0);
},
{
name = ogonek;
pos = (630,0);
},
{
name = top;
pos = (347,700);
}
);
background = {
anchors = (
{
name = bottom;
pos = (345,0);
},
{
name = ogonek;
pos = (525,0);
},
{
name = top;
pos = (336,700);
}
);
shapes = (
{
closed = 1;
nodes = (
(549,0,ls),
(574,0,o),
(585,15,o),
(585,50,cs),
(585,81,ls),
(585,116,o),
(574,131,o),
(549,131,cs),
(263,131,l),
(263,293,l),
(515,293,ls),
(541,293,o),
(551,308,o),
(551,343,cs),
(551,374,ls),
(551,409,o),
(541,424,o),
(515,424,cs),
(263,424,l),
(263,569,l),
(548,569,ls),
(573,569,o),
(584,584,o),
(584,619,cs),
(584,650,ls),
(584,685,o),
(573,700,o),
(548,700,cs),
(127,700,ls),
(93,700,o),
(79,688,o),
(79,660,cs),
(79,40,ls),
(79,12,o),
(93,0,o),
(127,0,cs)
);
}
);
};
layerId = "2EA36C28-4342-4323-91EA-7DB25AD3237F";
shapes = (
{
closed = 1;
nodes = (
(590,0,ls),
(618,0,o),
(630,18,o),
(630,60,cs),
(630,111,ls),
(630,153,o),
(618,171,o),
(590,171,cs),
(259,171,l),
(259,273,l),
(562,273,ls),
(590,273,o),
(602,291,o),
(602,333,cs),
(602,384,ls),
(602,426,o),
(590,444,o),
(562,444,cs),
(259,444,l),
(259,529,l),
(589,529,ls),
(617,529,o),
(629,547,o),
(629,589,cs),
(629,640,ls),
(629,682,o),
(617,700,o),
(589,700,cs),
(125,700,ls),
(85,700,o),
(68,688,o),
(68,660,cs),
(68,40,ls),
(68,12,o),
(85,0,o),
(125,0,cs)
);
}
);
width = 678;
},
{
anchors = (
{
name = bottom;
pos = (360,0);
},
{
name = ogonek;
pos = (632,0);
},
{
name = top;
pos = (356,700);
}
);
background = {
shapes = (
{
closed = 1;
nodes = (
(553,0,ls),
(578,0,o),
(589,15,o),
(589,50,cs),
(589,81,ls),
(589,116,o),
(578,131,o),
(553,131,cs),
(268,131,l),
(268,293,l),
(520,293,ls),
(545,293,o),
(556,308,o),
(556,343,cs),
(556,374,ls),
(556,409,o),
(545,424,o),
(520,424,cs),
(268,424,l),
(268,569,l),
(552,569,ls),
(577,569,o),
(588,584,o),
(588,619,cs),
(588,650,ls),
(588,685,o),
(577,700,o),
(552,700,cs),
(131,700,ls),
(97,700,o),
(83,688,o),
(83,660,cs),
(83,40,ls),
(83,12,o),
(97,0,o),
(131,0,cs)
);
}
);
};
layerId = "D9F64F14-09E8-47AC-ADF7-F859BCC4D5F5";
shapes = (
{
closed = 1;
nodes = (
(602,0,ls),
(623,0,o),
(632,15,o),
(632,50,cs),
(632,81,ls),
(632,116,o),
(623,131,o),
(602,131,cs),
(238,131,l),
(238,293,l),
(575,293,ls),
(595,293,o),
(604,308,o),
(604,343,cs),
(604,374,ls),
(604,409,o),
(595,424,o),
(575,424,cs),
(238,424,l),
(238,569,l),
(601,569,ls),
(622,569,o),
(631,584,o),
(631,619,cs),
(631,650,ls),
(631,685,o),
(622,700,o),
(601,700,cs),
(120,700,ls),
(94,700,o),
(83,688,o),
(83,660,cs),
(83,40,ls),
(83,12,o),
(94,0,o),
(120,0,cs)
);
}
);
width = 678;
},
{
anchors = (
{
name = bottom;
pos = (392,0);
},
{
name = ogonek;
pos = (624,0);
},
{
name = top;
pos = (388,700);
}
);
background = {
shapes = (
{
closed = 1;
nodes = (
(571,0,ls),
(587,0,o),
(595,9,o),
(595,30,cs),
(595,46,ls),
(595,67,o),
(587,76,o),
(571,76,cs),
(223,76,l),
(223,320,l),
(533,320,ls),
(550,320,o),
(557,329,o),
(557,350,cs),
(557,366,ls),
(557,387,o),
(550,396,o),
(533,396,cs),
(223,396,l),
(223,624,l),
(569,624,ls),
(586,624,o),
(593,633,o),
(593,654,cs),
(593,670,ls),
(593,691,o),
(586,700,o),
(569,700,cs),
(152,700,ls),
(125,700,o),
(115,691,o),
(115,670,cs),
(115,30,ls),
(115,9,o),
(125,0,o),
(152,0,cs)
);
}
);
};
layerId = "8ED31224-68B7-412A-B4C3-E53F784CF4E5";
shapes = (
{
closed = 1;
nodes = (
(604,0,ls),
(618,0,o),
(624,9,o),
(624,30,cs),
(624,46,ls),
(624,67,o),
(618,76,o),
(604,76,cs),
(205,76,l),
(205,320,l),
(573,320,ls),
(587,320,o),
(593,329,o),
(593,350,cs),
(593,366,ls),
(593,387,o),
(587,396,o),
(573,396,cs),
(205,396,l),
(205,624,l),
(603,624,ls),
(617,624,o),
(623,633,o),
(623,654,cs),
(623,670,ls),
(623,691,o),
(617,700,o),
(603,700,cs),
(146,700,ls),
(124,700,o),
(115,691,o),
(115,670,cs),
(115,30,ls),
(115,9,o),
(124,0,o),
(146,0,cs)
);
}
);
width = 678;
},
{
anchors = (
{
name = bottom;
pos = (400,0);
},
{
name = ogonek;
pos = (638,0);
},
{
name = top;
pos = (396,700);
}
);
background = {
shapes = (
{
closed = 1;
nodes = (
(576,0,ls),
(584,0,o),
(588,4,o),
(588,14,cs),
(588,22,ls),
(588,32,o),
(584,36,o),
(576,36,cs),
(180,36,l),
(180,340,l),
(545,340,ls),
(553,340,o),
(557,344,o),
(557,354,cs),
(557,362,ls),
(557,372,o),
(553,376,o),
(545,376,cs),
(180,376,l),
(180,664,l),
(575,664,ls),
(583,664,o),
(587,668,o),
(587,678,cs),
(587,686,ls),
(587,696,o),
(583,700,o),
(575,700,cs),
(156,700,ls),
(145,700,o),
(140,696,o),
(140,686,cs),
(140,14,ls),
(140,4,o),
(145,0,o),
(156,0,cs)
);
}
);
};
layerId = "79DB91E0-15EF-4446-816D-FE9384315D55";
shapes = (
{
closed = 1;
nodes = (
(626,0,ls),
(634,0,o),
(638,4,o),
(638,14,cs),
(638,22,ls),
(638,32,o),
(634,36,o),
(626,36,cs),
(180,36,l),
(180,340,l),
(596,340,ls),
(604,340,o),
(608,344,o),
(608,354,cs),
(608,362,ls),
(608,372,o),
(604,376,o),
(596,376,cs),
(180,376,l),
(180,664,l),
(626,664,ls),
(634,664,o),
(638,668,o),
(638,678,cs),
(638,686,ls),
(638,696,o),
(634,700,o),
(626,700,cs),
(156,700,ls),
(145,700,o),
(140,696,o),
(140,686,cs),
(140,14,ls),
(140,4,o),
(145,0,o),
(156,0,cs)
);
}
);
width = 678;
}
);
unicode = 69;
userData = {
RMXScaler = {
source = E;
};
};
},
{
glyphname = Ecircumflexacute;
kernLeft = H;
kernRight = E;
layers = (
{
layerId = UUID0;
shapes = (
{
ref = E;
},
{
pos = (172,0);
ref = circumflexcomb.case;
},
{
pos = (216,137);
ref = acutecomb.case;
}
);
width = 546;
},
{
layerId = "2C16E7AF-C861-4509-900A-75D3055B0FF7";
shapes = (
{
ref = E;
},
{
pos = (132,0);
ref = circumflexcomb.case;
},
{
pos = (187,142);
ref = acutecomb.case;
}
);
width = 546;
},
{
background = {
shapes = (
{
closed = 1;
nodes = (
(352,849,o),
(362,855,o),
(371,867,cs),
(432,955,o),
(440,963,o),
(440,973,cs),
(440,983,o),
(431,986,o),
(409,986,cs),
(385,986,o),
(364,979,o),
(355,960,cs),
(321,887,o),
(312,868,o),
(312,859,cs),
(312,852,o),
(319,849,o),
(335,849,cs)
);
},
{
closed = 1;
nodes = (
(173,753,l),
(183,753,o),
(192,754,o),
(199,766,c),
(237,840,l),
(277,766,ls),
(282,757,o),
(293,753,o),
(302,753,c),
(322,753,l),
(334,753,o),
(341,759,o),
(341,768,cs),
(341,773,o),
(338,779,o),
(334,785,cs),
(287,873,ls),
(278,888,o),
(265,895,o),
(246,895,cs),
(230,895,ls),
(212,895,o),
(197,888,o),
(188,873,cs),
(140,785,ls),
(138,779,o),
(135,771,o),
(135,766,cs),
(135,759,o),
(142,753,o),
(154,753,c)
);
}
);
};
layerId = "76F17502-367F-435E-B23E-ED9D928E777B";
shapes = (
{
ref = E;
},
{
pos = (146,0);
ref = circumflexcomb.case;
},
{
pos = (198,137);
ref = acutecomb.case;
}
);
width = 426;
},
{
background = {
shapes = (
{
closed = 1;
nodes = (
(380,853,o),
(392,860,o),
(400,868,cs),
(461,942,o),
(474,958,o),
(474,968,cs),
(474,987,o),
(460,992,o),
(434,992,cs),
(399,992,o),
(370,986,o),
(359,965,cs),
(334,898,o),
(324,877,o),
(324,868,cs),
(324,857,o),
(329,853,o),
(345,853,cs)
);
},
{
closed = 1;
nodes = (
(170,749,ls),
(190,749,o),
(211,751,o),
(220,768,cs),
(240,813,l),
(260,767,ls),
(267,755,o),
(285,749,o),
(311,749,cs),
(339,749,ls),
(351,749,o),
(359,752,o),
(359,759,cs),
(359,763,o),
(357,768,o),
(354,774,cs),
(298,876,ls),
(288,894,o),
(268,895,o),
(241,895,cs),
(239,895,ls),
(213,895,o),
(192,894,o),
(182,876,cs),
(127,774,ls),
(124,768,o),
(122,764,o),
(122,759,cs),
(122,751,o),
(127,749,o),
(143,749,c)
);
}
);
};
layerId = "6662946B-F990-402F-A6FD-22D24AB84B33";
shapes = (
{
ref = E;
},
{
pos = (92,0);
ref = circumflexcomb.case;
},
{
pos = (154,142);
ref = acutecomb.case;
}
);
width = 426;
},
{
background = {
shapes = (
{
closed = 1;
nodes = (
(352,849,o),
(362,855,o),
(371,867,cs),
(432,955,o),
(440,963,o),
(440,973,cs),
(440,983,o),
(431,986,o),
(409,986,cs),
(385,986,o),
(364,979,o),
(355,960,cs),
(321,887,o),
(312,868,o),
(312,859,cs),
(312,852,o),
(319,849,o),
(335,849,cs)
);
},
{
closed = 1;
nodes = (
(173,753,l),
(183,753,o),
(192,754,o),
(199,766,c),
(237,840,l),
(277,766,ls),
(282,757,o),
(293,753,o),
(302,753,c),
(322,753,l),
(334,753,o),
(341,759,o),
(341,768,cs),
(341,773,o),
(338,779,o),
(334,785,cs),
(287,873,ls),
(278,888,o),
(265,895,o),
(246,895,cs),
(230,895,ls),
(212,895,o),
(197,888,o),
(188,873,cs),
(140,785,ls),
(138,779,o),
(135,771,o),
(135,766,cs),
(135,759,o),
(142,753,o),
(154,753,c)
);
}
);
};
layerId = "534F5340-05B5-45BC-BA3B-B28DD92592EB";
shapes = (
{
ref = E;
},
{
pos = (154,0);
ref = circumflexcomb.case;
},
{
pos = (211,137);
ref = acutecomb.case;
}
);
width = 426;
},
{
layerId = "84AA6C20-0662-4373-B7CF-A8F69217EDA9";
shapes = (
{
ref = E;
},
{
pos = (217,0);
ref = circumflexcomb.case;
},
{
pos = (257,137);
ref = acutecomb.case;
}
);
width = 546;
},
{
background = {
shapes = (
{
closed = 1;
nodes = (
(380,853,o),
(392,860,o),
(400,868,cs),
(461,942,o),
(474,958,o),
(474,968,cs),
(474,987,o),
(460,992,o),
(434,992,cs),
(399,992,o),
(370,986,o),
(359,965,cs),
(334,898,o),
(324,877,o),
(324,868,cs),
(324,857,o),
(329,853,o),
(345,853,cs)
);
},
{
closed = 1;
nodes = (
(170,749,ls),
(190,749,o),
(211,751,o),
(220,768,cs),
(240,813,l),
(260,767,ls),
(267,755,o),
(285,749,o),
(311,749,cs),
(339,749,ls),
(351,749,o),
(359,752,o),
(359,759,cs),
(359,763,o),
(357,768,o),
(354,774,cs),
(298,876,ls),
(288,894,o),
(268,895,o),
(241,895,cs),
(239,895,ls),
(213,895,o),
(192,894,o),
(182,876,cs),
(127,774,ls),
(124,768,o),
(122,764,o),
(122,759,cs),
(122,751,o),
(127,749,o),
(143,749,c)
);
}
);
};
layerId = "A5A92505-053D-4D0C-ACDC-6F8463E28DE4";
shapes = (
{
ref = E;
},
{
pos = (92,0);
ref = circumflexcomb.case;
},
{
pos = (137,142);
ref = acutecomb.case;
}
);
width = 426;
},
{
layerId = "ACEF5F79-87A6-4D8B-B169-2BFCF1568BF8";
shapes = (
{
ref = E;
},
{
pos = (138,0);
ref = circumflexcomb.case;
},
{
pos = (192,142);
ref = acutecomb.case;
}
);
width = 546;
},
{
layerId = "2EA36C28-4342-4323-91EA-7DB25AD3237F";
shapes = (
{
ref = E;
},
{
pos = (179,0);
ref = circumflexcomb.case;
},
{
pos = (240,142);
ref = acutecomb.case;
}
);
width = 678;
},
{
layerId = "D9F64F14-09E8-47AC-ADF7-F859BCC4D5F5";
shapes = (
{
alignment = -1;
ref = E;
},
{
alignment = -1;
pos = (169,0);
ref = circumflexcomb.case;
},
{
alignment = -1;
pos = (244,142);
ref = acutecomb.case;
}
);
width = 638;
},
{
layerId = "8ED31224-68B7-412A-B4C3-E53F784CF4E5";
shapes = (
{
alignment = -1;
ref = E;
},
{
alignment = -1;
pos = (218,0);
ref = circumflexcomb.case;
},
{
alignment = -1;
pos = (282,137);
ref = acutecomb.case;
}
);
width = 638;
},
{
layerId = "79DB91E0-15EF-4446-816D-FE9384315D55";
shapes = (
{
alignment = -1;
ref = E;
},
{
alignment = -1;
pos = (266,0);
ref = circumflexcomb.case;
},
{
alignment = -1;
pos = (305,137);
ref = acutecomb.case;
}
);
width = 638;
}
);
unicode = 7870;
},
{
glyphname = Ecircumflexgrave;
kernLeft = H;
kernRight = E;
layers = (
{
layerId = UUID0;
shapes = (
{
ref = E;
},
{
pos = (172,0);
ref = circumflexcomb.case;
},
{
pos = (194,137);
ref = gravecomb.case;
}
);
width = 546;
},
{
layerId = "2C16E7AF-C861-4509-900A-75D3055B0FF7";
shapes = (
{
ref = E;
},
{
pos = (132,0);
ref = circumflexcomb.case;
},
{
pos = (147,142);
ref = gravecomb.case;
}
);
width = 546;
},
{
background = {
shapes = (
{
closed = 1;
nodes = (
(384,849,o),
(391,852,o),
(391,859,cs),
(391,868,o),
(384,887,o),
(353,960,cs),
(345,979,o),
(323,986,o),
(301,986,cs),
(276,986,o),
(268,983,o),
(268,973,cs),
(268,963,o),
(276,955,o),
(332,867,cs),
(341,855,o),
(353,849,o),
(368,849,cs)
);
},
{
closed = 1;
nodes = (
(173,753,l),
(183,753,o),
(192,754,o),
(199,766,c),
(237,840,l),
(277,766,ls),
(282,757,o),
(293,753,o),
(302,753,c),
(322,753,l),
(334,753,o),
(341,759,o),
(341,768,cs),
(341,773,o),
(338,779,o),
(334,785,cs),
(287,873,ls),
(278,888,o),
(265,895,o),
(246,895,cs),
(230,895,ls),
(212,895,o),
(197,888,o),
(188,873,cs),
(140,785,ls),
(138,779,o),
(135,771,o),
(135,766,cs),
(135,759,o),
(142,753,o),
(154,753,c)
);
}
);
};
layerId = "76F17502-367F-435E-B23E-ED9D928E777B";
shapes = (
{
ref = E;
},
{
pos = (146,0);
ref = circumflexcomb.case;
},
{
pos = (174,137);
ref = gravecomb.case;
}
);
width = 426;
},
{
background = {
shapes = (
{
closed = 1;
nodes = (
(416,853,o),
(422,857,o),
(422,868,cs),
(422,877,o),
(413,899,o),
(388,965,cs),
(378,986,o),
(346,992,o),
(309,992,cs),
(281,992,o),
(266,988,o),
(266,972,cs),
(266,962,o),
(275,952,o),
(339,872,cs),
(348,862,o),
(361,853,o),
(397,853,cs)
);
},
{
closed = 1;
nodes = (
(170,749,ls),
(190,749,o),
(211,751,o),
(220,768,cs),
(240,813,l),
(260,767,ls),
(267,755,o),
(285,749,o),
(311,749,cs),
(339,749,ls),
(351,749,o),
(359,752,o),
(359,759,cs),
(359,763,o),
(357,768,o),
(354,774,cs),
(298,876,ls),
(288,894,o),
(268,895,o),
(241,895,cs),
(239,895,ls),
(213,895,o),
(192,894,o),
(182,876,cs),
(127,774,ls),
(124,768,o),
(122,764,o),
(122,759,cs),
(122,751,o),
(127,749,o),
(143,749,c)
);
}
);
};
layerId = "6662946B-F990-402F-A6FD-22D24AB84B33";
shapes = (
{
ref = E;
},
{
pos = (92,0);
ref = circumflexcomb.case;
},
{
pos = (103,142);
ref = gravecomb.case;
}
);
width = 426;
},
{
background = {
shapes = (
{
closed = 1;
nodes = (
(384,849,o),
(391,852,o),
(391,859,cs),
(391,868,o),
(384,887,o),
(353,960,cs),
(345,979,o),
(323,986,o),
(301,986,cs),
(276,986,o),
(268,983,o),
(268,973,cs),
(268,963,o),
(276,955,o),
(332,867,cs),
(341,855,o),
(353,849,o),
(368,849,cs)
);
},
{
closed = 1;
nodes = (
(173,753,l),
(183,753,o),
(192,754,o),
(199,766,c),
(237,840,l),
(277,766,ls),
(282,757,o),
(293,753,o),
(302,753,c),
(322,753,l),
(334,753,o),
(341,759,o),
(341,768,cs),
(341,773,o),
(338,779,o),
(334,785,cs),
(287,873,ls),
(278,888,o),
(265,895,o),
(246,895,cs),
(230,895,ls),
(212,895,o),
(197,888,o),
(188,873,cs),
(140,785,ls),
(138,779,o),
(135,771,o),
(135,766,cs),
(135,759,o),
(142,753,o),
(154,753,c)
);
}
);
};
layerId = "534F5340-05B5-45BC-BA3B-B28DD92592EB";
shapes = (
{
ref = E;
},
{
pos = (154,0);
ref = circumflexcomb.case;
},
{
pos = (176,137);
ref = gravecomb.case;
}
);
width = 426;
},
{
layerId = "84AA6C20-0662-4373-B7CF-A8F69217EDA9";
shapes = (
{
ref = E;
},
{
pos = (217,0);
ref = circumflexcomb.case;
},
{
pos = (237,137);
ref = gravecomb.case;
}
);
width = 546;
},
{
background = {
shapes = (
{
closed = 1;
nodes = (
(416,853,o),
(422,857,o),
(422,868,cs),
(422,877,o),
(413,899,o),
(388,965,cs),
(378,986,o),
(346,992,o),
(309,992,cs),
(281,992,o),
(266,988,o),
(266,972,cs),
(266,962,o),
(275,952,o),
(339,872,cs),
(348,862,o),
(361,853,o),
(397,853,cs)
);
},
{
closed = 1;
nodes = (
(170,749,ls),
(190,749,o),
(211,751,o),
(220,768,cs),
(240,813,l),
(260,767,ls),
(267,755,o),
(285,749,o),
(311,749,cs),
(339,749,ls),
(351,749,o),
(359,752,o),
(359,759,cs),
(359,763,o),
(357,768,o),
(354,774,cs),
(298,876,ls),
(288,894,o),
(268,895,o),
(241,895,cs),
(239,895,ls),
(213,895,o),
(192,894,o),
(182,876,cs),
(127,774,ls),
(124,768,o),
(122,764,o),
(122,759,cs),
(122,751,o),
(127,749,o),
(143,749,c)
);
}
);
};
layerId = "A5A92505-053D-4D0C-ACDC-6F8463E28DE4";
shapes = (
{
ref = E;
},
{
pos = (92,0);
ref = circumflexcomb.case;
},
{
pos = (88,142);
ref = gravecomb.case;
}
);
width = 426;
},
{
layerId = "ACEF5F79-87A6-4D8B-B169-2BFCF1568BF8";
shapes = (
{
ref = E;
},
{
pos = (138,0);
ref = circumflexcomb.case;
},
{
pos = (135,142);
ref = gravecomb.case;
}
);
width = 546;
},
{
layerId = "2EA36C28-4342-4323-91EA-7DB25AD3237F";
shapes = (
{
ref = E;
},
{
pos = (179,0);
ref = circumflexcomb.case;
},
{
pos = (182,142);
ref = gravecomb.case;
}
);
width = 678;
},
{
layerId = "D9F64F14-09E8-47AC-ADF7-F859BCC4D5F5";
shapes = (
{
alignment = -1;
ref = E;
},
{
alignment = -1;
pos = (169,0);
ref = circumflexcomb.case;
},
{
alignment = -1;
pos = (204,142);
ref = gravecomb.case;
}
);
width = 638;
},
{
layerId = "8ED31224-68B7-412A-B4C3-E53F784CF4E5";
shapes = (
{
alignment = -1;
ref = E;
},
{
alignment = -1;
pos = (218,0);
ref = circumflexcomb.case;
},
{
alignment = -1;
pos = (240,137);
ref = gravecomb.case;
}
);
width = 638;
},
{
layerId = "79DB91E0-15EF-4446-816D-FE9384315D55";
shapes = (
{
alignment = -1;
ref = E;
},
{
alignment = -1;
pos = (266,0);
ref = circumflexcomb.case;
},
{
alignment = -1;
pos = (274,137);
ref = gravecomb.case;
}
);
width = 638;
}
);
unicode = 7872;
},
{
glyphname = Ecircumflexhookabove;
kernLeft = H;
kernRight = E;
layers = (
{
layerId = UUID0;
shapes = (
{
ref = E;
},
{
pos = (172,0);
ref = circumflexcomb.case;
},
{
pos = (212,137);
ref = hookabovecomb.case;
}
);
width = 546;
},
{
layerId = "2C16E7AF-C861-4509-900A-75D3055B0FF7";
shapes = (
{
ref = E;
},
{
pos = (132,0);
ref = circumflexcomb.case;
},
{
pos = (183,142);
ref = hookabovecomb.case;
}
);
width = 546;
},
{
background = {
shapes = (
{
closed = 1;
nodes = (
(352,856,o),
(373,866,o),
(387,878,cs),
(404,892,o),
(422,911,o),
(422,942,cs),
(422,994,o),
(370,1010,o),
(336,1010,cs),
(301,1010,o),
(258,995,o),
(258,982,cs),
(258,972,o),
(274,949,o),
(282,949,cs),
(287,949,o),
(297,962,o),
(328,962,cs),
(348,962,o),
(365,953,o),
(365,935,cs),
(365,921,o),
(354,909,o),
(334,898,cs),
(318,889,o),
(309,884,o),
(309,876,cs),
(309,867,o),
(325,856,o),
(346,856,cs)
);
},
{
closed = 1;
nodes = (
(173,753,l),
(183,753,o),
(192,754,o),
(199,766,c),
(237,840,l),
(277,766,ls),
(282,757,o),
(293,753,o),
(302,753,c),
(322,753,l),
(334,753,o),
(341,759,o),
(341,768,cs),
(341,773,o),
(338,779,o),
(334,785,cs),
(287,873,ls),
(278,888,o),
(265,895,o),
(246,895,cs),
(230,895,ls),
(212,895,o),
(197,888,o),
(188,873,cs),
(140,785,ls),
(138,779,o),
(135,771,o),
(135,766,cs),
(135,759,o),
(142,753,o),
(154,753,c)
);
}
);
};
layerId = "76F17502-367F-435E-B23E-ED9D928E777B";
shapes = (
{
ref = E;
},
{
pos = (146,0);
ref = circumflexcomb.case;
},
{
pos = (174,137);
ref = hookabovecomb.case;
}
);
width = 426;
},
{
background = {
anchors = (
{
name = _top;
pos = (365,834);
},
{
name = tilde;
pos = (242,953);
},
{
name = top;
pos = (365,834);
}
);
shapes = (
{
closed = 1;
nodes = (
(386,861,o),
(408,875,o),
(418,883,cs),
(438,899,o),
(444,914,o),
(444,930,cs),
(444,970,o),
(409,996,o),
(351,996,cs),
(316,996,o),
(271,981,o),
(271,968,cs),
(271,953,o),
(293,926,o),
(301,926,cs),
(310,926,o),
(321,943,o),
(354,943,cs),
(364,943,o),
(375,937,o),
(375,926,cs),
(375,912,o),
(363,907,o),
(344,898,cs),
(334,893,o),
(325,886,o),
(325,882,cs),
(325,871,o),
(342,861,o),
(369,861,cs)
);
},
{
closed = 1;
nodes = (
(170,749,ls),
(190,749,o),
(211,751,o),
(220,768,cs),
(240,813,l),
(260,767,ls),
(267,755,o),
(285,749,o),
(311,749,cs),
(339,749,ls),
(351,749,o),
(359,752,o),
(359,759,cs),
(359,763,o),
(357,768,o),
(354,774,cs),
(298,876,ls),
(288,894,o),
(268,895,o),
(241,895,cs),
(239,895,ls),
(213,895,o),
(192,894,o),
(182,876,cs),
(127,774,ls),
(124,768,o),
(122,764,o),
(122,759,cs),
(122,751,o),
(127,749,o),
(143,749,c)
);
},
{
ref = E;
}
);
};
layerId = "6662946B-F990-402F-A6FD-22D24AB84B33";
shapes = (
{
ref = E;
},
{
pos = (92,0);
ref = circumflexcomb.case;
},
{
pos = (140,142);
ref = hookabovecomb.case;
}
);
width = 426;
},
{
background = {
shapes = (
{
closed = 1;
nodes = (
(352,856,o),
(373,866,o),
(387,878,cs),
(404,892,o),
(422,911,o),
(422,942,cs),
(422,994,o),
(370,1010,o),
(336,1010,cs),
(301,1010,o),
(258,995,o),
(258,982,cs),
(258,972,o),
(274,949,o),
(282,949,cs),
(287,949,o),
(297,962,o),
(328,962,cs),
(348,962,o),
(365,953,o),
(365,935,cs),
(365,921,o),
(354,909,o),
(334,898,cs),
(318,889,o),
(309,884,o),
(309,876,cs),
(309,867,o),
(325,856,o),
(346,856,cs)
);
},
{
closed = 1;
nodes = (
(173,753,l),
(183,753,o),
(192,754,o),
(199,766,c),
(237,840,l),
(277,766,ls),
(282,757,o),
(293,753,o),
(302,753,c),
(322,753,l),
(334,753,o),
(341,759,o),
(341,768,cs),
(341,773,o),
(338,779,o),
(334,785,cs),
(287,873,ls),
(278,888,o),
(265,895,o),
(246,895,cs),
(230,895,ls),
(212,895,o),
(197,888,o),
(188,873,cs),
(140,785,ls),
(138,779,o),
(135,771,o),
(135,766,cs),
(135,759,o),
(142,753,o),
(154,753,c)
);
}
);
};
layerId = "534F5340-05B5-45BC-BA3B-B28DD92592EB";
shapes = (
{
ref = E;
},
{
pos = (154,0);
ref = circumflexcomb.case;
},
{
pos = (169,137);
ref = hookabovecomb.case;
}
);
width = 426;
},
{
layerId = "84AA6C20-0662-4373-B7CF-A8F69217EDA9";
shapes = (
{
ref = E;
},
{
pos = (217,0);
ref = circumflexcomb.case;
},
{
pos = (227,137);
ref = hookabovecomb.case;
}
);
width = 546;
},
{
background = {
anchors = (
{
name = _top;
pos = (365,834);
},
{
name = tilde;
pos = (242,953);
},
{
name = top;
pos = (365,834);
}
);
shapes = (
{
closed = 1;
nodes = (
(386,861,o),
(408,875,o),
(418,883,cs),
(438,899,o),
(444,914,o),
(444,930,cs),
(444,970,o),
(409,996,o),
(351,996,cs),
(316,996,o),
(271,981,o),
(271,968,cs),
(271,953,o),
(293,926,o),
(301,926,cs),
(310,926,o),
(321,943,o),
(354,943,cs),
(364,943,o),
(375,937,o),
(375,926,cs),
(375,912,o),
(363,907,o),
(344,898,cs),
(334,893,o),
(325,886,o),
(325,882,cs),
(325,871,o),
(342,861,o),
(369,861,cs)
);
},
{
closed = 1;
nodes = (
(170,749,ls),
(190,749,o),
(211,751,o),
(220,768,cs),
(240,813,l),
(260,767,ls),
(267,755,o),
(285,749,o),
(311,749,cs),
(339,749,ls),
(351,749,o),
(359,752,o),
(359,759,cs),
(359,763,o),
(357,768,o),
(354,774,cs),
(298,876,ls),
(288,894,o),
(268,895,o),
(241,895,cs),
(239,895,ls),
(213,895,o),
(192,894,o),
(182,876,cs),
(127,774,ls),
(124,768,o),
(122,764,o),
(122,759,cs),
(122,751,o),
(127,749,o),
(143,749,c)
);
},
{
ref = E;
}
);
};
layerId = "A5A92505-053D-4D0C-ACDC-6F8463E28DE4";
shapes = (
{
ref = E;
},
{
pos = (92,0);
ref = circumflexcomb.case;
},
{
pos = (138,142);
ref = hookabovecomb.case;
}
);
width = 426;
},
{
layerId = "ACEF5F79-87A6-4D8B-B169-2BFCF1568BF8";
shapes = (
{
ref = E;
},
{
pos = (138,0);
ref = circumflexcomb.case;
},
{
pos = (188,142);
ref = hookabovecomb.case;
}
);
width = 546;
},
{
layerId = "2EA36C28-4342-4323-91EA-7DB25AD3237F";
shapes = (
{
ref = E;
},
{
pos = (179,0);
ref = circumflexcomb.case;
},
{
pos = (239,142);
ref = hookabovecomb.case;
}
);
width = 678;
},
{
layerId = "D9F64F14-09E8-47AC-ADF7-F859BCC4D5F5";
shapes = (
{
alignment = -1;
ref = E;
},
{
alignment = -1;
pos = (169,0);
ref = circumflexcomb.case;
},
{
alignment = -1;
pos = (230,142);
ref = hookabovecomb.case;
}
);
width = 638;
},
{
layerId = "8ED31224-68B7-412A-B4C3-E53F784CF4E5";
shapes = (
{
alignment = -1;
ref = E;
},
{
alignment = -1;
pos = (218,0);
ref = circumflexcomb.case;
},
{
alignment = -1;
pos = (268,137);
ref = hookabovecomb.case;
}
);
width = 638;
},
{
layerId = "79DB91E0-15EF-4446-816D-FE9384315D55";
shapes = (
{
alignment = -1;
ref = E;
},
{
alignment = -1;
pos = (266,0);
ref = circumflexcomb.case;
},
{
alignment = -1;
pos = (276,137);
ref = hookabovecomb.case;
}
);
width = 638;
}
);
unicode = 7874;
},
{
glyphname = Ecircumflextilde;
kernLeft = H;
kernRight = E;
layers = (
{
layerId = UUID0;
shapes = (
{
ref = E;
},
{
pos = (172,0);
ref = circumflexcomb.case;
},
{
pos = (132,137);
ref = tildecomb.case;
}
);
width = 546;
},
{
layerId = "2C16E7AF-C861-4509-900A-75D3055B0FF7";
shapes = (
{
ref = E;
},
{
pos = (132,0);
ref = circumflexcomb.case;
},
{
pos = (94,142);
ref = tildecomb.case;
}
);
width = 546;
},
{
background = {
anchors = (
{
name = _top;
pos = (240,834);
},
{
name = tilde;
pos = (239,887);
}
);
shapes = (
{
closed = 1;
nodes = (
(126,902,o),
(129,901,o),
(132,901,cs),
(138,901,o),
(142,905,o),
(148,915,cs),
(160,935,o),
(168,942,o),
(181,942,cs),
(212,942,o),
(258,902,o),
(299,902,cs),
(331,902,o),
(355,920,o),
(374,970,cs),
(376,976,o),
(377,980,o),
(377,984,cs),
(377,990,o),
(374,992,o),
(366,996,cs),
(360,999,ls),
(356,1001,o),
(353,1002,o),
(350,1002,cs),
(344,1002,o),
(338,998,o),
(332,987,cs),
(321,968,o),
(312,961,o),
(298,961,cs),
(266,961,o),
(221,1001,o),
(182,1001,cs),
(149,1001,o),
(125,983,o),
(107,932,cs),
(105,927,o),
(104,923,o),
(104,919,cs),
(104,914,o),
(107,910,o),
(113,907,cs),
(122,903,ls)
);
},
{
closed = 1;
nodes = (
(173,753,ls),
(186,753,o),
(195,758,o),
(200,766,cs),
(238,824,l),
(277,766,ls),
(283,758,o),
(291,753,o),
(303,753,cs),
(322,753,ls),
(334,753,o),
(342,759,o),
(342,767,cs),
(342,771,o),
(339,777,o),
(334,785,cs),
(289,851,ls),
(279,865,o),
(265,873,o),
(246,873,cs),
(230,873,ls),
(211,873,o),
(199,865,o),
(188,851,cs),
(143,785,ls),
(138,777,o),
(136,771,o),
(136,767,cs),
(136,758,o),
(142,753,o),
(155,753,cs)
);
},
{
ref = E;
}
);
};
layerId = "76F17502-367F-435E-B23E-ED9D928E777B";
shapes = (
{
ref = E;
},
{
pos = (146,0);
ref = circumflexcomb.case;
},
{
pos = (94,137);
ref = tildecomb.case;
}
);
width = 426;
},
{
background = {
shapes = (
{
closed = 1;
nodes = (
(132,890,o),
(136,889,o),
(140,889,cs),
(151,889,o),
(158,895,o),
(165,906,cs),
(175,921,o),
(183,922,o),
(188,922,cs),
(213,922,o),
(264,893,o),
(294,893,cs),
(334,893,o),
(364,926,o),
(377,963,cs),
(378,967,o),
(379,972,o),
(379,978,cs),
(379,989,o),
(374,999,o),
(359,1004,cs),
(349,1007,ls),
(345,1008,o),
(341,1009,o),
(337,1009,cs),
(325,1009,o),
(318,1003,o),
(312,992,cs),
(301,978,o),
(294,976,o),
(288,976,cs),
(264,977,o),
(214,1005,o),
(183,1005,cs),
(142,1005,o),
(113,974,o),
(101,937,cs),
(98,930,o),
(97,924,o),
(97,920,cs),
(97,911,o),
(102,899,o),
(118,894,cs),
(128,891,ls)
);
},
{
closed = 1;
nodes = (
(170,749,ls),
(198,749,o),
(206,754,o),
(219,768,cs),
(241,807,l),
(262,767,ls),
(273,754,o),
(282,749,o),
(311,749,cs),
(339,749,ls),
(352,749,o),
(359,753,o),
(359,759,cs),
(359,762,o),
(355,773,o),
(350,780,cs),
(299,854,ls),
(288,869,o),
(274,873,o),
(242,873,cs),
(240,873,ls),
(208,873,o),
(193,869,o),
(182,854,cs),
(131,780,ls),
(127,773,o),
(122,762,o),
(122,759,cs),
(122,751,o),
(128,749,o),
(143,749,cs)
);
}
);
};
layerId = "6662946B-F990-402F-A6FD-22D24AB84B33";
shapes = (
{
ref = E;
},
{
pos = (92,0);
ref = circumflexcomb.case;
},
{
pos = (51,142);
ref = tildecomb.case;
}
);
width = 426;
},
{
background = {
anchors = (
{
name = _top;
pos = (240,834);
},
{
name = tilde;
pos = (239,887);
}
);
shapes = (
{
closed = 1;
nodes = (
(126,902,o),
(129,901,o),
(132,901,cs),
(138,901,o),
(142,905,o),
(148,915,cs),
(160,935,o),
(168,942,o),
(181,942,cs),
(212,942,o),
(258,902,o),
(299,902,cs),
(331,902,o),
(355,920,o),
(374,970,cs),
(376,976,o),
(377,980,o),
(377,984,cs),
(377,990,o),
(374,992,o),
(366,996,cs),
(360,999,ls),
(356,1001,o),
(353,1002,o),
(350,1002,cs),
(344,1002,o),
(338,998,o),
(332,987,cs),
(321,968,o),
(312,961,o),
(298,961,cs),
(266,961,o),
(221,1001,o),
(182,1001,cs),
(149,1001,o),
(125,983,o),
(107,932,cs),
(105,927,o),
(104,923,o),
(104,919,cs),
(104,914,o),
(107,910,o),
(113,907,cs),
(122,903,ls)
);
},
{
closed = 1;
nodes = (
(173,753,ls),
(186,753,o),
(195,758,o),
(200,766,cs),
(238,824,l),
(277,766,ls),
(283,758,o),
(291,753,o),
(303,753,cs),
(322,753,ls),
(334,753,o),
(342,759,o),
(342,767,cs),
(342,771,o),
(339,777,o),
(334,785,cs),
(289,851,ls),
(279,865,o),
(265,873,o),
(246,873,cs),
(230,873,ls),
(211,873,o),
(199,865,o),
(188,851,cs),
(143,785,ls),
(138,777,o),
(136,771,o),
(136,767,cs),
(136,758,o),
(142,753,o),
(155,753,cs)
);
},
{
ref = E;
}
);
};
layerId = "534F5340-05B5-45BC-BA3B-B28DD92592EB";
shapes = (
{
ref = E;
},
{
pos = (154,0);
ref = circumflexcomb.case;
},
{
pos = (116,137);
ref = tildecomb.case;
}
);
width = 426;
},
{
layerId = "84AA6C20-0662-4373-B7CF-A8F69217EDA9";
shapes = (
{
ref = E;
},
{
pos = (217,0);
ref = circumflexcomb.case;
},
{
pos = (174,137);
ref = tildecomb.case;
}
);
width = 546;
},
{
background = {
shapes = (
{
closed = 1;
nodes = (
(132,890,o),
(136,889,o),
(140,889,cs),
(151,889,o),
(158,895,o),
(165,906,cs),
(175,921,o),
(183,922,o),
(188,922,cs),
(213,922,o),
(264,893,o),
(294,893,cs),
(334,893,o),
(364,926,o),
(377,963,cs),
(378,967,o),
(379,972,o),
(379,978,cs),
(379,989,o),
(374,999,o),
(359,1004,cs),
(349,1007,ls),
(345,1008,o),
(341,1009,o),
(337,1009,cs),
(325,1009,o),
(318,1003,o),
(312,992,cs),
(301,978,o),
(294,976,o),
(288,976,cs),
(264,977,o),
(214,1005,o),
(183,1005,cs),
(142,1005,o),
(113,974,o),
(101,937,cs),
(98,930,o),
(97,924,o),
(97,920,cs),
(97,911,o),
(102,899,o),
(118,894,cs),
(128,891,ls)
);
},
{
closed = 1;
nodes = (
(170,749,ls),
(198,749,o),
(206,754,o),
(219,768,cs),
(241,807,l),
(262,767,ls),
(273,754,o),
(282,749,o),
(311,749,cs),
(339,749,ls),
(352,749,o),
(359,753,o),
(359,759,cs),
(359,762,o),
(355,773,o),
(350,780,cs),
(299,854,ls),
(288,869,o),
(274,873,o),
(242,873,cs),
(240,873,ls),
(208,873,o),
(193,869,o),
(182,854,cs),
(131,780,ls),
(127,773,o),
(122,762,o),
(122,759,cs),
(122,751,o),
(128,749,o),
(143,749,cs)
);
}
);
};
layerId = "A5A92505-053D-4D0C-ACDC-6F8463E28DE4";
shapes = (
{
ref = E;
},
{
pos = (92,0);
ref = circumflexcomb.case;
},
{
pos = (41,142);
ref = tildecomb.case;
}
);
width = 426;
},
{
layerId = "ACEF5F79-87A6-4D8B-B169-2BFCF1568BF8";
shapes = (
{
ref = E;
},
{
pos = (138,0);
ref = circumflexcomb.case;
},
{
pos = (91,142);
ref = tildecomb.case;
}
);
width = 546;
},
{
layerId = "2EA36C28-4342-4323-91EA-7DB25AD3237F";
shapes = (
{
ref = E;
},
{
pos = (179,0);
ref = circumflexcomb.case;
},
{
pos = (142,142);
ref = tildecomb.case;
}
);
width = 678;
},
{
layerId = "D9F64F14-09E8-47AC-ADF7-F859BCC4D5F5";
shapes = (
{
alignment = -1;
ref = E;
},
{
alignment = -1;
pos = (169,0);
ref = circumflexcomb.case;
},
{
alignment = -1;
pos = (141,142);
ref = tildecomb.case;
}
);
width = 638;
},
{
layerId = "8ED31224-68B7-412A-B4C3-E53F784CF4E5";
shapes = (
{
alignment = -1;
ref = E;
},
{
alignment = -1;
pos = (218,0);
ref = circumflexcomb.case;
},
{
alignment = -1;
pos = (188,137);
ref = tildecomb.case;
}
);
width = 638;
},
{
layerId = "79DB91E0-15EF-4446-816D-FE9384315D55";
shapes = (
{
alignment = -1;
ref = E;
},
{
alignment = -1;
pos = (266,0);
ref = circumflexcomb.case;
},
{
alignment = -1;
pos = (223,137);
ref = tildecomb.case;
}
);
width = 638;
}
);
unicode = 7876;
},
{
glyphname = Schwa;
kernLeft = O;
kernRight = O;
layers = (
{
background = {
shapes = (
{
closed = 1;
nodes = (
(167,706,o),
(57,589,o),
(57,350,cs),
(57,106,o),
(160,-6,o),
(379,-6,cs),
(496,-6,o),
(586,39,o),
(586,66,cs),
(586,78,o),
(564,120,o),
(551,120,cs),
(538,120,o),
(482,70,o),
(379,70,cs),
(222,70,o),
(148,157,o),
(148,349,cs),
(148,546,o),
(223,630,o),
(383,630,cs),
(479,630,o),
(527,586,o),
(538,586,cs),
(551,586,o),
(572,627,o),
(572,644,cs),
(572,671,o),
(480,706,o),
(381,706,cs)
);
}
);
};
layerId = UUID0;
shapes = (
{
closed = 1;
nodes = (
(509,-9,o),
(604,106,o),
(604,332,cs),
(604,580,o),
(511,706,o),
(315,706,cs),
(184,706,o),
(79,644,o),
(79,622,cs),
(79,611,o),
(100,572,o),
(114,572,cs),
(130,572,o),
(194,631,o),
(316,631,cs),
(440,631,o),
(509,541,o),
(514,363,c),
(98,363,ls),
(86,363,o),
(65,334,o),
(65,322,cs),
(65,103,o),
(149,-9,o),
(321,-9,cs)
);
},
{
closed = 1;
nodes = (
(209,63,o),
(154,137,o),
(154,291,c),
(514,291,l),
(507,137,o),
(441,63,o),
(324,63,cs)
);
}
);
width = 672;
},
{
background = {
shapes = (
{
closed = 1;
nodes = (
(147,708,o),
(35,590,o),
(35,352,cs),
(35,105,o),
(140,-8,o),
(364,-8,cs),
(444,-8,o),
(587,16,o),
(587,76,cs),
(587,93,o),
(560,163,o),
(528,163,cs),
(513,163,o),
(459,123,o),
(364,123,cs),
(249,123,o),
(193,201,o),
(193,351,cs),
(193,501,o),
(248,576,o),
(366,576,cs),
(461,576,o),
(501,544,o),
(513,544,cs),
(538,544,o),
(578,610,o),
(578,638,cs),
(578,680,o),
(457,708,o),
(369,708,cs)
);
}
);
};
layerId = "2C16E7AF-C861-4509-900A-75D3055B0FF7";
shapes = (
{
closed = 1;
nodes = (
(503,-1,o),
(627,93,o),
(627,332,cs),
(627,581,o),
(520,708,o),
(306,708,cs),
(206,708,o),
(76,670,o),
(76,629,cs),
(76,603,o),
(103,547,o),
(125,547,cs),
(144,547,o),
(211,587,o),
(296,587,cs),
(411,587,o),
(462,528,o),
(474,388,c),
(99,388,ls),
(86,388,o),
(48,337,o),
(48,317,cs),
(48,119,o),
(150,-1,o),
(324,-1,cs)
);
},
{
closed = 1;
nodes = (
(237,121,o),
(195,185,o),
(195,275,c),
(474,275,l),
(474,179,o),
(423,121,o),
(332,121,cs)
);
}
);
width = 672;
},
{
background = {
shapes = (
{
closed = 1;
nodes = (
(414,-9,o),
(495,89,o),
(495,340,cs),
(495,605,o),
(415,706,o),
(268,706,cs),
(162,706,o),
(65,660,o),
(65,633,cs),
(65,622,o),
(85,583,o),
(97,583,cs),
(112,583,o),
(169,634,o),
(259,634,cs),
(350,634,o),
(400,568,o),
(405,363,c),
(90,363,ls),
(80,363,o),
(58,334,o),
(58,322,cs),
(58,86,o),
(123,-9,o),
(264,-9,cs)
);
},
{
closed = 1;
nodes = (
(183,63,o),
(146,126,o),
(146,291,c),
(405,291,l),
(396,120,o),
(347,63,o),
(266,63,cs)
);
}
);
};
layerId = "76F17502-367F-435E-B23E-ED9D928E777B";
shapes = (
{
closed = 1;
nodes = (
(397,-9,o),
(479,106,o),
(479,332,cs),
(479,580,o),
(399,706,o),
(230,706,cs),
(121,706,o),
(34,644,o),
(34,622,cs),
(34,611,o),
(55,572,o),
(69,572,cs),
(85,572,o),
(133,631,o),
(231,631,cs),
(330,631,o),
(385,541,o),
(389,363,c),
(53,363,ls),
(41,363,o),
(20,334,o),
(20,322,cs),
(20,103,o),
(93,-9,o),
(236,-9,cs)
);
},
{
closed = 1;
nodes = (
(153,63,o),
(109,130,o),
(109,291,c),
(389,291,l),
(383,130,o),
(333,63,o),
(239,63,cs)
);
}
);
width = 520;
},
{
background = {
shapes = (
{
closed = 1;
nodes = (
(424,-1,o),
(516,94,o),
(516,331,cs),
(516,577,o),
(437,708,o),
(255,708,cs),
(178,708,o),
(50,677,o),
(50,623,cs),
(50,598,o),
(81,546,o),
(102,546,cs),
(120,546,o),
(170,585,o),
(248,585,cs),
(316,585,o),
(359,551,o),
(363,376,c),
(90,376,ls),
(77,376,o),
(39,334,o),
(39,317,cs),
(39,137,o),
(90,-1,o),
(271,-1,cs)
);
},
{
closed = 1;
nodes = (
(197,119,o),
(182,181,o),
(182,277,c),
(364,277,l),
(353,158,o),
(327,119,o),
(269,119,cs)
);
}
);
};
layerId = "6662946B-F990-402F-A6FD-22D24AB84B33";
shapes = (
{
closed = 1;
nodes = (
(405,-1,o),
(490,111,o),
(490,332,cs),
(490,581,o),
(399,708,o),
(219,708,cs),
(136,708,o),
(29,670,o),
(29,629,cs),
(29,603,o),
(56,547,o),
(78,547,cs),
(97,547,o),
(144,587,o),
(209,587,cs),
(292,587,o),
(329,528,o),
(337,386,c),
(62,386,ls),
(49,386,o),
(11,337,o),
(11,317,cs),
(11,106,o),
(87,-1,o),
(237,-1,cs)
);
},
{
closed = 1;
nodes = (
(184,116,o),
(158,164,o),
(158,277,c),
(337,277,l),
(337,164,o),
(310,116,o),
(245,116,cs)
);
}
);
width = 520;
},
{
layerId = "534F5340-05B5-45BC-BA3B-B28DD92592EB";
shapes = (
{
closed = 1;
nodes = (
(382,-9,o),
(453,106,o),
(453,332,cs),
(453,580,o),
(376,706,o),
(226,706,cs),
(130,706,o),
(53,646,o),
(53,632,cs),
(53,628,o),
(63,612,o),
(69,612,cs),
(85,612,o),
(131,668,o),
(225,668,cs),
(347,668,o),
(411,559,o),
(413,345,c),
(66,345,ls),
(58,345,o),
(44,327,o),
(44,319,cs),
(44,102,o),
(111,-9,o),
(242,-9,cs)
);
},
{
closed = 1;
nodes = (
(137,29,o),
(84,119,o),
(84,310,c),
(413,310,l),
(411,119,o),
(353,29,o),
(242,29,cs)
);
}
);
width = 520;
},
{
background = {
shapes = (
{
closed = 1;
nodes = (
(499,-9,o),
(594,106,o),
(594,332,cs),
(594,580,o),
(501,706,o),
(305,706,cs),
(174,706,o),
(69,644,o),
(69,622,cs),
(69,611,o),
(90,572,o),
(104,572,cs),
(120,572,o),
(184,631,o),
(306,631,cs),
(430,631,o),
(499,541,o),
(504,363,c),
(88,363,ls),
(76,363,o),
(55,334,o),
(55,322,cs),
(55,103,o),
(139,-9,o),
(311,-9,cs)
);
},
{
closed = 1;
nodes = (
(199,63,o),
(144,137,o),
(144,291,c),
(504,291,l),
(497,137,o),
(431,63,o),
(314,63,cs)
);
}
);
};
layerId = "84AA6C20-0662-4373-B7CF-A8F69217EDA9";
shapes = (
{
closed = 1;
nodes = (
(502,-9,o),
(590,106,o),
(590,332,cs),
(590,580,o),
(497,706,o),
(313,706,cs),
(195,706,o),
(100,646,o),
(100,632,cs),
(100,628,o),
(110,612,o),
(116,612,cs),
(132,612,o),
(194,668,o),
(312,668,cs),
(466,668,o),
(547,559,o),
(550,345,c),
(103,345,ls),
(95,345,o),
(81,327,o),
(81,319,cs),
(81,102,o),
(164,-9,o),
(329,-9,cs)
);
},
{
closed = 1;
nodes = (
(190,29,o),
(120,124,o),
(120,310,c),
(550,310,l),
(548,124,o),
(474,29,o),
(329,29,cs)
);
}
);
width = 672;
},
{
layerId = "A5A92505-053D-4D0C-ACDC-6F8463E28DE4";
shapes = (
{
closed = 1;
nodes = (
(417,-1,o),
(507,111,o),
(507,332,cs),
(507,581,o),
(410,708,o),
(221,708,cs),
(134,708,o),
(22,662,o),
(22,625,cs),
(22,588,o),
(61,515,o),
(83,515,cs),
(104,515,o),
(142,552,o),
(211,552,cs),
(286,552,o),
(320,509,o),
(325,406,c),
(61,406,ls),
(38,406,o),
(0,350,o),
(0,317,cs),
(0,106,o),
(80,-1,o),
(239,-1,cs)
);
},
{
closed = 1;
nodes = (
(196,151,o),
(174,188,o),
(174,277,c),
(325,277,l),
(325,188,o),
(302,151,o),
(247,151,cs)
);
}
);
width = 520;
},
{
background = {
shapes = (
{
closed = 1;
nodes = (
(487,-1,o),
(607,93,o),
(607,332,cs),
(607,581,o),
(503,708,o),
(296,708,cs),
(196,708,o),
(66,670,o),
(66,629,cs),
(66,603,o),
(93,547,o),
(115,547,cs),
(134,547,o),
(201,587,o),
(286,587,cs),
(395,587,o),
(443,528,o),
(454,386,c),
(99,386,ls),
(86,386,o),
(48,337,o),
(48,317,cs),
(48,119,o),
(146,-1,o),
(314,-1,cs)
);
},
{
closed = 1;
nodes = (
(234,116,o),
(195,183,o),
(195,277,c),
(454,277,l),
(457,177,o),
(407,116,o),
(322,116,cs)
);
}
);
};
layerId = "ACEF5F79-87A6-4D8B-B169-2BFCF1568BF8";
shapes = (
{
closed = 1;
nodes = (
(532,-1,o),
(642,111,o),
(642,332,cs),
(642,581,o),
(526,708,o),
(296,708,cs),
(188,708,o),
(47,662,o),
(47,625,cs),
(47,588,o),
(86,515,o),
(108,515,cs),
(128,515,o),
(186,552,o),
(286,552,cs),
(397,552,o),
(447,510,o),
(454,411,c),
(74,411,ls),
(51,411,o),
(13,352,o),
(13,317,cs),
(13,106,o),
(114,-1,o),
(314,-1,cs)
);
},
{
closed = 1;
nodes = (
(237,161,o),
(195,198,o),
(195,272,c),
(454,272,l),
(454,198,o),
(410,161,o),
(322,161,cs)
);
}
);
width = 672;
},
{
background = {
shapes = (
{
closed = 1;
nodes = (
(157,708,o),
(45,590,o),
(45,352,cs),
(45,105,o),
(150,-8,o),
(374,-8,cs),
(454,-8,o),
(597,16,o),
(597,76,cs),
(597,93,o),
(570,163,o),
(538,163,cs),
(523,163,o),
(469,123,o),
(374,123,cs),
(259,123,o),
(203,201,o),
(203,351,cs),
(203,501,o),
(258,576,o),
(376,576,cs),
(471,576,o),
(511,544,o),
(523,544,cs),
(548,544,o),
(588,610,o),
(588,638,cs),
(588,680,o),
(467,708,o),
(379,708,cs)
);
}
);
};
layerId = "2EA36C28-4342-4323-91EA-7DB25AD3237F";
shapes = (
{
closed = 1;
nodes = (
(609,-1,o),
(737,111,o),
(737,332,cs),
(737,581,o),
(603,708,o),
(341,708,cs),
(219,708,o),
(62,662,o),
(62,625,cs),
(62,588,o),
(101,515,o),
(123,515,cs),
(142,515,o),
(219,552,o),
(331,552,cs),
(469,552,o),
(532,510,o),
(543,411,c),
(69,411,ls),
(46,411,o),
(8,352,o),
(8,317,cs),
(8,106,o),
(127,-1,o),
(359,-1,cs)
);
},
{
closed = 1;
nodes = (
(254,161,o),
(196,198,o),
(196,272,c),
(543,272,l),
(543,198,o),
(483,161,o),
(367,161,cs)
);
}
);
width = 780;
},
{
background = {
shapes = (
{
closed = 1;
nodes = (
(157,708,o),
(45,590,o),
(45,352,cs),
(45,105,o),
(150,-8,o),
(374,-8,cs),
(454,-8,o),
(597,16,o),
(597,76,cs),
(597,93,o),
(570,163,o),
(538,163,cs),
(523,163,o),
(469,123,o),
(374,123,cs),
(259,123,o),
(203,201,o),
(203,351,cs),
(203,501,o),
(258,576,o),
(376,576,cs),
(471,576,o),
(511,544,o),
(523,544,cs),
(548,544,o),
(588,610,o),
(588,638,cs),
(588,680,o),
(467,708,o),
(379,708,cs)
);
}
);
};
layerId = "D9F64F14-09E8-47AC-ADF7-F859BCC4D5F5";
shapes = (
{
closed = 1;
nodes = (
(606,-1,o),
(732,111,o),
(732,332,cs),
(732,581,o),
(601,708,o),
(341,708,cs),
(219,708,o),
(61,670,o),
(61,629,cs),
(61,600,o),
(88,537,o),
(110,537,cs),
(129,537,o),
(221,577,o),
(331,577,cs),
(489,577,o),
(558,522,o),
(574,391,c),
(64,391,ls),
(51,391,o),
(13,338,o),
(13,317,cs),
(13,106,o),
(130,-1,o),
(359,-1,cs)
);
},
{
closed = 1;
nodes = (
(233,126,o),
(165,175,o),
(165,272,c),
(574,272,l),
(574,175,o),
(504,126,o),
(367,126,cs)
);
}
);
width = 780;
},
{
background = {
shapes = (
{
closed = 1;
nodes = (
(167,706,o),
(57,589,o),
(57,350,cs),
(57,106,o),
(160,-6,o),
(379,-6,cs),
(496,-6,o),
(586,39,o),
(586,66,cs),
(586,78,o),
(564,120,o),
(551,120,cs),
(538,120,o),
(482,70,o),
(379,70,cs),
(222,70,o),
(148,157,o),
(148,349,cs),
(148,546,o),
(223,630,o),
(383,630,cs),
(479,630,o),
(527,586,o),
(538,586,cs),
(551,586,o),
(572,627,o),
(572,644,cs),
(572,671,o),
(480,706,o),
(381,706,cs)
);
}
);
};
layerId = "8ED31224-68B7-412A-B4C3-E53F784CF4E5";
shapes = (
{
closed = 1;
nodes = (
(608,-9,o),
(730,106,o),
(730,332,cs),
(730,580,o),
(611,706,o),
(361,706,cs),
(202,706,o),
(75,644,o),
(75,622,cs),
(75,611,o),
(96,570,o),
(110,570,cs),
(126,570,o),
(210,629,o),
(362,629,cs),
(536,629,o),
(633,540,o),
(640,363,c),
(64,363,ls),
(52,363,o),
(31,334,o),
(31,322,cs),
(31,103,o),
(144,-9,o),
(367,-9,cs)
);
},
{
closed = 1;
nodes = (
(204,65,o),
(120,141,o),
(120,291,c),
(640,291,l),
(638,141,o),
(547,65,o),
(370,65,cs)
);
}
);
width = 780;
},
{
background = {
shapes = (
{
closed = 1;
nodes = (
(167,706,o),
(57,589,o),
(57,350,cs),
(57,106,o),
(160,-6,o),
(379,-6,cs),
(496,-6,o),
(586,39,o),
(586,66,cs),
(586,78,o),
(564,120,o),
(551,120,cs),
(538,120,o),
(482,70,o),
(379,70,cs),
(222,70,o),
(148,157,o),
(148,349,cs),
(148,546,o),
(223,630,o),
(383,630,cs),
(479,630,o),
(527,586,o),
(538,586,cs),
(551,586,o),
(572,627,o),
(572,644,cs),
(572,671,o),
(480,706,o),
(381,706,cs)
);
}
);
};
layerId = "79DB91E0-15EF-4446-816D-FE9384315D55";
shapes = (
{
closed = 1;
nodes = (
(610,-9,o),
(725,106,o),
(725,332,cs),
(725,580,o),
(605,706,o),
(368,706,cs),
(211,706,o),
(85,646,o),
(85,632,cs),
(85,628,o),
(95,612,o),
(101,612,cs),
(117,612,o),
(207,668,o),
(367,668,cs),
(573,668,o),
(681,559,o),
(685,345,c),
(78,345,ls),
(70,345,o),
(56,327,o),
(56,319,cs),
(56,102,o),
(166,-9,o),
(384,-9,cs)
);
},
{
closed = 1;
nodes = (
(192,29,o),
(95,124,o),
(95,310,c),
(685,310,l),
(682,124,o),
(581,29,o),
(384,29,cs)
);
}
);
width = 780;
}
);
unicode = 399;
userData = {
RMXScaler = {
source = Schwa;
};
};
},
{
glyphname = F;
kernLeft = H;
kernRight = F;
layers = (
{
anchors = (
{
name = bottom;
pos = (282,0);
},
{
name = top;
pos = (282,700);
}
);
background = {
shapes = (
{
closed = 1;
nodes = (
(185,-2,o),
(185,20,qs),
(185,300,l),
(424,300,ls),
(444,300,o),
(444,330,qs),
(444,346,ls),
(444,376,o),
(424,376,qs),
(185,376,l),
(185,624,l),
(442,624,ls),
(462,624,o),
(462,654,qs),
(462,670,ls),
(462,700,o),
(442,700,qs),
(127,700,ls),
(97,700,o),
(97,670,qs),
(97,20,ls),
(97,-2,o),
(137,-2,qs),
(145,-2,ls)
);
}
);
};
layerId = UUID0;
shapes = (
{
closed = 1;
nodes = (
(146,-2,ls),
(176,-2,o),
(187,6,o),
(187,20,cs),
(187,295,l),
(419,295,ls),
(433,295,o),
(439,304,o),
(439,325,cs),
(439,341,ls),
(439,362,o),
(433,371,o),
(419,371,cs),
(187,371,l),
(187,624,l),
(435,624,ls),
(448,624,o),
(454,633,o),
(454,654,cs),
(454,670,ls),
(454,691,o),
(448,700,o),
(435,700,cs),
(128,700,ls),
(106,700,o),
(97,691,o),
(97,670,cs),
(97,20,ls),
(97,6,o),
(108,-2,o),
(138,-2,cs)
);
}
);
width = 503;
},
{
anchors = (
{
name = bottom;
pos = (272,0);
},
{
name = top;
pos = (272,700);
}
);
background = {
shapes = (
{
closed = 1;
nodes = (
(230,-2,o),
(230,30,q),
(230,262,l),
(438,262,l),
(468,262,o),
(468,312,q),
(468,343,l),
(468,393,o),
(438,393,q),
(230,393,l),
(230,569,l),
(445,569,l),
(475,569,o),
(475,619,q),
(475,650,l),
(475,700,o),
(445,700,q),
(116,700,l),
(76,700,o),
(76,660,q),
(76,30,l),
(76,-2,o),
(136,-2,q),
(170,-2,l)
);
}
);
};
layerId = "2C16E7AF-C861-4509-900A-75D3055B0FF7";
shapes = (
{
closed = 1;
nodes = (
(160,-2,ls),
(202,-2,o),
(220,10,o),
(220,31,cs),
(220,263,l),
(414,263,ls),
(434,263,o),
(443,278,o),
(443,313,cs),
(443,344,ls),
(443,379,o),
(434,394,o),
(414,394,cs),
(220,394,l),
(220,569,l),
(423,569,ls),
(443,569,o),
(452,584,o),
(452,619,cs),
(452,650,ls),
(452,685,o),
(443,700,o),
(423,700,cs),
(102,700,ls),
(76,700,o),
(65,688,o),
(65,660,cs),
(65,31,ls),
(65,10,o),
(83,-2,o),
(125,-2,cs)
);
}
);
width = 503;
},
{
anchors = (
{
name = bottom;
pos = (242,0);
},
{
name = top;
pos = (242,700);
}
);
background = {
shapes = (
{
closed = 1;
nodes = (
(396,0,ls),
(410,0,o),
(416,9,o),
(416,30,cs),
(416,46,ls),
(416,67,o),
(410,76,o),
(396,76,cs),
(172,76,l),
(172,320,l),
(373,320,ls),
(387,320,o),
(393,329,o),
(393,350,cs),
(393,366,ls),
(393,387,o),
(387,396,o),
(373,396,cs),
(172,396,l),
(172,624,l),
(396,624,ls),
(410,624,o),
(416,633,o),
(416,654,cs),
(416,670,ls),
(416,691,o),
(410,700,o),
(396,700,cs),
(113,700,ls),
(91,700,o),
(82,691,o),
(82,670,cs),
(82,30,ls),
(82,9,o),
(91,0,o),
(113,0,cs)
);
}
);
};
layerId = "76F17502-367F-435E-B23E-ED9D928E777B";
shapes = (
{
closed = 1;
nodes = (
(131,-2,ls),
(161,-2,o),
(172,6,o),
(172,20,cs),
(172,300,l),
(358,300,ls),
(372,300,o),
(378,309,o),
(378,330,cs),
(378,346,ls),
(378,367,o),
(372,376,o),
(358,376,cs),
(172,376,l),
(172,624,l),
(374,624,ls),
(387,624,o),
(393,633,o),
(393,654,cs),
(393,670,ls),
(393,691,o),
(387,700,o),
(374,700,cs),
(113,700,ls),
(91,700,o),
(82,691,o),
(82,670,cs),
(82,20,ls),
(82,6,o),
(93,-2,o),
(123,-2,cs)
);
}
);
width = 403;
},
{
anchors = (
{
name = bottom;
pos = (232,0);
},
{
name = top;
pos = (232,700);
}
);
background = {
shapes = (
{
closed = 0;
nodes = (
(50,31,ls),
(50,10,o),
(68,-2,o),
(110,-2,cs),
(145,-2,ls),
(187,-2,o),
(205,10,o),
(205,31,cs)
);
}
);
};
layerId = "6662946B-F990-402F-A6FD-22D24AB84B33";
shapes = (
{
closed = 1;
nodes = (
(145,-2,ls),
(187,-2,o),
(205,10,o),
(205,31,cs),
(205,273,l),
(350,273,ls),
(370,273,o),
(379,288,o),
(379,323,cs),
(379,354,ls),
(379,389,o),
(370,404,o),
(350,404,cs),
(205,404,l),
(205,569,l),
(359,569,ls),
(379,569,o),
(388,584,o),
(388,619,cs),
(388,650,ls),
(388,685,o),
(379,700,o),
(359,700,cs),
(87,700,ls),
(61,700,o),
(50,688,o),
(50,660,cs),
(50,31,ls),
(50,10,o),
(68,-2,o),
(110,-2,cs)
);
}
);
width = 403;
},
{
anchors = (
{
name = bottom;
pos = (242,0);
},
{
name = top;
pos = (242,700);
}
);
background = {
shapes = (
{
closed = 1;
nodes = (
(365,0,ls),
(373,0,o),
(377,4,o),
(377,14,cs),
(377,22,ls),
(377,32,o),
(373,36,o),
(365,36,cs),
(148,36,l),
(148,340,l),
(340,340,ls),
(348,340,o),
(352,344,o),
(352,354,cs),
(352,362,ls),
(352,372,o),
(348,376,o),
(340,376,cs),
(148,376,l),
(148,664,l),
(363,664,ls),
(371,664,o),
(375,668,o),
(375,678,cs),
(375,686,ls),
(375,696,o),
(371,700,o),
(363,700,cs),
(124,700,ls),
(113,700,o),
(108,696,o),
(108,686,cs),
(108,14,ls),
(108,4,o),
(113,0,o),
(124,0,cs)
);
}
);
};
layerId = "534F5340-05B5-45BC-BA3B-B28DD92592EB";
shapes = (
{
closed = 1;
nodes = (
(132,-2,ls),
(143,-2,o),
(148,2,o),
(148,10,cs),
(148,320,l),
(324,320,ls),
(332,320,o),
(336,324,o),
(336,334,cs),
(336,342,ls),
(336,352,o),
(332,356,o),
(324,356,cs),
(148,356,l),
(148,664,l),
(342,664,ls),
(350,664,o),
(354,668,o),
(354,678,cs),
(354,686,ls),
(354,696,o),
(350,700,o),
(342,700,cs),
(124,700,ls),
(113,700,o),
(108,696,o),
(108,686,cs),
(108,10,ls),
(108,2,o),
(113,-2,o),
(124,-2,cs)
);
}
);
width = 403;
},
{
anchors = (
{
name = bottom;
pos = (302,0);
},
{
name = top;
pos = (302,700);
}
);
background = {
shapes = (
{
closed = 1;
nodes = (
(486,0,ls),
(494,0,o),
(498,4,o),
(498,14,cs),
(498,22,ls),
(498,32,o),
(494,36,o),
(486,36,cs),
(162,36,l),
(162,340,l),
(456,340,ls),
(464,340,o),
(468,344,o),
(468,354,cs),
(468,362,ls),
(468,372,o),
(464,376,o),
(456,376,cs),
(162,376,l),
(162,664,l),
(486,664,ls),
(494,664,o),
(498,668,o),
(498,678,cs),
(498,686,ls),
(498,696,o),
(494,700,o),
(486,700,cs),
(138,700,ls),
(127,700,o),
(122,696,o),
(122,686,cs),
(122,14,ls),
(122,4,o),
(127,0,o),
(138,0,cs)
);
}
);
};
layerId = "84AA6C20-0662-4373-B7CF-A8F69217EDA9";
shapes = (
{
closed = 1;
nodes = (
(146,-2,ls),
(157,-2,o),
(162,2,o),
(162,10,cs),
(162,315,l),
(446,315,ls),
(454,315,o),
(458,319,o),
(458,329,cs),
(458,337,ls),
(458,347,o),
(454,351,o),
(446,351,cs),
(162,351,l),
(162,664,l),
(467,664,ls),
(475,664,o),
(479,668,o),
(479,678,cs),
(479,686,ls),
(479,696,o),
(475,700,o),
(467,700,cs),
(138,700,ls),
(127,700,o),
(122,696,o),
(122,686,cs),
(122,10,ls),
(122,2,o),
(127,-2,o),
(138,-2,cs)
);
}
);
width = 503;
},
{
anchors = (
{
name = bottom;
pos = (232,0);
},
{
name = top;
pos = (232,700);
}
);
layerId = "A5A92505-053D-4D0C-ACDC-6F8463E28DE4";
shapes = (
{
closed = 1;
nodes = (
(134,-2,ls),
(190,-2,o),
(214,14,o),
(214,41,cs),
(214,243,l),
(329,243,ls),
(357,243,o),
(369,261,o),
(369,303,cs),
(369,354,ls),
(369,396,o),
(357,414,o),
(329,414,cs),
(214,414,l),
(214,529,l),
(349,529,ls),
(377,529,o),
(389,547,o),
(389,589,cs),
(389,640,ls),
(389,682,o),
(377,700,o),
(349,700,cs),
(92,700,ls),
(52,700,o),
(35,688,o),
(35,660,cs),
(35,41,ls),
(35,14,o),
(59,-2,o),
(115,-2,cs)
);
}
);
width = 403;
},
{
anchors = (
{
name = bottom;
pos = (272,0);
},
{
name = top;
pos = (272,700);
}
);
background = {
shapes = (
{
closed = 1;
nodes = (
(170,-2,ls),
(212,-2,o),
(230,9,o),
(230,30,cs),
(230,262,l),
(438,262,ls),
(459,262,o),
(468,277,o),
(468,312,cs),
(468,343,ls),
(468,378,o),
(459,393,o),
(438,393,cs),
(230,393,l),
(230,569,l),
(445,569,ls),
(466,569,o),
(475,584,o),
(475,619,cs),
(475,650,ls),
(475,685,o),
(466,700,o),
(445,700,cs),
(116,700,ls),
(88,700,o),
(76,688,o),
(76,660,cs),
(76,30,ls),
(76,9,o),
(94,-2,o),
(136,-2,cs)
);
}
);
};
layerId = "ACEF5F79-87A6-4D8B-B169-2BFCF1568BF8";
shapes = (
{
closed = 1;
nodes = (
(155,-2,ls),
(211,-2,o),
(235,14,o),
(235,41,cs),
(235,233,l),
(418,233,ls),
(446,233,o),
(458,251,o),
(458,293,cs),
(458,344,ls),
(458,386,o),
(446,404,o),
(418,404,cs),
(235,404,l),
(235,529,l),
(438,529,ls),
(466,529,o),
(478,547,o),
(478,589,cs),
(478,640,ls),
(478,682,o),
(466,700,o),
(438,700,cs),
(107,700,ls),
(67,700,o),
(50,688,o),
(50,660,cs),
(50,41,ls),
(50,14,o),
(74,-2,o),
(130,-2,cs)
);
}
);
width = 503;
},
{
anchors = (
{
name = bottom;
pos = (342,0);
},
{
name = top;
pos = (342,700);
}
);
layerId = "2EA36C28-4342-4323-91EA-7DB25AD3237F";
shapes = (
{
closed = 1;
nodes = (
(179,-2,ls),
(235,-2,o),
(259,14,o),
(259,41,cs),
(259,223,l),
(513,223,ls),
(541,223,o),
(553,241,o),
(553,283,cs),
(553,334,ls),
(553,376,o),
(541,394,o),
(513,394,cs),
(259,394,l),
(259,529,l),
(533,529,ls),
(561,529,o),
(573,547,o),
(573,589,cs),
(573,640,ls),
(573,682,o),
(561,700,o),
(533,700,cs),
(125,700,ls),
(85,700,o),
(68,688,o),
(68,660,cs),
(68,41,ls),
(68,14,o),
(92,-2,o),
(148,-2,cs)
);
}
);
width = 603;
},
{
anchors = (
{
name = bottom;
pos = (342,0);
},
{
name = top;
pos = (342,700);
}
);
background = {
shapes = (
{
closed = 1;
nodes = (
(170,-2,ls),
(212,-2,o),
(230,9,o),
(230,30,cs),
(230,262,l),
(438,262,ls),
(459,262,o),
(468,277,o),
(468,312,cs),
(468,343,ls),
(468,378,o),
(459,393,o),
(438,393,cs),
(230,393,l),
(230,569,l),
(445,569,ls),
(466,569,o),
(475,584,o),
(475,619,cs),
(475,650,ls),
(475,685,o),
(466,700,o),
(445,700,cs),
(116,700,ls),
(88,700,o),
(76,688,o),
(76,660,cs),
(76,30,ls),
(76,9,o),
(94,-2,o),
(136,-2,cs)
);
}
);
};
layerId = "D9F64F14-09E8-47AC-ADF7-F859BCC4D5F5";
shapes = (
{
closed = 1;
nodes = (
(178,-2,ls),
(220,-2,o),
(238,10,o),
(238,31,cs),
(238,253,l),
(537,253,ls),
(557,253,o),
(566,268,o),
(566,303,cs),
(566,334,ls),
(566,369,o),
(557,384,o),
(537,384,cs),
(238,384,l),
(238,569,l),
(546,569,ls),
(566,569,o),
(575,584,o),
(575,619,cs),
(575,650,ls),
(575,685,o),
(566,700,o),
(546,700,cs),
(120,700,ls),
(94,700,o),
(83,688,o),
(83,660,cs),
(83,31,ls),
(83,10,o),
(101,-2,o),
(143,-2,cs)
);
}
);
width = 603;
},
{
anchors = (
{
name = bottom;
pos = (352,0);
},
{
name = top;
pos = (352,700);
}
);
background = {
shapes = (
{
closed = 1;
nodes = (
(156,-2,ls),
(192,-2,o),
(205,6,o),
(205,20,cs),
(205,300,l),
(493,300,ls),
(510,300,o),
(517,309,o),
(517,330,cs),
(517,346,ls),
(517,367,o),
(510,376,o),
(493,376,cs),
(205,376,l),
(205,624,l),
(512,624,ls),
(528,624,o),
(535,633,o),
(535,654,cs),
(535,670,ls),
(535,691,o),
(528,700,o),
(512,700,cs),
(134,700,ls),
(108,700,o),
(97,691,o),
(97,670,cs),
(97,20,ls),
(97,6,o),
(110,-2,o),
(146,-2,cs)
);
}
);
};
layerId = "8ED31224-68B7-412A-B4C3-E53F784CF4E5";
shapes = (
{
closed = 1;
nodes = (
(164,-2,ls),
(194,-2,o),
(205,6,o),
(205,20,cs),
(205,290,l),
(542,290,ls),
(556,290,o),
(562,299,o),
(562,320,cs),
(562,336,ls),
(562,357,o),
(556,366,o),
(542,366,cs),
(205,366,l),
(205,624,l),
(558,624,ls),
(571,624,o),
(577,633,o),
(577,654,cs),
(577,670,ls),
(577,691,o),
(571,700,o),
(558,700,cs),
(146,700,ls),
(124,700,o),
(115,691,o),
(115,670,cs),
(115,20,ls),
(115,6,o),
(126,-2,o),
(156,-2,cs)
);
}
);
width = 603;
},
{
anchors = (
{
name = bottom;
pos = (352,0);
},
{
name = top;
pos = (352,700);
}
);
background = {
shapes = (
{
closed = 1;
nodes = (
(586,0,ls),
(594,0,o),
(598,4,o),
(598,14,cs),
(598,22,ls),
(598,32,o),
(594,36,o),
(586,36,cs),
(180,36,l),
(180,340,l),
(556,340,ls),
(564,340,o),
(568,344,o),
(568,354,cs),
(568,362,ls),
(568,372,o),
(564,376,o),
(556,376,cs),
(180,376,l),
(180,664,l),
(586,664,ls),
(594,664,o),
(598,668,o),
(598,678,cs),
(598,686,ls),
(598,696,o),
(594,700,o),
(586,700,cs),
(156,700,ls),
(145,700,o),
(140,696,o),
(140,686,cs),
(140,14,ls),
(140,4,o),
(145,0,o),
(156,0,cs)
);
}
);
};
layerId = "79DB91E0-15EF-4446-816D-FE9384315D55";
shapes = (
{
closed = 1;
nodes = (
(164,-2,ls),
(175,-2,o),
(180,2,o),
(180,10,cs),
(180,310,l),
(521,310,ls),
(529,310,o),
(533,314,o),
(533,324,cs),
(533,332,ls),
(533,342,o),
(529,346,o),
(521,346,cs),
(180,346,l),
(180,664,l),
(551,664,ls),
(559,664,o),
(563,668,o),
(563,678,cs),
(563,686,ls),
(563,696,o),
(559,700,o),
(551,700,cs),
(156,700,ls),
(145,700,o),
(140,696,o),
(140,686,cs),
(140,10,ls),
(140,2,o),
(145,-2,o),
(156,-2,cs)
);
}
);
width = 603;
}
);
unicode = 70;
userData = {
RMXScaler = {
source = F;
};
};
},
{
glyphname = G;
kernLeft = O;
kernRight = G;
layers = (
{
anchors = (
{
name = bottom;
pos = (355,0);
},
{
name = top;
pos = (355,700);
}
);
background = {
shapes = (
{
closed = 1;
nodes = (
(454,-6,o),
(518,13,o),
(554,33,cs),
(574,44,o),
(586,55,o),
(586,67,cs),
(586,78,o),
(569,115,o),
(552,115,cs),
(538,115,o),
(483,70,o),
(379,70,cs),
(222,70,o),
(148,157,o),
(148,349,cs),
(148,546,o),
(223,630,o),
(383,630,cs),
(476,630,o),
(522,593,o),
(538,593,cs),
(554,593,o),
(572,629,o),
(572,644,cs),
(572,652,o),
(563,661,o),
(548,670,cs),
(514,689,o),
(449,706,o),
(381,706,cs),
(167,706,o),
(57,589,o),
(57,350,cs),
(57,106,o),
(160,-6,o),
(379,-6,cs)
);
},
{
closed = 0;
nodes = (
(589,331,ls),
(589,352,o),
(580,361,o),
(558,361,cs),
(364,361,ls),
(350,361,o),
(344,352,o),
(344,331,cs),
(344,315,ls),
(344,294,o),
(350,285,o),
(364,285,cs),
(499,285,l)
);
}
);
};
layerId = UUID0;
shapes = (
{
closed = 1;
nodes = (
(454,-6,o),
(518,13,o),
(569,42,cs),
(584,50,o),
(589,56,o),
(589,78,cs),
(589,350,ls),
(589,371,o),
(580,380,o),
(558,380,cs),
(364,380,ls),
(350,380,o),
(344,371,o),
(344,350,cs),
(344,335,ls),
(344,314,o),
(350,305,o),
(364,305,cs),
(501,305,l),
(501,48.5,l),
(513,102,l),
(491,83,o),
(435,70,o),
(379,70,cs),
(222,70,o),
(148,157,o),
(148,349,cs),
(148,546,o),
(223,630,o),
(383,630,cs),
(476,630,o),
(522,593,o),
(538,593,cs),
(554,593,o),
(572,629,o),
(572,644,cs),
(572,652,o),
(563,661,o),
(548,670,cs),
(514,689,o),
(449,706,o),
(381,706,cs),
(167,706,o),
(57,589,o),
(57,350,cs),
(57,106,o),
(160,-6,o),
(379,-6,cs)
);
}
);
width = 672;
},
{
anchors = (
{
name = bottom;
pos = (355,0);
},
{
name = top;
pos = (355,700);
}
);
background = {
shapes = (
{
closed = 1;
nodes = (
(429,-8,o),
(510,3,o),
(558,30,cs),
(588,47,o),
(597,53,o),
(597,76,cs),
(597,93,o),
(576,163,o),
(544,163,cs),
(525,163,o),
(469,123,o),
(374,123,cs),
(259,123,o),
(203,201,o),
(203,351,cs),
(203,501,o),
(258,576,o),
(376,576,cs),
(461,576,o),
(498,547,o),
(531,547,cs),
(555,547,o),
(588,611,o),
(588,638,cs),
(588,650,o),
(578,661,o),
(562,670,cs),
(522,694,o),
(442,708,o),
(379,708,cs),
(157,708,o),
(45,590,o),
(45,352,cs),
(45,105,o),
(150,-8,o),
(374,-8,cs)
);
}
);
};
layerId = "2C16E7AF-C861-4509-900A-75D3055B0FF7";
shapes = (
{
closed = 1;
nodes = (
(450,-8,o),
(538,8,o),
(579,30,cs),
(600,41,o),
(610,55,o),
(610,72,cs),
(610,370,ls),
(610,398,o),
(599,410,o),
(573,410,cs),
(359,410,ls),
(338,410,o),
(329,395,o),
(329,360,cs),
(329,331,ls),
(329,296,o),
(338,281,o),
(359,281,cs),
(462,281,l),
(462,79,l),
(511,153,l),
(484,136,o),
(427,123,o),
(374,123,cs),
(259,123,o),
(203,181,o),
(203,351,cs),
(203,501,o),
(258,576,o),
(376,576,cs),
(461,576,o),
(498,547,o),
(531,547,cs),
(555,547,o),
(588,611,o),
(588,638,cs),
(588,650,o),
(578,661,o),
(562,670,cs),
(522,694,o),
(442,708,o),
(379,708,cs),
(157,708,o),
(45,590,o),
(45,352,cs),
(45,105,o),
(150,-8,o),
(374,-8,cs)
);
}
);
width = 672;
},
{
anchors = (
{
name = bottom;
pos = (285,0);
},
{
name = top;
pos = (285,700);
}
);
layerId = "76F17502-367F-435E-B23E-ED9D928E777B";
shapes = (
{
closed = 1;
nodes = (
(350,-6,o),
(416,10,o),
(451,34,cs),
(468,46,o),
(472,55,o),
(472,71,cs),
(472,350,ls),
(472,371,o),
(463,380,o),
(441,380,cs),
(288,380,ls),
(274,380,o),
(268,371,o),
(268,350,cs),
(268,334,ls),
(268,313,o),
(274,304,o),
(288,304,cs),
(385,304,l),
(385,49,l),
(403,93,l),
(382,82,o),
(345,70,o),
(302,70,cs),
(183,70,o),
(133,153,o),
(133,352,cs),
(133,548,o),
(186,630,o),
(313,630,cs),
(372,630,o),
(400,617,o),
(417,617,cs),
(432,617,o),
(441,645,o),
(441,665,cs),
(441,677,o),
(435,682,o),
(424,687,cs),
(399,698,o),
(355,706,o),
(313,706,cs),
(131,706,o),
(42,593,o),
(42,352,cs),
(42,107,o),
(129,-6,o),
(295,-6,cs)
);
}
);
width = 530;
},
{
anchors = (
{
name = bottom;
pos = (295,0);
},
{
name = top;
pos = (295,700);
}
);
background = {
shapes = (
{
closed = 1;
nodes = (
(351,-8,o),
(392,0,o),
(412,7,cs),
(437,16,o),
(443,31,o),
(443,51,cs),
(443,90,o),
(427,139,o),
(403,139,cs),
(385,139,o),
(368,128,o),
(324,128,cs),
(235,128,o),
(197,194,o),
(197,351,cs),
(197,507,o),
(233,573,o),
(319,573,cs),
(354,573,o),
(380,564,o),
(394,564,cs),
(419,564,o),
(432,619,o),
(432,657,cs),
(432,678,o),
(425,690,o),
(401,697,cs),
(383,702,o),
(349,708,o),
(312,708,cs),
(123,708,o),
(37,590,o),
(37,352,cs),
(37,105,o),
(117,-8,o),
(307,-8,cs)
);
},
{
closed = 0;
nodes = (
(502,370,ls),
(502,398,o),
(491,410,o),
(465,410,cs),
(301,410,ls),
(280,410,o),
(271,395,o),
(271,360,cs),
(271,329,ls),
(271,294,o),
(280,279,o),
(301,279,cs),
(347,279,l)
);
}
);
};
layerId = "6662946B-F990-402F-A6FD-22D24AB84B33";
shapes = (
{
closed = 1;
nodes = (
(372,-8,o),
(430,8,o),
(471,30,cs),
(492,41,o),
(502,55,o),
(502,72,cs),
(502,370,ls),
(502,398,o),
(491,410,o),
(465,410,cs),
(301,410,ls),
(280,410,o),
(271,395,o),
(271,360,cs),
(271,331,ls),
(271,296,o),
(280,281,o),
(301,281,cs),
(354,281,l),
(354,79,l),
(403,134,l),
(369,126,o),
(339,123,o),
(324,123,cs),
(230,123,o),
(197,180,o),
(197,351,cs),
(197,507,o),
(237,573,o),
(332,573,cs),
(373,573,o),
(405,564,o),
(419,564,cs),
(444,564,o),
(457,619,o),
(457,657,cs),
(457,678,o),
(450,690,o),
(426,697,cs),
(408,702,o),
(367,708,o),
(325,708,cs),
(127,708,o),
(37,590,o),
(37,352,cs),
(37,105,o),
(117,-8,o),
(307,-8,cs)
);
}
);
width = 530;
},
{
anchors = (
{
name = bottom;
pos = (295,0);
},
{
name = top;
pos = (295,700);
}
);
layerId = "534F5340-05B5-45BC-BA3B-B28DD92592EB";
shapes = (
{
closed = 1;
nodes = (
(335,-6,o),
(381,-1,o),
(432,17,cs),
(451,24,o),
(454,28,o),
(454,45,cs),
(454,352,ls),
(454,362,o),
(449,366,o),
(438,366,cs),
(279,366,ls),
(271,366,o),
(267,362,o),
(267,352,cs),
(267,344,ls),
(267,334,o),
(271,330,o),
(279,330,cs),
(415,330,l),
(415,29,l),
(438,61,l),
(406,45,o),
(351,32,o),
(297,32,cs),
(173,32,o),
(110,140,o),
(110,352,cs),
(110,561,o),
(178,668,o),
(312,668,cs),
(364,668,o),
(401,652,o),
(413,652,cs),
(421,652,o),
(427,663,o),
(427,677,cs),
(427,682,o),
(425,685,o),
(421,687,cs),
(398,697,o),
(363,706,o),
(312,706,cs),
(150,706,o),
(68,587,o),
(68,352,cs),
(68,115,o),
(145,-6,o),
(297,-6,cs)
);
}
);
width = 530;
},
{
anchors = (
{
name = bottom;
pos = (363,0);
},
{
name = top;
pos = (363,700);
}
);
background = {
shapes = (
{
closed = 1;
nodes = (
(428,-6,o),
(486,9,o),
(523,31,cs),
(557,51,o),
(577,69,o),
(577,78,cs),
(577,85,o),
(565,100,o),
(555,100,cs),
(543,100,o),
(502,32,o),
(370,32,cs),
(209,32,o),
(124,142,o),
(124,352,cs),
(124,560,o),
(209,668,o),
(370,668,cs),
(488,668,o),
(537,606,o),
(553,606,cs),
(561,606,o),
(572,620,o),
(572,628,cs),
(572,634,o),
(552,653,o),
(519,670,cs),
(487,686,o),
(442,706,o),
(370,706,cs),
(181,706,o),
(82,585,o),
(82,352,cs),
(82,117,o),
(181,-6,o),
(370,-6,cs)
);
}
);
};
layerId = "84AA6C20-0662-4373-B7CF-A8F69217EDA9";
shapes = (
{
closed = 1;
nodes = (
(422,-6,o),
(485,2,o),
(556,27,cs),
(575,34,o),
(578,38,o),
(578,55,cs),
(578,352,ls),
(578,362,o),
(573,366,o),
(562,366,cs),
(343,366,ls),
(335,366,o),
(331,362,o),
(331,352,cs),
(331,344,ls),
(331,334,o),
(335,330,o),
(343,330,cs),
(539,330,l),
(539,39,l),
(562,73,l),
(530,54,o),
(468,32,o),
(370,32,cs),
(209,32,o),
(124,142,o),
(124,352,cs),
(124,560,o),
(209,668,o),
(370,668,cs),
(488,668,o),
(537,606,o),
(553,606,cs),
(561,606,o),
(572,620,o),
(572,628,cs),
(572,634,o),
(552,653,o),
(519,670,cs),
(487,686,o),
(442,706,o),
(370,706,cs),
(181,706,o),
(82,585,o),
(82,352,cs),
(82,117,o),
(181,-6,o),
(370,-6,cs)
);
}
);
width = 672;
},
{
anchors = (
{
name = bottom;
pos = (285,0);
},
{
name = top;
pos = (285,700);
}
);
background = {
shapes = (
{
closed = 0;
nodes = (
(458,430,ls),
(498,430,o),
(515,418,o),
(515,390,cs)
);
}
);
};
layerId = "A5A92505-053D-4D0C-ACDC-6F8463E28DE4";
shapes = (
{
closed = 1;
nodes = (
(352,-8,o),
(415,3,o),
(457,23,cs),
(491,40,o),
(500,50,o),
(500,82,cs),
(500,380,ls),
(500,408,o),
(483,420,o),
(443,420,cs),
(312,420,ls),
(284,420,o),
(272,402,o),
(272,370,cs),
(272,324,ls),
(272,282,o),
(284,264,o),
(312,264,cs),
(341,264,l),
(341,79,l),
(399,172,l),
(365,159,o),
(345,155,o),
(316,155,cs),
(230,155,o),
(203,200,o),
(203,350,cs),
(203,484,o),
(239,537,o),
(328,537,cs),
(373,537,o),
(399,526,o),
(420,526,cs),
(447,526,o),
(467,617,o),
(467,652,cs),
(467,675,o),
(457,684,o),
(431,693,cs),
(411,700,o),
(363,708,o),
(317,708,cs),
(117,708,o),
(16,588,o),
(16,350,cs),
(16,103,o),
(127,-8,o),
(310,-8,cs)
);
}
);
width = 530;
},
{
anchors = (
{
name = bottom;
pos = (351,0);
},
{
name = top;
pos = (351,700);
}
);
background = {
shapes = (
{
closed = 1;
nodes = (
(434,-8,o),
(517,9,o),
(567,37,cs),
(597,54,o),
(602,62,o),
(602,85,cs),
(602,109,o),
(572,200,o),
(537,200,cs),
(519,200,o),
(471,163,o),
(381,163,cs),
(273,163,o),
(223,222,o),
(223,350,cs),
(223,479,o),
(273,537,o),
(381,537,cs),
(471,537,o),
(509,508,o),
(530,508,cs),
(558,508,o),
(594,597,o),
(594,630,cs),
(594,646,o),
(583,657,o),
(567,666,cs),
(524,692,o),
(439,708,o),
(372,708,cs),
(144,708,o),
(25,585,o),
(25,350,cs),
(25,115,o),
(144,-8,o),
(371,-8,cs)
);
}
);
};
layerId = "ACEF5F79-87A6-4D8B-B169-2BFCF1568BF8";
shapes = (
{
closed = 1;
nodes = (
(434,-8,o),
(516,13,o),
(565,39,cs),
(615,65,o),
(624,74,o),
(624,106,cs),
(624,380,ls),
(624,408,o),
(607,420,o),
(567,420,cs),
(396,420,ls),
(368,420,o),
(356,402,o),
(356,370,cs),
(356,324,ls),
(356,282,o),
(368,264,o),
(396,264,cs),
(459,264,l),
(459,79,l),
(523,194,l),
(489,173,o),
(429,158,o),
(381,158,cs),
(273,158,o),
(223,219,o),
(223,350,cs),
(223,479,o),
(272,537,o),
(381,537,cs),
(471,537,o),
(509,508,o),
(530,508,cs),
(558,508,o),
(594,597,o),
(594,630,cs),
(594,646,o),
(583,657,o),
(567,666,cs),
(524,692,o),
(439,708,o),
(371,708,cs),
(147,708,o),
(30,588,o),
(30,350,cs),
(30,115,o),
(147,-8,o),
(371,-8,cs)
);
}
);
width = 672;
},
{
anchors = (
{
name = bottom;
pos = (416,0);
},
{
name = top;
pos = (416,700);
}
);
background = {
shapes = (
{
closed = 1;
nodes = (
(513,-8,o),
(630,15,o),
(680,43,cs),
(709,59,o),
(712,67,o),
(712,91,cs),
(712,115,o),
(690,199,o),
(655,199,cs),
(628,199,o),
(563,163,o),
(439,163,cs),
(304,163,o),
(236,226,o),
(236,350,cs),
(236,474,o),
(304,537,o),
(439,537,cs),
(564,537,o),
(617,509,o),
(648,509,cs),
(683,509,o),
(706,589,o),
(706,622,cs),
(706,638,o),
(695,649,o),
(679,658,cs),
(634,685,o),
(519,708,o),
(439,708,cs),
(173,708,o),
(38,587,o),
(38,350,cs),
(38,113,o),
(173,-8,o),
(439,-8,cs)
);
}
);
};
layerId = "2EA36C28-4342-4323-91EA-7DB25AD3237F";
shapes = (
{
closed = 1;
nodes = (
(523,-8,o),
(616,14,o),
(683,47,cs),
(733,72,o),
(742,82,o),
(742,114,cs),
(742,380,ls),
(742,408,o),
(725,420,o),
(685,420,cs),
(444,420,ls),
(416,420,o),
(404,402,o),
(404,370,cs),
(404,324,ls),
(404,282,o),
(416,264,o),
(444,264,cs),
(571,264,l),
(571,79,l),
(641,199,l),
(607,178,o),
(511,163,o),
(439,163,cs),
(308,163,o),
(242,226,o),
(242,350,cs),
(242,474,o),
(308,537,o),
(439,537,cs),
(564,537,o),
(617,509,o),
(648,509,cs),
(683,509,o),
(706,589,o),
(706,622,cs),
(706,638,o),
(695,649,o),
(679,658,cs),
(634,685,o),
(519,708,o),
(439,708,cs),
(176,708,o),
(43,587,o),
(43,350,cs),
(43,113,o),
(176,-8,o),
(439,-8,cs)
);
}
);
width = 805;
},
{
anchors = (
{
name = bottom;
pos = (412,0);
},
{
name = top;
pos = (412,700);
}
);
background = {
shapes = (
{
closed = 1;
nodes = (
(527,-8,o),
(617,12,o),
(677,46,cs),
(695,56,o),
(700,61,o),
(700,78,cs),
(700,102,o),
(680,165,o),
(657,165,cs),
(628,165,o),
(565,123,o),
(439,123,cs),
(285,123,o),
(206,200,o),
(206,350,cs),
(206,500,o),
(285,577,o),
(439,577,cs),
(558,577,o),
(613,544,o),
(640,544,cs),
(664,544,o),
(689,605,o),
(689,625,cs),
(689,639,o),
(675,651,o),
(654,663,cs),
(611,687,o),
(531,708,o),
(439,708,cs),
(180,708,o),
(48,587,o),
(48,350,cs),
(48,113,o),
(180,-8,o),
(439,-8,cs)
);
}
);
};
layerId = "D9F64F14-09E8-47AC-ADF7-F859BCC4D5F5";
shapes = (
{
closed = 1;
nodes = (
(525,-8,o),
(616,12,o),
(682,48,cs),
(703,59,o),
(713,73,o),
(713,90,cs),
(713,370,ls),
(713,398,o),
(702,410,o),
(676,410,cs),
(412,410,ls),
(391,410,o),
(382,395,o),
(382,360,cs),
(382,331,ls),
(382,296,o),
(391,281,o),
(412,281,cs),
(565,281,l),
(565,79,l),
(614,154,l),
(568,132,o),
(516,123,o),
(439,123,cs),
(285,123,o),
(206,200,o),
(206,351,cs),
(206,499,o),
(285,576,o),
(439,576,cs),
(558,576,o),
(613,544,o),
(640,544,cs),
(664,544,o),
(689,605,o),
(689,625,cs),
(689,639,o),
(675,651,o),
(654,663,cs),
(611,687,o),
(531,708,o),
(439,708,cs),
(180,708,o),
(48,589,o),
(48,351,cs),
(48,113,o),
(180,-8,o),
(439,-8,cs)
);
}
);
width = 805;
},
{
anchors = (
{
name = bottom;
pos = (413,0);
},
{
name = top;
pos = (413,700);
}
);
background = {
shapes = (
{
closed = 1;
nodes = (
(497,-6,o),
(574,7,o),
(634,30,cs),
(669,43,o),
(679,48,o),
(679,63,cs),
(679,72,o),
(666,113,o),
(649,113,cs),
(635,113,o),
(572,70,o),
(438,70,cs),
(241,70,o),
(141,165,o),
(141,352,cs),
(141,536,o),
(241,630,o),
(438,630,cs),
(554,630,o),
(620,595,o),
(635,595,cs),
(651,595,o),
(665,629,o),
(665,644,cs),
(665,658,o),
(660,662,o),
(628,675,cs),
(581,694,o),
(499,706,o),
(438,706,cs),
(181,706,o),
(50,587,o),
(50,352,cs),
(50,115,o),
(181,-6,o),
(438,-6,cs)
);
}
);
};
layerId = "8ED31224-68B7-412A-B4C3-E53F784CF4E5";
shapes = (
{
closed = 1;
nodes = (
(527,-6,o),
(628,14,o),
(682,42,cs),
(697,50,o),
(702,56,o),
(702,78,cs),
(702,350,ls),
(702,371,o),
(693,380,o),
(671,380,cs),
(437,380,ls),
(423,380,o),
(417,371,o),
(417,350,cs),
(417,335,ls),
(417,314,o),
(423,305,o),
(437,305,cs),
(614,305,l),
(614,49,l),
(626,102,l),
(599,83,o),
(522,70,o),
(448,70,cs),
(244,70,o),
(141,165,o),
(141,352,cs),
(141,536,o),
(244,630,o),
(448,630,cs),
(570,630,o),
(635,593,o),
(651,593,cs),
(667,593,o),
(685,629,o),
(685,644,cs),
(685,652,o),
(676,661,o),
(661,670,cs),
(627,689,o),
(512,706,o),
(448,706,cs),
(184,706,o),
(50,587,o),
(50,352,cs),
(50,115,o),
(184,-6,o),
(448,-6,cs)
);
}
);
width = 805;
},
{
anchors = (
{
name = bottom;
pos = (413,0);
},
{
name = top;
pos = (413,700);
}
);
background = {
shapes = (
{
closed = 1;
nodes = (
(522,-6,o),
(592,12,o),
(636,31,cs),
(665,44,o),
(683,56,o),
(683,64,cs),
(683,69,o),
(671,87,o),
(663,87,cs),
(650,87,o),
(599,32,o),
(429,32,cs),
(210,32,o),
(98,140,o),
(98,352,cs),
(98,561,o),
(213,668,o),
(439,668,cs),
(575,668,o),
(644,623,o),
(654,623,cs),
(665,623,o),
(673,640,o),
(673,646,cs),
(673,654,o),
(655,665,o),
(624,677,cs),
(588,691,o),
(510,706,o),
(439,706,cs),
(185,706,o),
(56,587,o),
(56,352,cs),
(56,115,o),
(182,-6,o),
(429,-6,cs)
);
}
);
};
layerId = "79DB91E0-15EF-4446-816D-FE9384315D55";
shapes = (
{
closed = 1;
nodes = (
(525,-6,o),
(614,3,o),
(666,17,cs),
(685,22,o),
(688,28,o),
(688,45,cs),
(688,352,ls),
(688,362,o),
(683,366,o),
(672,366,cs),
(403,366,ls),
(395,366,o),
(391,362,o),
(391,352,cs),
(391,344,ls),
(391,334,o),
(395,330,o),
(403,330,cs),
(649,330,l),
(649,29,l),
(672,61,l),
(636,44,o),
(534,32,o),
(429,32,cs),
(210,32,o),
(98,142,o),
(98,352,cs),
(98,561,o),
(213,668,o),
(439,668,cs),
(575,668,o),
(644,623,o),
(654,623,cs),
(665,623,o),
(673,640,o),
(673,646,cs),
(673,654,o),
(655,665,o),
(624,677,cs),
(588,691,o),
(510,706,o),
(439,706,cs),
(185,706,o),
(56,587,o),
(56,352,cs),
(56,117,o),
(182,-6,o),
(429,-6,cs)
);
}
);
width = 805;
}
);
unicode = 71;
userData = {
RMXScaler = {
source = G;
};
};
},
{
glyphname = H;
kernLeft = H;
kernRight = H;
layers = (
{
anchors = (
{
name = bottom;
pos = (367,0);
},
{
name = center;
pos = (367,535);
},
{
name = top;
pos = (367,700);
}
);
background = {
shapes = (
{
closed = 1;
nodes = (
(134,-2,ls),
(164,-2,o),
(175,6,o),
(175,20,cs),
(175,680,ls),
(175,694,o),
(164,702,o),
(134,702,cs),
(126,702,ls),
(96,702,o),
(85,694,o),
(85,680,cs),
(85,20,ls),
(85,6,o),
(96,-2,o),
(126,-2,cs)
);
},
{
closed = 1;
nodes = (
(582,-2,ls),
(612,-2,o),
(623,6,o),
(623,20,cs),
(623,680,ls),
(623,694,o),
(612,702,o),
(582,702,cs),
(574,702,ls),
(544,702,o),
(533,694,o),
(533,680,cs),
(533,20,ls),
(533,6,o),
(544,-2,o),
(574,-2,cs)
);
}
);
};
layerId = UUID0;
shapes = (
{
closed = 1;
nodes = (
(146,-2,ls),
(176,-2,o),
(187,6,o),
(187,20,cs),
(187,321,l),
(546,321,l),
(546,20,ls),
(546,6,o),
(557,-2,o),
(587,-2,cs),
(595,-2,ls),
(625,-2,o),
(636,6,o),
(636,20,cs),
(636,680,ls),
(636,694,o),
(625,702,o),
(595,702,cs),
(587,702,ls),
(557,702,o),
(546,694,o),
(546,680,cs),
(546,397,l),
(187,397,l),
(187,680,ls),
(187,694,o),
(176,702,o),
(146,702,cs),
(138,702,ls),
(108,702,o),
(97,694,o),
(97,680,cs),
(97,20,ls),
(97,6,o),
(108,-2,o),
(138,-2,cs)
);
}
);
width = 733;
},
{
anchors = (
{
name = bottom;
pos = (367,0);
},
{
name = center;
pos = (367,545);
},
{
name = top;
pos = (366,700);
}
);
background = {
shapes = (
{
closed = 1;
nodes = (
(172,-2,ls),
(214,-2,o),
(232,10,o),
(232,31,cs),
(232,291,l),
(502,291,l),
(502,31,ls),
(502,10,o),
(520,-2,o),
(562,-2,cs),
(597,-2,ls),
(639,-2,o),
(657,10,o),
(657,31,cs),
(657,669,ls),
(657,690,o),
(639,702,o),
(597,702,cs),
(562,702,ls),
(520,702,o),
(502,690,o),
(502,669,cs),
(502,423,l),
(232,423,l),
(232,669,ls),
(232,690,o),
(214,702,o),
(172,702,cs),
(137,702,ls),
(95,702,o),
(77,690,o),
(77,669,cs),
(77,31,ls),
(77,10,o),
(95,-2,o),
(137,-2,cs)
);
}
);
};
layerId = "2C16E7AF-C861-4509-900A-75D3055B0FF7";
shapes = (
{
closed = 1;
nodes = (
(160,-2,ls),
(202,-2,o),
(220,10,o),
(220,31,cs),
(220,292,l),
(513,292,l),
(513,31,ls),
(513,10,o),
(531,-2,o),
(573,-2,cs),
(608,-2,ls),
(650,-2,o),
(668,10,o),
(668,31,cs),
(668,669,ls),
(668,690,o),
(650,702,o),
(608,702,cs),
(573,702,ls),
(531,702,o),
(513,690,o),
(513,669,cs),
(513,423,l),
(220,423,l),
(220,669,ls),
(220,690,o),
(202,702,o),
(160,702,cs),
(125,702,ls),
(83,702,o),
(65,690,o),
(65,669,cs),
(65,31,ls),
(65,10,o),
(83,-2,o),
(125,-2,cs)
);
}
);
width = 733;
},
{
anchors = (
{
name = bottom;
pos = (290,0);
},
{
name = center;
pos = (290,535);
},
{
name = top;
pos = (290,700);
}
);
background = {
shapes = (
{
closed = 1;
nodes = (
(100,-2,ls),
(125,-2,o),
(134,6,o),
(134,20,cs),
(134,321,l),
(434,321,l),
(434,20,ls),
(434,6,o),
(443,-2,o),
(468,-2,cs),
(475,-2,ls),
(500,-2,o),
(509,6,o),
(509,20,cs),
(509,680,ls),
(509,694,o),
(500,702,o),
(475,702,cs),
(468,702,ls),
(443,702,o),
(434,694,o),
(434,680,cs),
(434,397,l),
(134,397,l),
(134,680,ls),
(134,694,o),
(125,702,o),
(100,702,cs),
(93,702,ls),
(68,702,o),
(59,694,o),
(59,680,cs),
(59,20,ls),
(59,6,o),
(68,-2,o),
(93,-2,cs)
);
}
);
};
layerId = "76F17502-367F-435E-B23E-ED9D928E777B";
shapes = (
{
closed = 1;
nodes = (
(131,-2,ls),
(161,-2,o),
(172,6,o),
(172,20,cs),
(172,321,l),
(409,321,l),
(409,20,ls),
(409,6,o),
(420,-2,o),
(450,-2,cs),
(458,-2,ls),
(488,-2,o),
(499,6,o),
(499,20,cs),
(499,680,ls),
(499,694,o),
(488,702,o),
(458,702,cs),
(450,702,ls),
(420,702,o),
(409,694,o),
(409,680,cs),
(409,397,l),
(172,397,l),
(172,680,ls),
(172,694,o),
(161,702,o),
(131,702,cs),
(123,702,ls),
(93,702,o),
(82,694,o),
(82,680,cs),
(82,20,ls),
(82,6,o),
(93,-2,o),
(123,-2,cs)
);
}
);
width = 581;
},
{
anchors = (
{
name = bottom;
pos = (291,0);
},
{
name = center;
pos = (291,545);
},
{
name = top;
pos = (291,700);
}
);
background = {
shapes = (
{
closed = 1;
nodes = (
(114,-2,ls),
(144,-2,o),
(155,6,o),
(155,20,cs),
(155,321,l),
(413,321,l),
(413,20,ls),
(413,6,o),
(424,-2,o),
(454,-2,cs),
(462,-2,ls),
(492,-2,o),
(503,6,o),
(503,20,cs),
(503,680,ls),
(503,694,o),
(492,702,o),
(462,702,cs),
(454,702,ls),
(424,702,o),
(413,694,o),
(413,680,cs),
(413,397,l),
(155,397,l),
(155,680,ls),
(155,694,o),
(144,702,o),
(114,702,cs),
(106,702,ls),
(76,702,o),
(65,694,o),
(65,680,cs),
(65,20,ls),
(65,6,o),
(76,-2,o),
(106,-2,cs)
);
}
);
};
layerId = "6662946B-F990-402F-A6FD-22D24AB84B33";
shapes = (
{
closed = 1;
nodes = (
(145,-2,ls),
(187,-2,o),
(205,10,o),
(205,31,cs),
(205,292,l),
(376,292,l),
(376,31,ls),
(376,10,o),
(394,-2,o),
(436,-2,cs),
(471,-2,ls),
(513,-2,o),
(531,10,o),
(531,31,cs),
(531,669,ls),
(531,690,o),
(513,702,o),
(471,702,cs),
(436,702,ls),
(394,702,o),
(376,690,o),
(376,669,cs),
(376,423,l),
(205,423,l),
(205,669,ls),
(205,690,o),
(187,702,o),
(145,702,cs),
(110,702,ls),
(68,702,o),
(50,690,o),
(50,669,cs),
(50,31,ls),
(50,10,o),
(68,-2,o),
(110,-2,cs)
);
}
);
width = 581;
},
{
anchors = (
{
name = bottom;
pos = (290,0);
},
{
name = center;
pos = (290,535);
},
{
name = top;
pos = (290,700);
}
);
layerId = "534F5340-05B5-45BC-BA3B-B28DD92592EB";
shapes = (
{
closed = 1;
nodes = (
(132,-2,ls),
(143,-2,o),
(148,2,o),
(148,10,cs),
(148,341,l),
(433,341,l),
(433,10,ls),
(433,2,o),
(438,-2,o),
(449,-2,cs),
(457,-2,ls),
(468,-2,o),
(473,2,o),
(473,10,cs),
(473,690,ls),
(473,698,o),
(468,702,o),
(457,702,cs),
(449,702,ls),
(438,702,o),
(433,698,o),
(433,690,cs),
(433,377,l),
(148,377,l),
(148,690,ls),
(148,698,o),
(143,702,o),
(132,702,cs),
(124,702,ls),
(113,702,o),
(108,698,o),
(108,690,cs),
(108,10,ls),
(108,2,o),
(113,-2,o),
(124,-2,cs)
);
}
);
width = 581;
},
{
anchors = (
{
name = bottom;
pos = (367,0);
},
{
name = center;
pos = (367,535);
},
{
name = top;
pos = (367,700);
}
);
layerId = "84AA6C20-0662-4373-B7CF-A8F69217EDA9";
shapes = (
{
closed = 1;
nodes = (
(146,-2,ls),
(157,-2,o),
(162,2,o),
(162,10,cs),
(162,341,l),
(571,341,l),
(571,10,ls),
(571,2,o),
(576,-2,o),
(587,-2,cs),
(595,-2,ls),
(606,-2,o),
(611,2,o),
(611,10,cs),
(611,690,ls),
(611,698,o),
(606,702,o),
(595,702,cs),
(587,702,ls),
(576,702,o),
(571,698,o),
(571,690,cs),
(571,377,l),
(162,377,l),
(162,690,ls),
(162,698,o),
(157,702,o),
(146,702,cs),
(138,702,ls),
(127,702,o),
(122,698,o),
(122,690,cs),
(122,10,ls),
(122,2,o),
(127,-2,o),
(138,-2,cs)
);
}
);
width = 733;
},
{
anchors = (
{
name = bottom;
pos = (291,0);
},
{
name = center;
pos = (291,555);
},
{
name = top;
pos = (291,700);
}
);
layerId = "A5A92505-053D-4D0C-ACDC-6F8463E28DE4";
shapes = (
{
closed = 1;
nodes = (
(134,-2,ls),
(190,-2,o),
(214,14,o),
(214,41,cs),
(214,272,l),
(367,272,l),
(367,41,ls),
(367,14,o),
(391,-2,o),
(447,-2,cs),
(466,-2,ls),
(522,-2,o),
(546,14,o),
(546,41,cs),
(546,659,ls),
(546,686,o),
(522,702,o),
(466,702,cs),
(447,702,ls),
(391,702,o),
(367,686,o),
(367,659,cs),
(367,443,l),
(214,443,l),
(214,659,ls),
(214,686,o),
(190,702,o),
(134,702,cs),
(115,702,ls),
(59,702,o),
(35,686,o),
(35,659,cs),
(35,41,ls),
(35,14,o),
(59,-2,o),
(115,-2,cs)
);
}
);
width = 581;
},
{
anchors = (
{
name = bottom;
pos = (367,0);
},
{
name = center;
pos = (367,555);
},
{
name = top;
pos = (367,700);
}
);
background = {
shapes = (
{
closed = 0;
nodes = (
(240,659,ls),
(240,686,o),
(216,702,o),
(160,702,cs),
(125,702,ls),
(69,702,o),
(45,686,o),
(45,659,cs)
);
},
{
closed = 0;
nodes = (
(688,659,ls),
(688,686,o),
(664,702,o),
(608,702,cs),
(573,702,ls),
(517,702,o),
(493,686,o),
(493,659,cs)
);
}
);
};
layerId = "ACEF5F79-87A6-4D8B-B169-2BFCF1568BF8";
shapes = (
{
closed = 1;
nodes = (
(155,-2,ls),
(211,-2,o),
(235,14,o),
(235,41,cs),
(235,272,l),
(498,272,l),
(498,41,ls),
(498,14,o),
(522,-2,o),
(578,-2,cs),
(603,-2,ls),
(659,-2,o),
(683,14,o),
(683,41,cs),
(683,659,ls),
(683,686,o),
(659,702,o),
(603,702,cs),
(578,702,ls),
(522,702,o),
(498,686,o),
(498,659,cs),
(498,443,l),
(235,443,l),
(235,659,ls),
(235,686,o),
(213,702,o),
(160,702,cs),
(130,702,ls),
(74,702,o),
(50,686,o),
(50,659,cs),
(50,41,ls),
(50,14,o),
(74,-2,o),
(130,-2,cs)
);
}
);
width = 733;
},
{
anchors = (
{
name = bottom;
pos = (429,0);
},
{
name = center;
pos = (429,555);
},
{
name = top;
pos = (429,700);
}
);
background = {
shapes = (
{
closed = 1;
nodes = (
(158,-2,ls),
(214,-2,o),
(238,12,o),
(238,40,cs),
(238,272,l),
(592,272,l),
(592,40,ls),
(592,12,o),
(616,-2,o),
(672,-2,cs),
(707,-2,ls),
(763,-2,o),
(787,12,o),
(787,40,cs),
(787,660,ls),
(787,688,o),
(763,702,o),
(707,702,cs),
(672,702,ls),
(616,702,o),
(592,688,o),
(592,660,cs),
(592,443,l),
(238,443,l),
(238,660,ls),
(238,688,o),
(214,702,o),
(158,702,cs),
(123,702,ls),
(67,702,o),
(43,688,o),
(43,660,cs),
(43,40,ls),
(43,12,o),
(67,-2,o),
(123,-2,cs)
);
}
);
};
layerId = "2EA36C28-4342-4323-91EA-7DB25AD3237F";
shapes = (
{
closed = 1;
nodes = (
(179,-2,ls),
(235,-2,o),
(259,14,o),
(259,41,cs),
(259,272,l),
(599,272,l),
(599,41,ls),
(599,14,o),
(623,-2,o),
(679,-2,cs),
(710,-2,ls),
(766,-2,o),
(790,14,o),
(790,41,cs),
(790,659,ls),
(790,686,o),
(766,702,o),
(710,702,cs),
(679,702,ls),
(623,702,o),
(599,686,o),
(599,659,cs),
(599,443,l),
(259,443,l),
(259,659,ls),
(259,686,o),
(235,702,o),
(179,702,cs),
(148,702,ls),
(92,702,o),
(68,686,o),
(68,659,cs),
(68,41,ls),
(68,14,o),
(92,-2,o),
(148,-2,cs)
);
}
);
width = 858;
},
{
anchors = (
{
name = bottom;
pos = (429,0);
},
{
name = center;
pos = (429,545);
},
{
name = top;
pos = (429,700);
}
);
layerId = "D9F64F14-09E8-47AC-ADF7-F859BCC4D5F5";
shapes = (
{
closed = 1;
nodes = (
(178,-2,ls),
(220,-2,o),
(238,10,o),
(238,31,cs),
(238,292,l),
(620,292,l),
(620,31,ls),
(620,10,o),
(638,-2,o),
(680,-2,cs),
(715,-2,ls),
(757,-2,o),
(775,10,o),
(775,31,cs),
(775,669,ls),
(775,690,o),
(757,702,o),
(715,702,cs),
(680,702,ls),
(638,702,o),
(620,690,o),
(620,669,cs),
(620,423,l),
(238,423,l),
(238,669,ls),
(238,690,o),
(220,702,o),
(178,702,cs),
(143,702,ls),
(101,702,o),
(83,690,o),
(83,669,cs),
(83,31,ls),
(83,10,o),
(101,-2,o),
(143,-2,cs)
);
}
);
width = 858;
},
{
anchors = (
{
name = bottom;
pos = (429,0);
},
{
name = center;
pos = (429,535);
},
{
name = top;
pos = (429,700);
}
);
layerId = "8ED31224-68B7-412A-B4C3-E53F784CF4E5";
shapes = (
{
closed = 1;
nodes = (
(164,-2,ls),
(194,-2,o),
(205,6,o),
(205,20,cs),
(205,321,l),
(653,321,l),
(653,20,ls),
(653,6,o),
(664,-2,o),
(694,-2,cs),
(702,-2,ls),
(732,-2,o),
(743,6,o),
(743,20,cs),
(743,680,ls),
(743,694,o),
(732,702,o),
(702,702,cs),
(694,702,ls),
(664,702,o),
(653,694,o),
(653,680,cs),
(653,397,l),
(205,397,l),
(205,680,ls),
(205,694,o),
(194,702,o),
(164,702,cs),
(156,702,ls),
(126,702,o),
(115,694,o),
(115,680,cs),
(115,20,ls),
(115,6,o),
(126,-2,o),
(156,-2,cs)
);
}
);
width = 858;
},
{
anchors = (
{
name = bottom;
pos = (429,0);
},
{
name = center;
pos = (429,535);
},
{
name = top;
pos = (429,700);
}
);
background = {
shapes = (
{
closed = 1;
nodes = (
(144,-2,ls),
(155,-2,o),
(160,2,o),
(160,10,cs),
(160,341,l),
(670,341,l),
(670,10,ls),
(670,2,o),
(675,-2,o),
(686,-2,cs),
(694,-2,ls),
(705,-2,o),
(710,2,o),
(710,10,cs),
(710,690,ls),
(710,698,o),
(705,702,o),
(694,702,cs),
(686,702,ls),
(675,702,o),
(670,698,o),
(670,690,cs),
(670,377,l),
(160,377,l),
(160,690,ls),
(160,698,o),
(155,702,o),
(144,702,cs),
(136,702,ls),
(125,702,o),
(120,698,o),
(120,690,cs),
(120,10,ls),
(120,2,o),
(125,-2,o),
(136,-2,cs)
);
}
);
};
layerId = "79DB91E0-15EF-4446-816D-FE9384315D55";
shapes = (
{
closed = 1;
nodes = (
(164,-2,ls),
(175,-2,o),
(180,2,o),
(180,10,cs),
(180,341,l),
(678,341,l),
(678,10,ls),
(678,2,o),
(683,-2,o),
(694,-2,cs),
(702,-2,ls),
(713,-2,o),
(718,2,o),
(718,10,cs),
(718,690,ls),
(718,698,o),
(713,702,o),
(702,702,cs),
(694,702,ls),
(683,702,o),
(678,698,o),
(678,690,cs),
(678,377,l),
(180,377,l),
(180,690,ls),
(180,698,o),
(175,702,o),
(164,702,cs),
(156,702,ls),
(145,702,o),
(140,698,o),
(140,690,cs),
(140,10,ls),
(140,2,o),
(145,-2,o),
(156,-2,cs)
);
}
);
width = 858;
}
);
unicode = 72;
userData = {
RMXScaler = {
source = H;
};
};
},
{
glyphname = Hbar;
kernLeft = H;
kernRight = H;
layers = (
{
layerId = UUID0;
shapes = (
{
closed = 1;
nodes = (
(675,501,ls),
(689,501,o),
(695,510,o),
(695,531,cs),
(695,541,ls),
(695,562,o),
(689,571,o),
(675,571,cs),
(58,571,ls),
(44,571,o),
(38,562,o),
(38,541,cs),
(38,531,ls),
(38,510,o),
(44,501,o),
(58,501,cs)
);
},
{
ref = H;
}
);
width = 733;
},
{
layerId = "2C16E7AF-C861-4509-900A-75D3055B0FF7";
shapes = (
{
closed = 1;
nodes = (
(695,503,ls),
(716,503,o),
(725,515,o),
(725,543,cs),
(725,558,ls),
(725,586,o),
(716,598,o),
(695,598,cs),
(38,598,ls),
(17,598,o),
(8,586,o),
(8,558,cs),
(8,543,ls),
(8,515,o),
(17,503,o),
(38,503,cs)
);
},
{
ref = H;
}
);
width = 733;
},
{
layerId = "76F17502-367F-435E-B23E-ED9D928E777B";
shapes = (
{
closed = 1;
nodes = (
(547,501,ls),
(561,501,o),
(567,510,o),
(567,531,cs),
(567,541,ls),
(567,562,o),
(561,571,o),
(547,571,cs),
(33,571,ls),
(19,571,o),
(13,562,o),
(13,541,cs),
(13,531,ls),
(13,510,o),
(19,501,o),
(33,501,cs)
);
},
{
ref = H;
}
);
width = 581;
},
{
layerId = "6662946B-F990-402F-A6FD-22D24AB84B33";
shapes = (
{
closed = 1;
nodes = (
(568,503,ls),
(589,503,o),
(598,515,o),
(598,543,cs),
(598,558,ls),
(598,586,o),
(589,598,o),
(568,598,cs),
(14,598,ls),
(-7,598,o),
(-16,586,o),
(-16,558,cs),
(-16,543,ls),
(-16,515,o),
(-7,503,o),
(14,503,cs)
);
},
{
ref = H;
}
);
width = 581;
},
{
layerId = "534F5340-05B5-45BC-BA3B-B28DD92592EB";
shapes = (
{
closed = 1;
nodes = (
(535,517,ls),
(543,517,o),
(547,521,o),
(547,531,cs),
(547,539,ls),
(547,549,o),
(543,553,o),
(535,553,cs),
(45,553,ls),
(37,553,o),
(33,549,o),
(33,539,cs),
(33,531,ls),
(33,521,o),
(37,517,o),
(45,517,cs)
);
},
{
ref = H;
}
);
width = 581;
},
{
layerId = "84AA6C20-0662-4373-B7CF-A8F69217EDA9";
shapes = (
{
closed = 1;
nodes = (
(664,517,ls),
(672,517,o),
(676,521,o),
(676,531,cs),
(676,539,ls),
(676,549,o),
(672,553,o),
(664,553,cs),
(71,553,ls),
(63,553,o),
(59,549,o),
(59,539,cs),
(59,531,ls),
(59,521,o),
(63,517,o),
(71,517,cs)
);
},
{
ref = H;
}
);
width = 733;
},
{
layerId = "A5A92505-053D-4D0C-ACDC-6F8463E28DE4";
shapes = (
{
closed = 1;
nodes = (
(588,498,ls),
(609,498,o),
(618,515,o),
(618,553,cs),
(618,568,ls),
(618,606,o),
(609,623,o),
(588,623,cs),
(-6,623,ls),
(-27,623,o),
(-36,606,o),
(-36,568,cs),
(-36,553,ls),
(-36,515,o),
(-27,498,o),
(-6,498,cs)
);
},
{
ref = H;
}
);
width = 581;
},
{
layerId = "ACEF5F79-87A6-4D8B-B169-2BFCF1568BF8";
shapes = (
{
closed = 1;
nodes = (
(715,498,ls),
(736,498,o),
(745,515,o),
(745,553,cs),
(745,568,ls),
(745,606,o),
(736,623,o),
(715,623,cs),
(18,623,ls),
(-3,623,o),
(-12,606,o),
(-12,568,cs),
(-12,553,ls),
(-12,515,o),
(-3,498,o),
(18,498,cs)
);
},
{
ref = H;
}
);
width = 733;
},
{
layerId = "2EA36C28-4342-4323-91EA-7DB25AD3237F";
shapes = (
{
closed = 1;
nodes = (
(829,498,ls),
(850,498,o),
(859,515,o),
(859,553,cs),
(859,568,ls),
(859,606,o),
(850,623,o),
(829,623,cs),
(29,623,ls),
(8,623,o),
(-1,606,o),
(-1,568,cs),
(-1,553,ls),
(-1,515,o),
(8,498,o),
(29,498,cs)
);
},
{
ref = H;
}
);
width = 858;
},
{
layerId = "D9F64F14-09E8-47AC-ADF7-F859BCC4D5F5";
shapes = (
{
closed = 1;
nodes = (
(809,503,ls),
(830,503,o),
(839,515,o),
(839,543,cs),
(839,558,ls),
(839,586,o),
(830,598,o),
(809,598,cs),
(49,598,ls),
(28,598,o),
(19,586,o),
(19,558,cs),
(19,543,ls),
(19,515,o),
(28,503,o),
(49,503,cs)
);
},
{
ref = H;
}
);
width = 858;
},
{
layerId = "8ED31224-68B7-412A-B4C3-E53F784CF4E5";
shapes = (
{
closed = 1;
nodes = (
(789,501,ls),
(803,501,o),
(809,510,o),
(809,531,cs),
(809,541,ls),
(809,562,o),
(803,571,o),
(789,571,cs),
(69,571,ls),
(55,571,o),
(49,562,o),
(49,541,cs),
(49,531,ls),
(49,510,o),
(55,501,o),
(69,501,cs)
);
},
{
ref = H;
}
);
width = 858;
},
{
layerId = "79DB91E0-15EF-4446-816D-FE9384315D55";
shapes = (
{
closed = 1;
nodes = (
(778,517,ls),
(786,517,o),
(790,521,o),
(790,531,cs),
(790,539,ls),
(790,549,o),
(786,553,o),
(778,553,cs),
(82,553,ls),
(74,553,o),
(70,549,o),
(70,539,cs),
(70,531,ls),
(70,521,o),
(74,517,o),
(82,517,cs)
);
},
{
ref = H;
}
);
width = 858;
}
);
unicode = 294;
userData = {
RMXScaler = {
source = Hbar;
};
};
},
{
glyphname = I;
kernLeft = H;
kernRight = H;
layers = (
{
anchors = (
{
name = bottom;
pos = (141,0);
},
{
name = ogonek;
pos = (214,0);
},
{
name = top;
pos = (142,700);
}
);
layerId = UUID0;
shapes = (
{
closed = 1;
nodes = (
(146,-2,ls),
(176,-2,o),
(187,6,o),
(187,20,cs),
(187,680,ls),
(187,694,o),
(176,702,o),
(146,702,cs),
(138,702,ls),
(108,702,o),
(97,694,o),
(97,680,cs),
(97,20,ls),
(97,6,o),
(108,-2,o),
(138,-2,cs)
);
}
);
width = 283;
},
{
anchors = (
{
name = bottom;
pos = (142,0);
},
{
name = ogonek;
pos = (240,0);
},
{
name = top;
pos = (142,700);
}
);
layerId = "2C16E7AF-C861-4509-900A-75D3055B0FF7";
shapes = (
{
closed = 1;
nodes = (
(160,-2,ls),
(202,-2,o),
(220,10,o),
(220,31,cs),
(220,669,ls),
(220,690,o),
(202,702,o),
(160,702,cs),
(125,702,ls),
(83,702,o),
(65,690,o),
(65,669,cs),
(65,31,ls),
(65,10,o),
(83,-2,o),
(125,-2,cs)
);
}
);
width = 283;
},
{
anchors = (
{
name = bottom;
pos = (128,0);
},
{
name = ogonek;
pos = (195,0);
},
{
name = top;
pos = (128,700);
}
);
background = {
shapes = (
{
closed = 0;
nodes = (
(96,20,ls),
(96,6,o),
(107,-2,o),
(137,-2,cs),
(145,-2,ls),
(175,-2,o),
(186,6,o),
(186,20,cs)
);
}
);
};
layerId = "76F17502-367F-435E-B23E-ED9D928E777B";
shapes = (
{
closed = 1;
nodes = (
(132,-2,ls),
(162,-2,o),
(173,6,o),
(173,20,cs),
(173,680,ls),
(173,694,o),
(162,702,o),
(132,702,cs),
(124,702,ls),
(94,702,o),
(83,694,o),
(83,680,cs),
(83,20,ls),
(83,6,o),
(94,-2,o),
(124,-2,cs)
);
}
);
width = 255;
},
{
anchors = (
{
name = bottom;
pos = (128,0);
},
{
name = ogonek;
pos = (216,0);
},
{
name = top;
pos = (128,700);
}
);
layerId = "6662946B-F990-402F-A6FD-22D24AB84B33";
shapes = (
{
closed = 1;
nodes = (
(145,-2,ls),
(187,-2,o),
(205,10,o),
(205,31,cs),
(205,669,ls),
(205,690,o),
(187,702,o),
(145,702,cs),
(110,702,ls),
(68,702,o),
(50,690,o),
(50,669,cs),
(50,31,ls),
(50,10,o),
(68,-2,o),
(110,-2,cs)
);
}
);
width = 255;
},
{
anchors = (
{
name = bottom;
pos = (128,0);
},
{
name = ogonek;
pos = (203,0);
},
{
name = top;
pos = (128,700);
}
);
layerId = "534F5340-05B5-45BC-BA3B-B28DD92592EB";
shapes = (
{
closed = 1;
nodes = (
(132,-2,ls),
(143,-2,o),
(148,2,o),
(148,10,cs),
(148,690,ls),
(148,698,o),
(143,702,o),
(132,702,cs),
(124,702,ls),
(113,702,o),
(108,698,o),
(108,690,cs),
(108,10,ls),
(108,2,o),
(113,-2,o),
(124,-2,cs)
);
}
);
width = 255;
},
{
anchors = (
{
name = bottom;
pos = (142,0);
},
{
name = ogonek;
pos = (225,0);
},
{
name = top;
pos = (142,700);
}
);
layerId = "84AA6C20-0662-4373-B7CF-A8F69217EDA9";
shapes = (
{
closed = 1;
nodes = (
(146,-2,ls),
(157,-2,o),
(162,2,o),
(162,10,cs),
(162,690,ls),
(162,698,o),
(157,702,o),
(146,702,cs),
(138,702,ls),
(127,702,o),
(122,698,o),
(122,690,cs),
(122,10,ls),
(122,2,o),
(127,-2,o),
(138,-2,cs)
);
}
);
width = 283;
},
{
anchors = (
{
name = bottom;
pos = (128,0);
},
{
name = ogonek;
pos = (229,0);
},
{
name = top;
pos = (128,700);
}
);
layerId = "A5A92505-053D-4D0C-ACDC-6F8463E28DE4";
shapes = (
{
closed = 1;
nodes = (
(137,-2,ls),
(193,-2,o),
(217,14,o),
(217,41,cs),
(217,659,ls),
(217,686,o),
(193,702,o),
(137,702,cs),
(118,702,ls),
(62,702,o),
(38,686,o),
(38,659,cs),
(38,41,ls),
(38,14,o),
(62,-2,o),
(118,-2,cs)
);
}
);
width = 255;
},
{
anchors = (
{
name = bottom;
pos = (142,0);
},
{
name = ogonek;
pos = (254,0);
},
{
name = top;
pos = (141,700);
}
);
layerId = "ACEF5F79-87A6-4D8B-B169-2BFCF1568BF8";
shapes = (
{
closed = 1;
nodes = (
(154,-2,ls),
(210,-2,o),
(234,14,o),
(234,41,cs),
(234,659,ls),
(234,686,o),
(210,702,o),
(154,702,cs),
(129,702,ls),
(73,702,o),
(49,686,o),
(49,659,cs),
(49,41,ls),
(49,14,o),
(73,-2,o),
(129,-2,cs)
);
}
);
width = 283;
},
{
anchors = (
{
name = bottom;
pos = (160,0);
},
{
name = ogonek;
pos = (284,0);
},
{
name = top;
pos = (160,700);
}
);
background = {
anchors = (
{
name = top;
pos = (161,700);
}
);
};
layerId = "2EA36C28-4342-4323-91EA-7DB25AD3237F";
shapes = (
{
closed = 1;
nodes = (
(176,-2,ls),
(232,-2,o),
(256,14,o),
(256,41,cs),
(256,659,ls),
(256,686,o),
(232,702,o),
(176,702,cs),
(145,702,ls),
(89,702,o),
(65,686,o),
(65,659,cs),
(65,41,ls),
(65,14,o),
(89,-2,o),
(145,-2,cs)
);
}
);
width = 320;
},
{
anchors = (
{
name = bottom;
pos = (161,0);
},
{
name = ogonek;
pos = (270,0);
},
{
name = top;
pos = (160,700);
}
);
background = {
anchors = (
{
name = top;
pos = (161,700);
}
);
};
layerId = "D9F64F14-09E8-47AC-ADF7-F859BCC4D5F5";
shapes = (
{
closed = 1;
nodes = (
(178,-2,ls),
(220,-2,o),
(238,10,o),
(238,31,cs),
(238,669,ls),
(238,690,o),
(220,702,o),
(178,702,cs),
(143,702,ls),
(101,702,o),
(83,690,o),
(83,669,cs),
(83,31,ls),
(83,10,o),
(101,-2,o),
(143,-2,cs)
);
}
);
width = 320;
},
{
anchors = (
{
name = bottom;
pos = (160,0);
},
{
name = ogonek;
pos = (245,0);
},
{
name = top;
pos = (160,700);
}
);
background = {
anchors = (
{
name = top;
pos = (160,700);
}
);
};
layerId = "8ED31224-68B7-412A-B4C3-E53F784CF4E5";
shapes = (
{
closed = 1;
nodes = (
(164,-2,ls),
(194,-2,o),
(205,6,o),
(205,20,cs),
(205,680,ls),
(205,694,o),
(194,702,o),
(164,702,cs),
(156,702,ls),
(126,702,o),
(115,694,o),
(115,680,cs),
(115,20,ls),
(115,6,o),
(126,-2,o),
(156,-2,cs)
);
}
);
width = 320;
},
{
anchors = (
{
name = bottom;
pos = (160,0);
},
{
name = ogonek;
pos = (255,0);
},
{
name = top;
pos = (160,700);
}
);
layerId = "79DB91E0-15EF-4446-816D-FE9384315D55";
shapes = (
{
closed = 1;
nodes = (
(164,-2,ls),
(175,-2,o),
(180,2,o),
(180,10,cs),
(180,690,ls),
(180,698,o),
(175,702,o),
(164,702,cs),
(156,702,ls),
(145,702,o),
(140,698,o),
(140,690,cs),
(140,10,ls),
(140,2,o),
(145,-2,o),
(156,-2,cs)
);
}
);
width = 320;
}
);
unicode = 73;
userData = {
RMXScaler = {
source = I;
};
};
},
